<svg width="847" height="445" viewBox="0 0 847 445" fill="none" xmlns="http://www.w3.org/2000/svg">
<g clip-path="url(#clip0)">
<path d="M840.418 13.2114H3.0415V435.029H840.418V13.2114Z" fill="#470A07"/>
<path opacity="0.3" d="M0 301.021H840.468V300.123H0V301.021ZM0 282.525V283.422H840.468V282.525H0Z" fill="#F8553E"/>
<path opacity="0.3" d="M0 264.477V265.375H840.468V264.477H0ZM0 273.302V274.199H840.468V273.302H0Z" fill="#F8553E"/>
<g opacity="0.8">
<path opacity="0.8" d="M405.775 198.869H230.461V282.275H405.775V198.869Z" fill="#C92926"/>
<path opacity="0.8" d="M266.76 208.64H239.236V237.506H266.76V208.64Z" fill="#F8553E"/>
<path opacity="0.8" d="M310.689 215.57H271.298V220.107H310.689V215.57Z" fill="#F8553E"/>
<path opacity="0.8" d="M310.689 224.943H271.298V229.48H310.689V224.943Z" fill="#F8553E"/>
<path opacity="0.8" d="M394.057 215.57H354.666V220.107H394.057V215.57Z" fill="#F8553E"/>
<path opacity="0.8" d="M394.057 224.943H354.666V229.48H394.057V224.943Z" fill="#F8553E"/>
<path opacity="0.8" d="M310.689 249.322H271.298V253.858H310.689V249.322Z" fill="#F8553E"/>
<path opacity="0.8" d="M310.689 258.694H271.298V263.231H310.689V258.694Z" fill="#F8553E"/>
<path opacity="0.8" d="M394.057 249.322H354.666V253.858H394.057V249.322Z" fill="#F8553E"/>
<path opacity="0.8" d="M394.057 258.694H354.666V263.231H394.057V258.694Z" fill="#F8553E"/>
<path opacity="0.8" d="M266.76 242.94H239.236V271.806H266.76V242.94Z" fill="#F8553E"/>
<path opacity="0.8" d="M349.431 208.64H321.907V237.506H349.431V208.64Z" fill="#F8553E"/>
<path opacity="0.8" d="M349.431 242.94H321.907V271.806H349.431V242.94Z" fill="#F8553E"/>
</g>
<path d="M99.5735 128.076L30.5151 350.127H204.632L111.042 128.076H99.5735Z" fill="url(#paint0_linear)"/>
<path d="M479.37 132.662L409.763 354.714H584.478L490.888 132.662H479.37Z" fill="url(#paint1_linear)"/>
<path d="M487.249 49.7547H483.11V128.874H487.249V49.7547Z" fill="#F8553E"/>
<path d="M485.204 122.093C467.304 122.093 452.794 130.12 452.794 140.041H517.614C517.564 130.17 503.055 122.093 485.204 122.093Z" fill="#F8553E"/>
<path opacity="0.3" d="M485.204 122.093C482.262 122.093 479.37 122.293 476.678 122.741C490.44 124.835 500.561 131.765 500.561 140.091H517.664C517.564 130.17 503.054 122.093 485.204 122.093Z" fill="#84666E"/>
<path d="M107.701 49.7547H103.562V128.874H107.701V49.7547Z" fill="#F8553E"/>
<path d="M105.657 122.093C87.7563 122.093 73.2466 130.12 73.2466 140.041H138.067C138.067 130.17 123.557 122.093 105.657 122.093Z" fill="#F8553E"/>
<path opacity="0.3" d="M105.657 122.093C102.715 122.093 99.8229 122.293 97.1304 122.741C110.892 124.835 121.014 131.765 121.014 140.091H138.117C138.067 130.17 123.557 122.093 105.657 122.093Z" fill="#84666E"/>
<path d="M491.287 242.89C490.689 242.392 489.891 242.192 489.143 242.143C488.445 242.043 487.697 241.993 486.949 241.993C486.55 241.993 486.151 241.993 485.752 242.143C484.855 242.442 484.306 243.289 484.007 244.187C483.758 244.885 483.708 245.732 484.057 246.38C484.356 246.929 484.855 247.327 485.353 247.676C485.553 247.826 485.752 247.976 485.952 248.025C486.799 248.374 487.697 247.826 488.495 247.328C489.143 246.979 489.791 246.63 490.439 246.33C490.888 246.131 491.436 246.031 491.786 245.682C492.583 245.034 491.935 243.489 491.287 242.89Z" fill="#0D0D0D"/>
<path d="M500.76 248.923C500.461 247.826 500.012 246.729 499.215 245.932C498.417 245.134 497.27 244.585 496.173 244.735C494.877 244.885 493.78 245.832 492.633 246.53C491.287 247.327 489.741 247.676 488.245 248.275C486.799 248.873 485.353 249.72 484.655 251.166C484.256 251.964 484.156 252.911 484.106 253.809C484.007 256.251 484.356 258.744 485.154 261.087C485.253 261.386 485.353 261.735 485.602 261.985C485.802 262.284 486.101 262.483 486.45 262.633C487.597 263.331 488.893 263.779 490.19 263.73C491.536 263.68 492.882 263.081 493.53 261.935C493.979 261.237 494.129 260.389 494.478 259.642C495.325 257.996 497.021 257.747 498.566 257.099C500.112 256.401 500.71 254.357 500.96 252.811C501.159 251.465 501.109 250.169 500.76 248.923Z" fill="#0D0D0D"/>
<path d="M506.544 288.208C505.597 286.513 506.046 286.064 505.348 281.328C504.55 276.044 502.954 271.058 501.957 269.612C501.708 269.263 501.409 268.914 500.96 268.665C500.96 268.665 499.763 267.967 498.965 268.167C496.472 268.715 496.422 280.879 498.766 284.768C498.866 284.918 499.265 285.267 499.464 285.965C500.062 288.058 500.711 290.302 502.206 292.595C502.905 293.692 504.101 294.689 505.148 294.789C506.794 294.938 508.539 293.443 508.738 291.997C508.788 290.651 507.592 290.102 506.544 288.208Z" fill="#FEDA4A"/>
<path d="M477.974 311.989C477.974 311.989 484.506 294.689 480.567 285.466C480.267 284.718 479.52 281.328 479.52 281.228C479.42 279.633 481.713 281.079 482.511 279.833C484.207 277.34 483.758 274.398 483.409 271.806C483.06 269.513 482.412 268.765 481.913 268.466C481.414 268.117 479.968 268.416 480.018 268.266C480.068 268.117 483.159 267.369 484.456 266.821C484.705 266.721 484.905 266.97 485.304 267.17C486.301 267.768 495.425 266.92 495.425 266.92C495.425 266.92 495.824 267.02 496.223 267.219C496.373 267.319 496.672 267.419 497.32 267.568C498.816 268.017 499.265 268.017 500.013 268.316C500.511 268.516 500.661 268.914 500.96 269.612C502.007 272.105 502.257 274.598 502.356 275.645C502.556 277.739 502.655 278.786 502.556 279.583C502.306 282.824 501.06 285.117 500.711 285.466C500.661 285.516 500.561 285.616 500.462 285.865C500.312 286.164 500.362 286.463 500.362 286.563C500.461 287.41 500.362 288.258 500.561 289.105C500.761 289.903 502.556 310.742 502.556 310.742C502.556 310.742 477.774 313.135 477.974 311.989Z" fill="#FEDA4A"/>
<path d="M480.318 268.117C479.121 268.565 478.573 269.712 478.273 270.31C475.73 275.495 475.381 276.592 475.381 276.592C473.237 282.923 473.836 282.325 472.589 285.466C472.34 286.164 471.991 287.46 471.293 290.003C471.093 290.651 470.894 291.449 471.043 292.496C471.143 293.243 471.243 294.24 472.041 294.889C472.988 295.686 474.434 295.686 475.431 295.138C476.129 294.789 476.628 294.141 477.326 292.396C478.722 288.906 477.924 288.507 482.811 280.68C483.758 279.184 483.958 276.592 484.057 274.797C484.057 274.398 484.107 272.205 483.359 269.762C483.16 269.114 482.861 268.416 482.262 268.117C481.415 267.718 480.517 268.017 480.318 268.117Z" fill="#FEDA4A"/>
<path d="M481.664 296.434C484.007 297.631 485.802 295.038 486.4 294.041C487.198 292.695 487.398 291.449 487.497 290.701C488.395 283.921 488.245 277.539 488.245 277.539L501.11 277.739C501.11 277.739 501.558 280.331 501.708 281.378C501.808 282.026 501.857 282.525 501.907 283.073C501.907 284.968 500.461 287.361 500.511 287.46C500.611 288.308 502.655 310.792 502.655 310.792C502.655 310.792 477.824 313.185 478.024 312.038C477.974 311.989 480.766 301.669 481.664 296.434Z" fill="#0D0D0D"/>
<path d="M487.846 270.211C488.794 274.498 489.242 276.642 490.29 278.835C490.589 279.484 490.988 280.181 490.838 280.281C490.639 280.431 489.242 279.434 488.544 278.137C487.896 277.041 487.248 273.501 486.301 269.513C486.151 268.765 485.852 267.518 485.603 266.372C485.952 266.123 486.35 265.774 486.6 265.474C486.749 265.873 487.547 268.914 487.846 270.211Z" fill="#0D0D0D"/>
<path d="M501.259 280.68L499.713 280.63C499.763 278.486 499.564 275.146 498.167 271.457C497.519 269.762 496.821 268.216 496.073 267.07C496.622 267.219 497.22 267.419 497.519 267.568C498.217 268.665 498.915 270.011 499.514 271.557C500.96 275.246 501.309 278.536 501.259 280.68Z" fill="#0D0D0D"/>
<path d="M505.398 292.695C505.697 289.504 505.547 287.161 507.043 287.061C509.985 286.912 515.42 283.671 517.614 281.228C517.614 281.228 518.661 280.331 518.611 277.788C518.611 277.739 518.611 277.739 518.611 277.689C518.96 277.639 519.309 277.489 519.608 277.34C519.758 277.29 519.907 277.19 520.057 277.091C521.104 277.19 524.395 274.398 525.193 273.7C525.492 273.451 526.24 272.803 526.589 273.002C526.738 273.102 526.788 273.351 526.788 273.501C526.788 273.8 526.589 274 526.389 274.249C525.641 275.046 525.292 275.296 525.342 275.445C525.641 276.143 526.539 274.847 526.788 276.442C526.988 277.589 526.589 279.035 525.741 279.833C523.846 281.627 523.796 281.976 522.849 282.674C521.802 283.472 521.652 283.173 520.306 284.12C519.359 284.768 516.367 287.41 512.428 291C512.428 291 510.134 293.094 507.242 294.39C507.043 294.49 506.844 294.54 506.544 294.54C506.245 294.54 505.946 294.39 505.747 294.191C505.348 293.792 505.398 293.094 505.398 292.695Z" fill="#FFBEA7"/>
<path d="M509.686 286.164C509.836 286.114 509.936 286.214 509.936 286.363C509.736 287.361 509.736 289.903 511.88 291.498C512.429 291.897 505.847 296.833 503.304 293.692C502.806 293.044 504.501 286.413 506.246 286.463C506.595 286.463 507.094 286.463 507.542 286.463C508.639 286.463 509.288 286.264 509.686 286.164Z" fill="#FEDA4A"/>
<path d="M498.367 273.152C498.816 274.698 499.115 276.293 499.265 277.938C499.265 278.038 499.364 278.138 499.514 278.138C499.614 278.138 499.713 278.038 499.713 277.888C499.564 276.243 499.265 274.598 498.816 273.052C498.218 271.058 497.42 269.114 496.323 267.319C496.273 267.219 496.123 267.17 496.024 267.219C495.924 267.269 495.874 267.419 495.924 267.518" fill="#0D0D0D"/>
<path d="M486.7 272.504C487.248 274.548 487.747 276.492 487.847 277.639C487.897 277.938 487.897 278.237 487.897 278.536C487.996 281.278 487.797 283.123 487.598 285.765C487.498 286.862 487.398 288.158 487.298 289.654C487.248 290.103 487.199 290.95 486.899 291.997C486.65 292.894 486.251 293.742 485.703 294.49C485.354 294.988 484.955 295.586 484.207 296.035C483.958 296.185 483.559 296.434 483.01 296.484C482.611 296.484 482.262 296.434 482.013 296.284C481.913 296.235 481.764 296.284 481.714 296.384C481.664 296.484 481.714 296.633 481.814 296.683C482.163 296.833 482.512 296.883 482.861 296.883C482.911 296.883 482.96 296.883 483.01 296.883C483.658 296.833 484.107 296.584 484.406 296.384C485.204 295.886 485.653 295.238 486.002 294.739C486.55 293.941 486.949 293.094 487.249 292.147C487.598 291.05 487.647 290.202 487.647 289.704C487.747 288.208 487.847 286.962 487.947 285.815C488.146 283.173 488.345 281.278 488.246 278.536C488.246 278.187 488.246 277.938 488.196 277.589C488.096 276.442 487.598 274.448 487.049 272.404C486.501 270.31 485.952 268.117 485.753 266.571C485.753 266.472 485.653 266.372 485.503 266.372C485.404 266.372 485.304 266.472 485.304 266.621" fill="#0D0D0D"/>
<path d="M489.143 283.073C488.245 283.871 487.796 283.671 485.652 284.569C484.555 285.017 484.805 285.017 482.96 285.915C482.212 286.264 481.364 286.663 480.167 287.111C478.871 287.61 477.275 288.507 476.777 288.657C475.131 289.155 475.73 295.736 478.971 293.842C482.062 291.997 484.456 290.8 485.553 289.853C485.553 289.853 486.45 289.056 488.544 287.909C488.644 287.859 488.893 287.709 489.242 287.66C489.89 287.51 490.439 287.709 490.788 287.809C491.436 287.959 492.035 287.959 493.231 287.959C495.276 287.909 497.719 284.868 498.317 283.073C497.519 282.574 496.223 282.425 495.276 282.126C494.129 281.777 493.331 281.777 493.331 281.627C493.331 281.528 493.73 281.528 494.079 281.228C494.627 280.73 494.677 279.733 494.428 279.633C494.328 279.583 494.179 279.733 493.78 279.932C493.181 280.331 493.181 280.181 491.985 280.83C491.187 281.228 490.788 281.478 490.389 281.777C489.741 282.325 489.641 282.624 489.143 283.073Z" fill="#FFBEA7"/>
<path d="M477.824 290.003C477.824 289.105 478.024 288.358 478.273 287.809C477.874 287.959 477.575 288.058 477.326 288.108C475.68 288.607 475.63 288.507 474.683 288.856C473.287 289.405 472.639 289.953 472.24 290.352C471.941 290.651 471.642 290.9 471.442 291.299C470.993 292.097 470.694 293.443 471.243 294.44C472.04 295.736 473.935 295.736 474.583 295.736C475.481 295.736 476.478 295.537 479.52 293.742C478.871 293.094 477.874 291.798 477.824 290.003Z" fill="#FEDA4A"/>
<path d="M491.586 257.349C491.586 257.299 491.586 257.299 491.536 257.249C491.536 257.299 491.586 257.349 491.586 257.349C491.586 257.399 491.586 257.349 491.586 257.349Z" fill="#C36252"/>
<path d="M493.98 262.433L494.28 268.715C494.28 268.715 493.98 270.51 491.936 270.46C489.892 270.41 487.997 268.466 487.997 268.466L488.296 258.744L493.98 262.433Z" fill="#FFBEA7"/>
<path d="M494.13 266.023C491.687 265.823 489.343 262.982 488.146 261.287L488.246 258.744L493.98 262.433L494.13 266.023Z" fill="#FFBEA7"/>
<path d="M498.717 251.914C498.717 251.914 500.512 259.342 496.423 263.381C495.924 263.879 495.177 264.029 494.528 263.829C492.334 263.231 487.647 261.187 487.647 255.354C487.647 247.776 492.035 246.879 492.035 246.879C492.035 246.879 496.323 246.53 498.717 251.914Z" fill="#FFBEA7"/>
<path d="M488.894 258.944L488.495 256.102C488.495 256.102 486.9 254.307 486.252 255.254C485.653 256.251 486.95 259.442 488.894 258.944Z" fill="#FFBEA7"/>
<path d="M493.382 255.155C493.382 255.553 493.531 255.902 493.731 255.902C493.93 255.902 494.08 255.553 494.08 255.155C494.08 254.756 493.93 254.407 493.731 254.407C493.531 254.407 493.382 254.706 493.382 255.155Z" fill="#451109"/>
<path d="M496.723 255.354C496.723 255.753 496.872 256.102 497.072 256.102C497.271 256.102 497.421 255.753 497.421 255.354C497.421 254.955 497.271 254.606 497.072 254.606C496.872 254.556 496.723 254.905 496.723 255.354Z" fill="#451109"/>
<path d="M495.875 256.102C495.875 256.102 495.925 257.747 496.473 257.946C497.022 258.146 495.925 258.744 495.127 258.445" stroke="#451109" stroke-width="0.6142" stroke-miterlimit="10"/>
<path d="M491.587 249.471C490.54 250.718 488.795 251.366 487.199 251.116C486.601 250.319 487.149 249.172 487.747 248.374C489.243 246.43 491.537 244.835 493.98 245.134C495.775 245.333 497.321 246.53 498.368 247.976C499.166 249.072 499.814 250.369 500.213 251.615C500.712 253.16 499.465 253.16 498.268 252.961C496.972 252.762 495.725 252.363 494.579 251.715C494.279 251.615 491.387 249.72 491.587 249.471Z" fill="#0D0D0D"/>
<path d="M494.329 249.421C493.581 250.718 492.733 252.014 491.636 253.011C490.539 254.008 489.143 254.756 487.648 254.905C487.398 254.905 487.099 254.905 486.949 254.706C486.85 254.556 486.8 254.407 486.8 254.207C486.7 253.21 486.75 252.213 486.949 251.216C487.049 250.718 487.199 250.269 487.448 249.82C487.747 249.372 488.196 249.023 488.645 248.674C489.492 248.125 490.39 247.627 491.387 247.477C492.384 247.327 493.481 247.577 494.179 248.325" fill="#0D0D0D"/>
<path d="M490.24 246.729C490.34 246.58 492.633 245.483 492.633 245.483C492.633 245.483 492.135 245.084 491.935 245.084C491.736 245.084 485.453 247.527 485.503 247.976C485.553 248.424 486.849 248.823 486.849 248.823L490.24 246.729Z" fill="#FEDA4A"/>
<path d="M495.874 260.738L493.93 259.542C493.93 259.542 493.98 262.284 495.874 260.738Z" fill="white"/>
<path d="M473.486 289.454L478.323 287.61C478.323 287.61 476.777 290.501 479.22 293.343" stroke="white" stroke-width="0.5948" stroke-miterlimit="10"/>
<path d="M506.195 286.314C506.195 286.314 504.101 287.41 503.752 290.302" stroke="white" stroke-width="0.5948" stroke-miterlimit="10"/>
<path d="M485.952 269.363C485.952 269.363 488.146 276.542 487.947 280.281" stroke="white" stroke-width="0.5948" stroke-miterlimit="10"/>
<path d="M526.09 278.088C526.09 278.038 526.04 277.988 526.04 277.938C525.991 277.888 525.891 277.888 525.841 277.888C525.642 277.888 525.492 277.938 525.292 277.988C525.243 277.988 525.193 278.038 525.143 277.988C525.143 277.988 525.093 277.938 525.093 277.888C525.043 277.589 525.093 277.24 525.193 276.991C525.293 276.791 525.442 276.592 525.442 276.343C525.442 276.193 525.442 276.044 525.392 275.894C525.093 274.598 524.744 273.252 524.445 271.956C522.899 272.753 521.353 273.501 519.708 274.099C519.708 274.548 519.907 274.947 520.107 275.396C520.556 276.393 521.004 277.39 521.503 278.337C521.553 278.437 521.603 278.536 521.702 278.586C521.852 278.686 522.002 278.636 522.151 278.586C522.45 278.536 522.799 278.437 523.099 278.387C522.75 278.686 522.351 278.885 521.952 278.985C522.351 280.431 522.799 281.877 523.198 283.322C523.198 283.372 523.198 283.372 523.248 283.422C523.298 283.422 523.348 283.422 523.348 283.422C523.697 283.272 523.996 283.073 524.345 282.874C525.193 282.425 526.19 282.126 527.137 282.076C527.337 282.076 526.689 280.531 526.689 280.381C526.439 279.583 526.29 278.835 526.09 278.088Z" fill="#C19DAA"/>
<path d="M525.442 277.489C525.442 277.44 525.392 277.39 525.342 277.34C525.292 277.29 525.192 277.29 525.143 277.34C524.943 277.39 524.793 277.44 524.644 277.539C524.594 277.589 524.544 277.589 524.494 277.589L524.444 277.539C524.345 277.24 524.295 276.941 524.345 276.642C524.395 276.442 524.494 276.193 524.444 275.994C524.444 275.844 524.345 275.695 524.295 275.545C523.697 274.299 523.148 273.102 522.55 271.856C521.203 272.953 519.807 274 518.361 274.897C518.461 275.346 518.71 275.695 519.01 276.093C519.658 276.991 520.306 277.838 520.954 278.686C521.004 278.786 521.104 278.835 521.203 278.885C521.353 278.935 521.503 278.885 521.652 278.786C521.951 278.636 522.251 278.536 522.55 278.387C522.3 278.736 521.951 279.035 521.552 279.234C522.251 280.58 522.949 281.877 523.647 283.223C523.647 283.272 523.697 283.272 523.697 283.272C523.746 283.272 523.746 283.272 523.796 283.223C524.095 283.023 524.345 282.724 524.644 282.475C525.392 281.827 526.289 281.378 527.237 281.129C527.386 281.079 526.489 279.683 526.439 279.583C526.09 278.885 525.741 278.187 525.442 277.489Z" fill="white"/>
<path d="M520.207 277.789C520.805 276.991 521.404 276.193 521.653 275.296C521.753 274.997 521.803 274.698 521.703 274.448C521.703 274.398 521.653 274.349 521.603 274.299C521.553 274.249 521.503 274.299 521.453 274.299C521.254 274.349 521.055 274.448 520.855 274.498C519.658 275.096 518.761 276.343 518.611 277.689C518.611 277.838 518.611 277.938 518.611 278.088C518.661 278.387 518.96 278.636 519.26 278.636" fill="#FFBEA7"/>
<path d="M586.873 383.729H448.806L577.947 309.596L594.601 321.81L586.873 383.729Z" fill="#AF2222"/>
<path opacity="0.33" d="M586.873 383.729H448.806L577.947 309.596L594.601 321.81L586.873 383.729Z" fill="#2B2B2B"/>
<path d="M587.719 307.153L598.041 316.376L599.736 323.854L594.201 325.2L594.6 321.81L582.883 313.235L587.719 307.153Z" fill="#7D3122"/>
<path d="M573.41 383.729H408.467L405.426 313.584H584.08L573.41 383.729Z" fill="#C92926"/>
<path opacity="0.33" d="M573.409 383.729H573.21C570.517 348.781 544.689 321.112 509.686 318.669L437.237 313.584H584.03L573.409 383.729Z" fill="#2B2B2B"/>
<path d="M514.223 308.1H545.237C546.484 308.1 547.531 307.053 547.531 305.807V291.947C547.531 290.701 546.484 289.654 545.237 289.654H523.548C522.8 289.654 522.052 290.053 521.653 290.651L512.329 304.51C511.331 306.056 512.379 308.1 514.223 308.1Z" fill="#C19DAA"/>
<path d="M535.356 289.636L537.799 289.636L537.799 284.551L535.356 284.551L535.356 289.636Z" fill="#8E767D"/>
<path d="M531.475 287.211H541.348C542.146 287.211 542.844 286.563 542.844 285.715V282.475C542.844 281.677 542.195 280.979 541.348 280.979H531.475C530.678 280.979 529.979 281.627 529.979 282.475V285.715C530.029 286.563 530.678 287.211 531.475 287.211Z" fill="#C19DAA"/>
<path d="M512.329 304.56L521.653 290.701C522.102 290.053 522.8 289.704 523.548 289.704C524.395 289.704 525.093 290.402 525.093 291.249V306.604C525.093 307.452 524.395 308.15 523.548 308.15H514.223C512.379 308.1 511.331 306.056 512.329 304.56Z" fill="#8E767D"/>
<path d="M531.475 281.029C532.223 281.029 532.871 281.677 532.871 282.425V285.815C532.871 286.563 532.223 287.211 531.475 287.211C530.678 287.211 529.979 286.563 529.979 285.715V282.475C530.029 281.727 530.678 281.029 531.475 281.029Z" fill="#8E767D"/>
<path d="M590.263 314.78H400.539L402.035 308.549L587.72 307.153L590.263 314.78Z" fill="#7D3122"/>
<path d="M4.78662 161.578H845.255V0H4.78662V161.578Z" fill="url(#paint2_linear)"/>
<g opacity="0.8">
<path opacity="0.8" d="M79.679 199.318H10.2217V300.771H79.679V199.318Z" fill="#7D3122"/>
<g opacity="0.8">
<path opacity="0.8" d="M79.679 199.318H10.2217V300.771H79.679V199.318Z" fill="#7D3122"/>
<path opacity="0.8" d="M77.1361 202.159H12.7148V297.431H77.1361V202.159Z" fill="#C92926"/>
<path opacity="0.8" d="M49.8121 266.023H18.1001V269.862H49.8121V266.023Z" fill="#F8553E"/>
<path opacity="0.8" d="M49.8121 285.566H18.1001V289.405H49.8121V285.566Z" fill="#F8553E"/>
<path opacity="0.8" d="M69.2083 273.7H18.1001V279.035H69.2083V273.7Z" fill="#F8553E"/>
<path opacity="0.8" d="M69.2083 210.685H18.1001V259.891H69.2083V210.685Z" fill="#F8553E"/>
</g>
</g>
<g opacity="0.8">
<path opacity="0.8" d="M681.708 199.318H612.251V300.771H681.708V199.318Z" fill="#F8553E"/>
<g opacity="0.8">
<path opacity="0.8" d="M681.708 199.318H612.251V300.771H681.708V199.318Z" fill="#7D3122"/>
<path opacity="0.8" d="M679.165 202.159H614.744V297.431H679.165V202.159Z" fill="#C92926"/>
<path opacity="0.8" d="M651.891 266.023H620.179V269.862H651.891V266.023Z" fill="#F8553E"/>
<path opacity="0.8" d="M651.891 285.566H620.179V289.405H651.891V285.566Z" fill="#F8553E"/>
<path opacity="0.8" d="M671.287 273.7H620.179V279.035H671.287V273.7Z" fill="#F8553E"/>
<path opacity="0.8" d="M671.287 210.685H620.179V259.891H671.287V210.685Z" fill="#F8553E"/>
</g>
</g>
<path d="M143.597 445V0H3.18701V445H143.597Z" fill="url(#paint3_linear)"/>
<path d="M706.59 0V445H847V0H706.59Z" fill="url(#paint4_linear)"/>
<path d="M670.838 306.106C670.838 306.106 670.539 330.784 667.348 341.502C664.157 352.221 642.966 377.996 642.966 377.996C642.966 377.996 641.021 377.597 640.173 377.148C638.877 376.5 636.234 374.157 636.234 374.157C636.234 374.157 647.204 354.664 649.797 350.725C654.633 343.247 655.481 341.552 655.83 339.408C656.628 334.622 647.952 309.596 656.029 297.88" fill="#0D0D0D"/>
<path d="M659.619 307.352C659.619 307.352 669.741 332.927 670.838 344.095C671.885 355.262 672.284 383.53 672.284 383.53C672.284 383.53 672.484 384.527 671.536 384.676C670.589 384.826 664.207 383.48 664.207 383.48C664.207 383.48 661.215 363.688 660.118 357.007C659.021 350.227 659.021 346.388 658.772 345.142C657.824 340.356 639.625 319.168 642.716 305.258" fill="#0D0D0D"/>
<path d="M666.749 277.739C667.198 274.398 666.351 268.366 666.351 268.366C666.351 268.366 669.292 268.216 670.938 272.105C674.378 280.181 672.883 297.531 672.683 300.024C672.683 300.024 673.88 304.959 672.135 313.534C672.384 314.132 672.733 314.93 672.932 315.229C672.982 315.279 672.982 315.279 673.032 315.329C673.232 315.628 673.281 316.077 673.032 316.426L671.885 318.22C671.786 318.37 671.636 318.52 671.437 318.619C671.387 318.669 671.337 318.669 671.237 318.669L669.841 319.018L669.691 314.232C669.243 309.546 666.351 280.83 666.749 277.739Z" fill="#FFBEA7"/>
<path d="M644.91 244.237C646.107 242.392 647.752 242.342 649.348 240.797C650.844 239.351 653.636 238.404 655.83 238.404C662.91 238.404 669.093 242.741 667.647 250.119C667.198 252.462 667.597 254.307 665.702 257.049C663.359 260.439 660.467 263.181 655.83 263.181C653.387 263.181 651.243 262.633 649.348 260.838C648.301 259.841 646.855 259.741 645.907 258.694C644.063 256.551 644.212 253.709 643.514 250.817C642.966 248.125 643.714 246.131 644.91 244.237Z" fill="#0D0D0D"/>
<path d="M662.362 268.067L660.467 269.064L653.536 272.604L652.39 266.771C652.39 266.771 653.187 264.577 653.536 261.087C653.686 259.542 653.736 257.797 653.586 255.853L660.816 259.542C660.766 259.492 659.221 265.524 662.362 268.067Z" fill="#FFBEA7"/>
<path d="M662.362 268.067L660.467 269.064C659.769 268.466 659.071 267.867 658.373 267.319C657.675 266.721 656.977 266.123 656.378 265.425C655.68 264.627 655.132 263.73 654.583 262.832C654.234 262.234 653.885 261.636 653.536 261.087C653.686 259.542 653.736 257.797 653.586 255.853L660.816 259.542C660.766 259.492 659.22 265.524 662.362 268.067Z" fill="#FFBEA7"/>
<path d="M661.015 262.533C661.015 262.533 651.94 263.63 651.791 257.248C651.591 250.867 655.381 246.729 657.874 246.779C662.91 246.879 663.708 248.923 664.306 251.017C664.855 253.16 665.154 262.084 661.015 262.533Z" fill="#FFBEA7"/>
<path d="M641.47 280.83L640.323 271.208C640.523 270.958 640.622 270.759 640.822 270.51C642.866 268.017 650.794 266.87 652.39 266.721C652.44 266.771 656.129 269.812 658.722 269.463C660.966 269.164 661.315 268.017 661.265 266.721C665.952 267.518 668.595 268.964 668.595 268.964C673.382 270.759 674.329 286.563 674.329 286.563C673.681 286.363 670.539 286.912 669.044 287.211L669.642 310.692C658.273 315.678 641.869 312.487 641.869 312.487L641.919 312.338L643.016 293.542L641.969 284.967L641.47 280.83Z" fill="#FEDA4A"/>
<path d="M634.788 281.777C634.788 281.777 639.425 283.671 641.42 285.267C641.819 285.566 643.664 286.912 643.863 287.061L649.747 271.956L651.043 269.363L652.24 266.92L652.339 266.721C652.339 266.721 652.24 266.721 652.04 266.771C651.342 266.82 649.697 267.07 647.802 267.469C646.605 267.768 645.309 268.067 644.112 268.516H644.062C642.666 269.064 641.42 269.712 640.772 270.51C640.572 270.709 640.472 270.958 640.273 271.208C637.979 274.498 634.788 281.777 634.788 281.777Z" fill="#FEDA4A"/>
<path d="M660.068 246.879C660.068 246.879 652.339 246.879 654.134 252.163C655.231 255.504 651.542 256.052 651.542 256.052C651.542 256.052 649.946 252.114 649.747 250.668C649.597 249.571 649.996 247.128 650.893 246.48C652.738 245.134 660.068 246.879 660.068 246.879Z" fill="#0D0D0D"/>
<path d="M636.982 296.334C637.431 295.487 637.93 294.689 638.428 293.941C639.027 290.9 641.32 288.956 643.265 286.513C643.315 286.413 643.315 286.363 643.365 286.264C642.268 285.167 637.281 282.525 634.888 281.777C633.043 286.413 632.445 291.05 633.492 295.487C633.592 295.935 633.991 296.284 634.489 296.334C635.087 296.384 635.935 296.384 636.982 296.334Z" fill="#FFBEA7"/>
<path d="M657.525 252.313C657.525 252.811 657.725 253.21 657.924 253.21C658.174 253.21 658.373 252.811 658.373 252.313C658.373 251.814 658.174 251.416 657.974 251.416C657.725 251.416 657.525 251.814 657.525 252.313Z" fill="#451109"/>
<path d="M661.515 252.662C661.515 253.16 661.714 253.559 661.914 253.559C662.163 253.559 662.362 253.16 662.362 252.662C662.362 252.163 662.163 251.765 661.963 251.765C661.714 251.765 661.515 252.163 661.515 252.662Z" fill="#451109"/>
<path d="M661.116 257.797C661.116 257.797 659.72 258.445 657.925 257.249" stroke="#451109" stroke-width="0.7255" stroke-miterlimit="10"/>
<path d="M660.468 253.509C660.468 253.509 660.468 255.454 661.166 255.703C661.814 255.952 660.468 256.65 659.57 256.251" stroke="#451109" stroke-width="0.7255" stroke-miterlimit="10"/>
<path d="M637.481 371.664C637.481 371.664 632.843 376.849 632.744 378.893C632.644 380.937 645.209 387.717 645.608 387.019C646.007 386.321 643.165 381.436 644.112 376.7L637.481 371.664Z" fill="white"/>
<path d="M638.927 383.928C642.118 385.823 645.409 387.368 645.608 387.019C645.857 386.571 644.76 384.327 644.212 381.486C642.567 381.585 640.423 382.134 638.927 383.928Z" fill="#0D0D0D"/>
<path d="M645.608 387.019C645.708 386.87 645.608 386.471 645.459 385.923C640.472 383.43 635.586 379.292 633.292 377.248C632.943 377.896 632.744 378.444 632.694 378.893C632.594 380.887 645.209 387.717 645.608 387.019Z" fill="white"/>
<path d="M664.008 382.134C664.008 382.134 663.808 389.063 665.055 390.709C666.301 392.354 680.263 389.363 680.163 388.565C680.013 387.767 674.728 385.873 672.335 381.635L664.008 382.134Z" fill="white"/>
<path d="M673.032 390.559C676.672 389.911 680.212 388.964 680.113 388.565C680.013 388.066 677.719 387.069 675.475 385.225C674.329 386.421 673.032 388.216 673.032 390.559Z" fill="#0D0D0D"/>
<path d="M680.162 388.565C680.113 388.365 679.813 388.166 679.365 387.817C673.98 389.163 667.547 389.163 664.456 389.063C664.606 389.761 664.805 390.36 665.054 390.709C666.251 392.354 680.262 389.363 680.162 388.565Z" fill="white"/>
<path d="M638.777 291.399L643.016 313.085C643.016 313.085 647.653 313.983 647.653 314.531C647.653 315.08 646.356 315.728 645.01 315.478C643.714 315.229 647.354 318.071 647.005 318.42C646.656 318.769 646.406 321.61 643.365 320.613C640.323 319.616 640.223 317.373 639.824 315.927C639.426 314.631 633.293 296.633 632.096 293.193C631.946 292.844 631.946 292.446 632.046 292.047L633.741 285.516" fill="#FFBEA7"/>
<path d="M644.412 285.117L648.999 278.536" stroke="white" stroke-width="0.6435" stroke-miterlimit="10"/>
<path d="M663.06 315.329L666.949 327.892" stroke="white" stroke-width="0.7778" stroke-miterlimit="10"/>
<path d="M333.923 339.359C313.929 339.359 301.762 330.086 301.214 329.687L305.352 326.745L303.308 328.241L305.352 326.745C305.402 326.745 308.444 329.089 313.779 331.232C320.909 334.124 328.488 335.37 336.416 335.021C355.563 334.174 364.089 326.596 364.189 326.546L368.627 329.238C368.228 329.587 358.355 338.312 336.765 339.259C335.818 339.359 334.871 339.359 333.923 339.359Z" fill="#F8553E"/>
<path d="M370.372 389.861V318.819C370.372 318.171 369.574 317.622 368.627 317.622H365.436H365.386C364.438 317.622 363.69 318.171 363.69 318.819V389.861H370.372Z" fill="#7D3122"/>
<path opacity="0.1" d="M367.031 389.861V318.819C367.031 318.171 366.283 317.622 365.336 317.622C364.389 317.622 363.641 318.171 363.641 318.819V389.861H367.031Z" fill="white"/>
<path d="M269.153 339.359C249.158 339.359 236.992 330.086 236.443 329.687L240.582 326.745L238.538 328.241L240.582 326.745C240.632 326.745 243.673 329.089 249.008 331.232C256.139 334.124 263.718 335.37 271.646 335.021C290.793 334.174 299.319 326.596 299.419 326.546L303.856 329.238C303.457 329.587 293.585 338.312 271.995 339.259C271.047 339.359 270.1 339.359 269.153 339.359Z" fill="#F8553E"/>
<path d="M305.602 389.861V318.819C305.602 318.171 304.805 317.622 303.857 317.622H300.666H300.616C299.669 317.622 298.921 318.171 298.921 318.819V389.861H305.602Z" fill="#7D3122"/>
<path opacity="0.1" d="M302.262 389.861V318.819C302.262 318.171 301.514 317.622 300.566 317.622C299.619 317.622 298.871 318.171 298.871 318.819V389.861H302.262Z" fill="white"/>
<path d="M241.879 389.861V318.819C241.879 318.171 241.081 317.622 240.134 317.622H236.942H236.893C235.945 317.622 235.197 318.171 235.197 318.819V389.861H241.879Z" fill="#7D3122"/>
<path opacity="0.1" d="M238.538 389.861V318.819C238.538 318.171 237.79 317.622 236.843 317.622C235.895 317.622 235.147 318.171 235.147 318.819V389.861H238.538Z" fill="white"/>
<path d="M807.859 198.869H708.136V382.931H807.859V198.869Z" fill="#C92926"/>
<path d="M705.193 198.869V382.931H804.917V198.869H705.193ZM800.279 382.333H710.479V204.852L800.279 205.101V382.333Z" fill="#F8553E"/>
<path opacity="0.28" d="M705.144 382.931H804.917V198.869L705.144 382.931Z" fill="url(#paint5_linear)"/>
<path d="M801.177 382.483H709.631V203.655L801.177 203.904V382.483Z" fill="#2D0D0D"/>
<path d="M802.324 164.32H782.629V188.749H802.324V164.32Z" fill="#7D3122"/>
<path d="M800.729 164.32H708.435V188.749H800.729V164.32Z" fill="#C92926"/>
<path opacity="0.67" d="M789.809 170.751C789.909 170.751 790.009 170.801 790.108 170.851C790.208 170.951 790.208 171 790.208 171.15V172.197C790.208 172.297 790.158 172.396 790.108 172.496C790.059 172.596 789.959 172.696 789.909 172.745L787.715 175.039C788.164 175.089 788.563 175.188 788.912 175.388C789.261 175.537 789.61 175.737 789.859 175.986C790.108 176.235 790.308 176.534 790.457 176.883C790.607 177.232 790.657 177.631 790.657 178.03C790.657 178.528 790.557 179.027 790.358 179.426C790.158 179.825 789.859 180.174 789.51 180.473C789.161 180.772 788.712 180.971 788.214 181.121C787.715 181.27 787.167 181.32 786.618 181.32C785.92 181.32 785.322 181.221 784.823 181.071C784.324 180.921 783.876 180.672 783.527 180.423C783.178 180.174 782.928 179.875 782.729 179.526C782.529 179.177 782.43 178.877 782.43 178.578C782.43 178.479 782.48 178.379 782.529 178.279C782.629 178.229 782.729 178.179 782.829 178.179H784.025C784.125 178.179 784.225 178.229 784.275 178.279C784.324 178.329 784.424 178.429 784.474 178.578C784.524 178.678 784.624 178.828 784.723 178.927C784.823 179.027 784.973 179.127 785.122 179.226C785.272 179.326 785.471 179.376 785.721 179.426C785.97 179.476 786.269 179.476 786.618 179.476C787.216 179.476 787.715 179.376 788.064 179.127C788.413 178.877 788.613 178.528 788.613 178.08C788.613 177.631 788.413 177.332 788.064 177.133C787.715 176.933 787.216 176.833 786.618 176.833H785.372C785.272 176.833 785.172 176.784 785.072 176.734C784.973 176.634 784.973 176.584 784.973 176.435V175.388C784.973 175.288 785.023 175.188 785.072 175.089C785.122 174.989 785.222 174.889 785.272 174.839L787.366 172.646H783.228C783.128 172.646 783.028 172.596 782.928 172.546C782.829 172.446 782.829 172.396 782.829 172.247V171.2C782.829 171.1 782.878 171 782.928 170.901C783.028 170.801 783.078 170.801 783.228 170.801H789.809V170.751Z" fill="white"/>
<g opacity="0.67">
<path d="M720.616 182.467C723.495 182.467 725.219 181.056 725.219 178.837V178.829C725.219 177.009 724.143 176.024 721.755 175.543L720.545 175.294C719.232 175.03 718.647 174.605 718.647 173.876V173.868C718.647 173.042 719.383 172.473 720.608 172.465C721.787 172.465 722.609 173.018 722.728 173.924L722.736 174.02H724.989L724.981 173.868C724.871 171.84 723.25 170.502 720.608 170.502C718.078 170.502 716.259 171.896 716.259 174.012V174.02C716.259 175.759 717.398 176.849 719.651 177.306L720.853 177.546C722.269 177.843 722.83 178.236 722.83 179.021V179.029C722.83 179.91 722 180.496 720.679 180.496C719.375 180.496 718.434 179.935 718.283 179.037L718.267 178.949H716.014L716.022 179.077C716.156 181.209 717.904 182.467 720.616 182.467Z" fill="white"/>
<path d="M729.094 182.267H731.482V172.698H734.787V170.702H725.796V172.698H729.094V182.267Z" fill="white"/>
<path d="M740.892 182.467C743.834 182.467 745.669 180.744 745.669 178.179V170.702H743.281V177.963C743.281 179.462 742.427 180.415 740.892 180.415C739.358 180.415 738.496 179.462 738.496 177.963V170.702H736.108V178.179C736.108 180.752 737.966 182.467 740.892 182.467Z" fill="white"/>
<path d="M747.575 182.267H751.932C755.356 182.267 757.373 180.111 757.373 176.44V176.424C757.373 172.762 755.348 170.702 751.932 170.702H747.575V182.267ZM749.963 180.263V172.698H751.647C753.743 172.698 754.937 174.02 754.937 176.432V176.448C754.937 178.949 753.783 180.263 751.647 180.263H749.963Z" fill="white"/>
<path d="M758.915 182.267H761.303V170.702H758.915V182.267Z" fill="white"/>
<path d="M768.349 182.467C771.742 182.467 773.853 180.167 773.853 176.488V176.472C773.853 172.802 771.734 170.502 768.349 170.502C764.972 170.502 762.845 172.794 762.845 176.472V176.488C762.845 180.167 764.957 182.467 768.349 182.467ZM768.349 180.415C766.475 180.415 765.281 178.909 765.281 176.488V176.472C765.281 174.052 766.483 172.554 768.349 172.554C770.223 172.554 771.418 174.06 771.418 176.472V176.488C771.418 178.885 770.247 180.415 768.349 180.415Z" fill="white"/>
</g>
<path d="M737.404 304.012C737.404 304.012 745.98 329.886 747.077 341.153C748.174 352.42 751.963 381.386 751.963 381.386C751.963 381.386 750.567 382.383 749.62 382.532C748.623 382.682 744.933 382.782 744.933 382.782C744.933 382.782 737.055 361.095 735.958 354.365C734.861 347.535 734.013 343.646 733.764 342.4C732.816 337.564 717.26 316.027 720.351 301.968" fill="#0D0D0D"/>
<path d="M731.271 305.358C731.271 305.358 729.476 330.684 727.082 341.752C724.141 355.362 702.6 376.65 702.6 376.65C702.6 376.65 700.706 378.644 699.758 378.444C698.811 378.195 695.919 373.359 695.919 373.359C695.919 373.359 704.994 354.764 707.587 350.775C712.473 343.247 713.72 342.051 714.069 339.907C714.866 335.071 705.692 309.197 713.819 297.381" fill="#0D0D0D"/>
<path d="M697.415 371.265C697.415 371.265 693.227 376.201 693.127 378.095C693.077 379.99 704.944 386.072 705.343 385.424C705.742 384.776 702.95 380.289 703.698 375.802L697.415 371.265Z" fill="white"/>
<path d="M699.01 382.732C702.051 384.427 705.143 385.823 705.342 385.474C705.592 385.025 704.495 382.981 703.896 380.339C702.4 380.439 700.356 380.987 699.01 382.732Z" fill="#0D0D0D"/>
<path d="M705.343 385.474C705.442 385.324 705.343 384.975 705.193 384.477C700.506 382.283 695.869 378.494 693.675 376.6C693.376 377.198 693.176 377.746 693.127 378.145C693.027 379.99 704.944 386.122 705.343 385.474Z" fill="white"/>
<path d="M744.035 380.289C744.035 380.289 744.035 385.474 744.983 387.119C745.93 388.764 759.243 387.568 759.243 386.82C759.193 386.072 754.456 383.729 752.711 379.541L744.035 380.289Z" fill="white"/>
<path d="M752.412 387.867C755.853 387.667 759.243 387.169 759.193 386.82C759.193 386.321 757.149 385.175 755.254 383.23C754.058 384.178 752.661 385.723 752.412 387.867Z" fill="#0D0D0D"/>
<path d="M759.194 386.82C759.194 386.67 758.944 386.371 758.495 386.072C753.36 386.72 747.376 386.022 744.534 385.574C744.584 386.222 744.734 386.82 744.933 387.169C745.93 388.764 759.243 387.568 759.194 386.82Z" fill="white"/>
<path d="M731.371 264.378C731.371 264.378 735.709 264.378 736.457 268.316C737.205 272.255 740.745 284.419 742.241 288.707C742.988 290.8 740.844 293.692 738.252 293.891C733.814 294.24 730.772 274.897 730.772 274.897L731.371 264.378Z" fill="#FEDA4A"/>
<path d="M710.179 268.815C710.179 268.815 710.927 265.624 713.021 264.826C715.115 263.979 728.578 264.428 731.32 264.378C734.062 264.328 733.813 269.762 733.763 273.95C733.713 278.137 735.758 294.889 735.758 294.889L738.899 308C729.774 307.003 710.129 308 710.129 308C710.129 308 711.326 282.475 710.179 268.815Z" fill="#FEDA4A"/>
<path d="M733.813 273.95C733.764 278.137 735.808 294.889 735.808 294.889" stroke="#451109" stroke-width="0.6007" stroke-miterlimit="10"/>
<path d="M713.071 264.776C713.071 264.776 708.334 264.328 706.44 272.953C704.545 281.577 699.309 299.226 702.949 300.123C706.589 301.021 710.478 296.434 712.922 282.425C715.365 268.416 713.071 264.776 713.071 264.776Z" fill="#FEDA4A"/>
<path d="M702.949 300.123C706.589 301.021 710.478 296.434 712.922 282.425C713.819 277.29 714.068 273.551 714.018 270.859" stroke="#451109" stroke-width="0.6007" stroke-miterlimit="10"/>
<path d="M729.176 240.896C729.026 240.946 727.281 237.606 724.439 239.7C724.439 239.7 720.051 236.011 717.957 241.046C717.957 241.046 714.915 240.697 715.514 243.439C715.514 243.439 712.971 243.888 714.417 246.829C714.417 246.829 712.522 248.674 714.865 250.618C714.865 250.618 713.32 252.313 716.062 254.157C716.062 254.157 715.763 256.251 717.907 256.501C717.907 256.501 718.007 260.09 721.198 258.395L728.927 255.603C728.927 255.603 733.065 256.7 732.267 253.908C732.267 253.908 734.411 253.958 733.713 251.515C733.713 251.515 735.159 249.521 733.514 248.025C733.514 248.025 735.309 245.383 732.467 244.386C732.517 244.436 734.561 239.899 729.176 240.896Z" fill="#0D0D0D"/>
<path d="M726.284 260.29L726.184 266.272C726.184 266.272 726.234 267.718 723.741 267.768C721.248 267.818 719.453 264.876 719.453 264.876L719.752 256.65L726.284 260.29Z" fill="#FFBEA7"/>
<path d="M719.653 259.691L719.753 256.7L726.285 260.339L726.235 264.826C724.191 263.879 721.299 261.287 719.653 259.691Z" fill="#FFBEA7"/>
<path d="M730.324 248.923C730.373 249.122 732.268 258.295 728.03 261.785C728.03 261.785 720.002 261.536 718.855 253.659C717.709 245.782 721.348 244.735 721.348 244.735C721.348 244.735 728.229 242.392 730.324 248.923Z" fill="#FFBEA7"/>
<path d="M723.492 246.729C723.542 246.53 725.537 248.374 727.082 246.779C727.082 246.779 727.581 247.976 729.476 247.577C729.476 247.577 729.226 249.421 730.623 249.521C732.019 249.621 730.922 246.679 730.922 246.679C730.922 246.679 732.617 243.937 729.426 243.439C729.426 243.439 727.88 240.547 724.39 242.392C724.39 242.392 719.503 242.292 719.055 244.885C719.055 244.885 714.966 246.48 717.708 250.369C717.708 250.369 716.811 253.659 718.955 254.457C718.955 254.457 720.102 253.061 719.553 251.366C719.553 251.366 720.949 251.116 720.251 248.474C720.251 248.474 723.093 249.072 723.492 246.729Z" fill="#0D0D0D"/>
<path d="M719.503 254.008C719.503 254.008 718.506 252.064 717.11 252.911C715.714 253.759 717.409 256.551 720.101 256.8L719.503 254.008Z" fill="#FFBEA7"/>
<path d="M723.293 251.216C723.293 251.665 723.443 252.064 723.642 252.064C723.841 252.064 723.991 251.715 724.041 251.266C724.041 250.817 723.891 250.418 723.692 250.418C723.443 250.369 723.293 250.718 723.293 251.216Z" fill="#451109"/>
<path d="M728.08 251.515C728.08 251.964 728.23 252.363 728.429 252.363C728.629 252.363 728.778 252.014 728.828 251.565C728.828 251.116 728.678 250.718 728.479 250.718C728.23 250.718 728.08 251.067 728.08 251.515Z" fill="#451109"/>
<path d="M727.182 252.413C727.182 252.512 727.431 254.108 728.179 254.257C728.927 254.407 727.331 255.155 727.331 255.155" stroke="#451109" stroke-width="0.6007" stroke-miterlimit="10"/>
<path d="M724.39 249.122C724.39 249.122 723.243 248.374 722.595 249.222" stroke="#451109" stroke-width="0.6007" stroke-miterlimit="10"/>
<path d="M727.73 249.072C727.73 249.072 728.528 248.624 729.426 249.521" stroke="#451109" stroke-width="0.6007" stroke-miterlimit="10"/>
<path d="M715.664 277.39V279.184L722.246 278.885L721.897 277.29L715.664 277.39Z" fill="white"/>
<path d="M736.806 284.419C736.756 284.469 736.756 284.519 736.706 284.619C736.257 285.217 735.21 285.516 734.612 285.815C733.664 286.264 732.667 286.712 731.72 287.061C731.071 287.311 730.423 287.56 729.775 287.56C729.675 287.56 729.625 287.56 729.526 287.56L724.789 289.405L723.243 286.214C723.243 286.214 726.035 284.469 727.88 283.223C728.279 282.275 728.927 281.378 729.675 280.73C730.124 280.281 730.423 279.783 730.822 279.284C731.022 279.035 731.271 278.786 731.57 278.885C731.819 278.935 731.969 279.234 731.969 279.484C731.969 279.733 731.919 279.982 731.919 280.231C731.919 280.63 732.019 281.129 732.268 281.428C732.966 282.126 734.911 280.481 735.509 280.082C735.609 280.032 735.709 279.932 735.808 279.982C736.207 280.032 736.357 281.179 736.457 281.428C736.656 282.126 736.855 282.824 736.905 283.522C736.905 283.821 736.955 284.12 736.806 284.419Z" fill="#FFBEA7"/>
<path d="M726.832 282.973C726.832 282.973 729.276 285.566 728.727 289.205C728.727 289.205 716.86 300.821 703.846 300.372C703.846 300.372 700.505 300.971 702.3 294.54C704.145 288.009 711.924 289.155 726.832 282.973Z" fill="#FEDA4A"/>
<path d="M704.096 291.399C707.486 288.158 714.866 287.909 726.833 282.923C726.833 282.923 729.276 285.516 728.727 289.155C728.727 289.155 723.442 294.29 716.112 297.581" stroke="#451109" stroke-width="0.6007" stroke-miterlimit="10"/>
<path d="M726.933 257.348C726.933 257.348 724.889 257.946 723.991 256.251" stroke="#451109" stroke-width="0.9409" stroke-miterlimit="10"/>
<path d="M738.102 284.569L750.817 274.548L755.254 278.736C755.254 278.736 740.695 295.138 737.853 293.891C734.961 292.595 738.102 284.569 738.102 284.569Z" fill="#FEDA4A"/>
<path d="M762.086 197.822L760.44 390.16L802.923 383.081L804.768 197.822H762.086Z" fill="#F8553E"/>
<path d="M760.441 390.16L758.596 388.166L760.092 197.822H762.086L760.441 390.16Z" fill="#C92926"/>
<path d="M805.665 202.907H804.768V212.18H805.665V202.907Z" fill="#2D0D0D"/>
<path d="M803.87 362.242H802.973V371.515H803.87V362.242Z" fill="#2D0D0D"/>
<path d="M766.374 305.458C767.271 305.458 767.969 304.76 767.969 303.962V283.272C767.969 282.425 767.271 281.777 766.374 281.777C765.476 281.777 764.778 282.475 764.778 283.272V303.962C764.778 304.76 765.526 305.458 766.374 305.458Z" fill="#C92926"/>
<path d="M845.255 331.382H4.78662V445H845.255V331.382Z" fill="url(#paint6_linear)"/>
</g>
<defs>
<linearGradient id="paint0_linear" x1="117.574" y1="105.9" x2="117.574" y2="300.604" gradientUnits="userSpaceOnUse">
<stop stop-color="#F8553E" stop-opacity="0.32"/>
<stop offset="1" stop-color="#F83E3E" stop-opacity="0"/>
</linearGradient>
<linearGradient id="paint1_linear" x1="497.12" y1="110.487" x2="497.12" y2="305.19" gradientUnits="userSpaceOnUse">
<stop stop-color="#F8553E" stop-opacity="0.32"/>
<stop offset="1" stop-color="#F83E3E" stop-opacity="0"/>
</linearGradient>
<linearGradient id="paint2_linear" x1="425.02" y1="26.6955" x2="425.02" y2="179.881" gradientUnits="userSpaceOnUse">
<stop stop-color="#0D0D0D"/>
<stop offset="0.996" stop-color="#0D0D0D" stop-opacity="0"/>
</linearGradient>
<linearGradient id="paint3_linear" x1="26.3959" y1="222.511" x2="159.511" y2="222.511" gradientUnits="userSpaceOnUse">
<stop stop-color="#0D0D0D"/>
<stop offset="0.0319907" stop-color="#0D0D0D" stop-opacity="0.9679"/>
<stop offset="0.996" stop-color="#0D0D0D" stop-opacity="0"/>
</linearGradient>
<linearGradient id="paint4_linear" x1="823.799" y1="222.511" x2="690.683" y2="222.511" gradientUnits="userSpaceOnUse">
<stop stop-color="#0D0D0D"/>
<stop offset="0.0319907" stop-color="#0D0D0D" stop-opacity="0.9679"/>
<stop offset="0.996" stop-color="#0D0D0D" stop-opacity="0"/>
</linearGradient>
<linearGradient id="paint5_linear" x1="799.78" y1="314.369" x2="753.779" y2="290.214" gradientUnits="userSpaceOnUse">
<stop stop-color="#0D0D0D"/>
<stop offset="0.996" stop-color="#0D0D0D" stop-opacity="0"/>
</linearGradient>
<linearGradient id="paint6_linear" x1="425.02" y1="426.246" x2="425.02" y2="318.499" gradientUnits="userSpaceOnUse">
<stop stop-color="#0D0D0D"/>
<stop offset="0.996" stop-color="#0D0D0D" stop-opacity="0"/>
</linearGradient>
<clipPath id="clip0">
<rect width="847" height="445" fill="white"/>
</clipPath>
</defs>
</svg>
