<svg width="240" height="240" viewBox="0 0 240 240" fill="none" xmlns="http://www.w3.org/2000/svg">
<path d="M240 119.869C240 159.826 220.413 195.343 190.381 217.018C187.769 218.847 185.158 220.675 182.546 222.242C176.801 225.898 170.533 229.032 164.004 231.382C162.176 232.165 160.348 232.688 158.52 233.471C148.857 236.605 138.934 238.694 128.487 239.478C127.965 239.478 127.443 239.478 127.182 239.478C124.831 239.739 122.481 239.739 120.131 239.739C115.691 239.739 111.251 239.478 106.812 238.955C106.289 238.955 105.767 238.955 105.506 238.694C94.7987 237.388 84.6137 234.777 75.2122 230.86C73.3841 230.076 71.556 229.293 69.9891 228.509C63.1991 225.375 56.9314 221.719 50.9249 217.541C48.3134 215.713 45.7018 213.624 43.3515 211.795C16.7138 190.12 0 156.953 0 119.869C0 53.7976 53.7976 0 119.869 0C185.941 0 240 53.7976 240 119.869Z" fill="url(#paint0_linear)"/>
<path d="M201.089 108.117L200.828 110.467V110.989L200.305 113.862L182.547 222.502C176.801 226.158 170.534 229.292 164.005 231.642C162.177 232.426 160.349 232.948 158.521 233.732C148.858 236.865 138.934 238.955 128.488 239.738C127.966 239.738 127.443 239.738 127.182 239.738C124.832 239.999 122.481 239.999 120.131 239.999C115.691 239.999 111.252 239.738 106.812 239.216C106.29 239.216 105.768 239.216 105.506 238.955C94.7992 237.649 84.6142 235.037 75.2127 231.12C73.3846 230.337 71.5565 229.553 69.9896 228.77C63.1996 225.636 56.932 221.98 50.9254 217.801L33.9505 113.079L33.6893 112.034L33.167 109.161C33.4281 107.072 34.7339 105.244 36.562 103.416H197.955L201.089 108.117Z" fill="url(#paint1_linear)"/>
<path d="M106.812 239.215C106.29 239.215 105.768 239.215 105.507 238.954C94.7992 237.648 84.6142 235.037 75.2127 231.119L63.9831 126.397L63.722 124.047L63.4608 121.174L63.1997 119.346L61.3716 103.154H103.156L103.417 113.6V114.906L103.678 128.486V131.62L106.812 239.215Z" fill="url(#paint2_linear)"/>
<path d="M172.623 103.155L171.056 119.085L170.795 120.914L170.534 124.047L170.273 126.398L158.782 233.471C149.119 236.605 139.195 238.694 128.749 239.477C128.227 239.477 127.705 239.477 127.443 239.477L130.316 131.099V127.965L130.577 118.302V116.474L130.838 102.633H172.623V103.155Z" fill="url(#paint3_linear)"/>
<path opacity="0.15" d="M201.089 108.117L200.827 110.467V110.989L200.305 113.862L182.547 222.502C176.801 226.158 170.534 229.292 164.005 231.642C162.177 232.426 160.349 232.948 158.521 233.732C148.858 236.865 138.934 238.955 128.488 239.738C127.966 239.738 127.704 239.738 127.182 239.738C124.832 239.999 122.481 239.999 120.131 239.999C115.691 239.999 111.252 239.738 106.812 239.216C106.29 239.216 106.029 239.216 105.506 239.216C96.3661 238.171 87.748 236.082 79.3911 232.948C140.501 231.904 189.598 182.023 189.598 120.913C189.598 114.907 189.076 109.161 188.292 103.416H198.216L201.089 108.117Z" fill="url(#paint4_linear)"/>
<path d="M201.61 107.855V108.117C201.61 108.378 201.61 108.378 201.61 108.639C201.61 109.422 201.349 109.945 200.827 110.728V110.989C199.782 112.556 197.954 114.123 195.604 115.429C194.037 116.474 191.947 117.257 189.858 118.302C188.552 118.824 186.985 119.346 185.419 119.869C185.157 119.869 184.896 120.13 184.896 120.13C184.374 120.391 183.852 120.391 183.068 120.652C182.546 120.913 181.762 120.913 181.24 121.174C180.979 121.174 180.457 121.435 180.195 121.435C178.106 121.958 175.756 122.48 173.144 123.002C172.622 123.264 171.839 123.264 171.316 123.525C167.138 124.83 163.221 125.353 159.303 125.875C158.259 125.875 157.475 126.136 156.431 126.136C156.169 126.136 155.908 126.136 155.647 126.136C154.864 126.136 154.08 126.397 153.297 126.397C153.036 126.397 152.513 126.397 152.252 126.397C150.946 126.659 149.641 126.659 148.335 126.92C145.462 127.181 142.328 127.442 139.194 127.703C138.672 127.703 138.15 127.703 137.627 127.703C136.583 127.703 135.538 127.703 134.494 127.964C133.71 127.964 132.927 127.964 132.143 127.964C131.621 127.964 130.837 127.964 130.315 127.964C130.054 127.964 129.793 127.964 129.532 127.964C126.659 127.964 124.048 128.225 121.175 128.225C119.869 128.225 118.563 128.225 116.996 128.225C112.296 128.225 107.856 128.225 103.416 127.964C100.805 127.964 98.1933 127.703 95.8429 127.442C95.0595 127.442 94.5372 127.442 93.7537 127.442C92.9703 127.442 92.1868 127.442 91.4033 127.181C90.881 127.181 90.0976 127.181 89.5753 126.92C89.0529 126.92 88.5306 126.92 88.0083 126.92C87.486 126.92 86.9637 126.92 86.4414 126.92C85.9191 126.92 85.3968 126.92 84.8745 126.659C83.5687 126.659 82.0018 126.397 80.696 126.136C80.4349 126.136 80.1737 126.136 79.9126 126.136C78.3457 125.875 76.7787 125.875 75.2118 125.614C74.1672 125.353 73.1226 125.353 72.078 125.092C71.2945 125.353 70.5111 125.353 69.7276 125.353C67.1161 124.83 64.7657 124.569 62.4153 124.047C61.3707 123.786 60.3261 123.525 59.5426 123.525C57.9757 123.264 56.4088 122.741 54.8419 122.48C49.8799 121.174 45.4403 119.607 42.0453 118.04C38.3892 116.474 35.7777 114.645 33.9496 112.817C33.1661 112.034 32.6438 111.25 32.3827 110.467C32.1215 109.684 31.8604 108.9 31.8604 108.117C31.8604 107.594 31.8604 107.333 32.1215 106.811C32.3827 105.244 33.6884 103.677 35.5165 102.371C35.7777 102.11 35.7777 102.11 36.0388 101.849C36.5611 101.588 37.0834 101.065 37.6057 100.804C40.2173 98.9763 43.8734 97.4093 48.313 95.8424C53.2749 94.2755 59.0203 92.7086 65.5491 91.4028C67.1161 91.1417 68.9441 90.8805 70.7722 90.6193C71.0334 90.6193 71.0334 90.6193 71.2945 90.6193H71.5557C71.8168 90.6193 72.078 90.6193 72.3391 90.6193C76.2564 90.097 80.4349 89.5747 84.6133 89.0524C85.3968 89.0524 86.4414 88.7913 87.2249 88.7913C89.8364 88.5301 92.4479 88.269 95.0595 88.269C97.1487 88.269 99.2379 88.0078 101.327 88.0078C102.372 88.0078 103.416 88.0078 104.2 88.0078C105.506 88.0078 106.55 88.0078 107.856 88.0078C108.901 88.0078 109.945 88.0078 110.99 88.0078C112.557 88.0078 113.863 88.0078 115.429 88.0078H116.213C116.996 88.0078 117.78 88.0078 118.302 88.0078C121.175 88.0078 124.309 88.0078 127.181 88.269C127.704 88.269 128.226 88.269 128.748 88.269C129.009 88.269 129.009 88.269 129.271 88.269C129.532 88.269 129.793 88.269 130.315 88.269C131.621 88.269 132.666 88.269 133.971 88.5301C134.755 88.5301 135.538 88.5301 136.322 88.7913C136.583 88.7913 136.844 88.7913 137.105 88.7913C140.239 89.0524 143.112 89.3136 146.246 89.5747C148.857 89.8359 151.469 90.097 153.819 90.3582C154.341 90.3582 154.864 90.3582 155.386 90.6193C156.431 90.6193 157.736 90.8805 158.781 91.1417C159.826 91.4028 160.87 91.4028 161.915 91.664H162.176C163.221 91.9251 164.526 91.9251 165.571 92.1863C171.055 93.2309 176.017 94.2755 180.457 95.5813C180.718 95.5813 180.979 95.8424 181.24 95.8424C182.024 96.1036 183.068 96.3647 183.852 96.6259C184.635 96.887 185.419 97.1482 185.941 97.4093C189.336 98.7151 192.209 100.021 194.559 101.327C195.081 101.588 195.604 101.849 195.865 102.11C196.126 102.371 196.387 102.632 196.909 102.894C198.737 104.199 200.043 105.766 200.565 107.072C200.565 107.333 200.565 107.333 200.827 107.594C201.349 107.072 201.61 107.333 201.61 107.855Z" fill="url(#paint5_linear)"/>
<path d="M94.5371 126.137C94.2759 126.659 93.7536 127.442 93.4925 127.965C92.709 127.965 91.9256 127.965 91.1421 127.703C89.5752 127.703 88.0083 127.442 86.1802 127.181C82.2629 126.92 78.6067 126.398 74.9506 125.875C73.906 125.614 72.8614 125.614 71.8167 125.353C71.5556 125.092 71.5556 124.57 71.2944 124.308C71.2944 124.047 71.0333 123.786 71.0333 123.525C70.511 121.436 70.511 119.347 70.7721 117.518C71.2944 114.385 73.3837 111.512 75.9952 109.423C76.7787 108.9 77.8233 108.378 78.6067 108.117C78.8679 108.117 79.129 107.856 79.3902 107.856C84.3521 106.55 89.5752 108.117 92.709 112.034C92.9702 112.295 93.2313 112.818 93.4925 113.079C94.0148 113.862 94.5371 114.907 94.7982 115.69C94.7982 115.69 94.7982 115.69 94.7982 115.952C96.6263 119.347 96.3652 123.264 94.5371 126.137Z" fill="white"/>
<path d="M86.7024 118.563C90.8851 118.563 94.2758 115.172 94.2758 110.989C94.2758 106.807 90.8851 103.416 86.7024 103.416C82.5197 103.416 79.1289 106.807 79.1289 110.989C79.1289 115.172 82.5197 118.563 86.7024 118.563Z" fill="#E5CACB"/>
<path d="M95.5817 127.964C94.7982 127.964 94.2759 127.964 93.4925 127.964C92.709 127.964 91.9256 127.964 91.1421 127.703C89.5752 127.703 88.0082 127.442 86.1802 127.181C86.9636 125.353 88.5306 124.047 90.3586 124.047C90.8809 124.047 91.4032 124.047 91.6644 124.047C92.709 124.308 93.7536 125.091 94.5371 125.875C95.0594 126.658 95.3205 127.442 95.5817 127.964Z" fill="white"/>
<path d="M181.501 114.647C181.501 115.953 181.24 117.258 180.979 118.564C180.718 119.348 180.457 120.131 180.196 120.915C179.935 121.176 179.935 121.698 179.673 121.959C177.584 122.481 175.234 123.004 172.622 123.526C172.1 123.787 171.316 123.787 170.794 124.048C167.138 124.832 163.221 125.354 159.303 125.876C158.259 125.876 157.475 126.138 156.431 126.138C156.17 126.138 155.908 126.138 155.647 126.138C154.864 126.138 154.08 126.399 153.297 126.399C153.036 126.399 152.513 126.399 152.252 126.399C151.73 125.876 151.208 125.354 150.947 125.093C150.685 124.571 150.163 124.31 149.902 123.787C148.857 122.22 148.074 120.392 147.552 118.825C147.29 118.042 147.29 117.52 147.029 116.736C146.768 115.691 146.768 114.908 146.768 113.863C146.768 111.774 147.029 109.685 147.813 107.857C148.074 107.335 148.335 106.551 148.596 106.029C149.118 104.984 149.641 103.94 150.424 103.156C150.685 102.634 151.208 102.111 151.73 101.589C151.991 101.328 152.252 101.067 152.775 100.806C153.297 100.283 153.819 100.022 154.342 99.5C154.864 99.2388 155.386 98.7165 155.908 98.4553L156.17 98.1942C156.953 97.6719 157.737 97.4107 158.52 97.1496C159.042 96.8884 159.565 96.8884 160.087 96.6273C164.526 95.5827 169.227 96.105 173.145 98.4553C174.189 98.9777 174.973 99.5 175.756 100.283C176.017 100.545 176.278 100.806 176.54 101.067C177.062 101.589 177.584 102.111 178.106 102.634C178.629 103.156 178.89 103.678 179.412 104.462C179.673 104.723 179.673 104.984 179.935 105.506C180.196 106.029 180.457 106.551 180.718 107.073C180.979 109.424 181.501 112.035 181.501 114.647Z" fill="#E5CACB"/>
<path d="M162.437 111.252C168.207 111.252 172.883 106.575 172.883 100.806C172.883 95.0363 168.207 90.3594 162.437 90.3594C156.668 90.3594 151.991 95.0363 151.991 100.806C151.991 106.575 156.668 111.252 162.437 111.252Z" fill="#E5CACB"/>
<path d="M184.896 120.393C184.635 120.393 184.374 120.654 184.374 120.654C182.807 121.176 181.24 121.698 179.673 121.96C177.584 122.482 175.234 123.004 172.622 123.526C172.361 123.004 172.1 122.482 172.1 121.96C171.316 118.303 173.406 114.908 177.062 114.125H177.323C178.89 113.864 180.196 114.125 181.501 114.647C183.068 115.431 184.374 116.998 184.896 119.087C184.896 119.348 184.896 119.87 184.896 120.393Z" fill="#E5CACB"/>
<path d="M155.125 100.805C153.819 108.379 150.424 115.43 144.94 121.175C143.373 123.003 141.545 124.831 139.456 126.398C138.934 126.659 138.411 127.182 137.889 127.443C137.628 127.704 137.367 127.704 137.106 127.965C136.061 127.965 135.016 127.965 133.972 128.226C133.188 128.226 132.405 128.226 131.621 128.226C131.099 128.226 130.316 128.226 129.793 128.226C129.532 128.226 129.271 128.226 129.01 128.226C126.137 128.226 123.526 128.487 120.653 128.487C119.347 128.487 118.041 128.487 116.474 128.487C111.774 128.487 107.334 128.487 102.895 128.226C100.283 128.226 97.6714 127.965 95.321 127.704C94.5376 127.704 94.0153 127.704 93.2318 127.704C92.4484 127.704 91.6649 127.704 90.8814 127.443C90.3591 127.443 89.5757 127.443 89.0534 127.182C88.2699 126.659 87.4864 125.876 86.4418 125.354C84.0914 123.526 82.0022 121.175 79.913 118.564C73.3842 110.207 70.5115 100.022 71.0338 90.3591V90.0979C71.2949 83.8302 73.123 77.5626 76.2568 72.0783C78.8684 67.3776 82.5245 62.938 87.2253 59.543C87.4865 59.543 87.4864 59.2818 87.7476 59.2818C88.2699 58.7595 89.0534 58.2372 89.8368 57.9761C105.245 47.7911 125.354 48.8357 139.456 60.0653C140.762 61.1099 142.068 62.1545 143.373 63.4603C144.679 64.766 145.724 65.8107 146.768 67.1164C148.074 68.9445 149.38 70.5114 150.163 72.3395C153.036 77.5626 154.864 83.3079 155.386 89.3145C156.17 93.2318 155.909 97.1491 155.125 100.805Z" fill="url(#paint6_linear)"/>
<path d="M115.168 85.6582C128.87 85.6582 139.978 74.5506 139.978 60.8486C139.978 47.1467 128.87 36.0391 115.168 36.0391C101.467 36.0391 90.3589 47.1467 90.3589 60.8486C90.3589 74.5506 101.467 85.6582 115.168 85.6582Z" fill="url(#paint7_linear)"/>
<path d="M155.386 126.397C154.603 126.397 153.819 126.659 153.036 126.659C152.774 126.659 152.252 126.659 151.991 126.659C150.685 126.92 149.379 126.92 148.074 127.181C145.201 127.442 142.067 127.703 138.933 127.964C138.672 127.964 138.411 127.703 138.15 127.442C133.71 124.83 130.576 120.391 130.054 114.645C129.793 109.422 131.882 104.722 135.538 101.327C138.15 99.2374 141.284 97.6705 144.679 97.4093C147.29 97.1482 149.902 97.6705 152.252 98.7151C152.774 98.9762 153.297 99.2374 153.558 99.4985C154.08 99.7597 154.603 100.021 155.125 100.543C158.259 102.894 160.609 106.55 161.393 110.728C161.393 111.25 161.654 111.773 161.654 112.295C162.176 118.04 159.564 123.264 155.386 126.397Z" fill="url(#paint8_linear)"/>
<path d="M196.648 100.806C196.648 102.111 196.386 103.156 196.125 104.462C195.081 109.424 192.991 114.385 189.596 118.564C188.291 119.086 186.724 119.609 185.157 120.131C184.896 120.131 184.635 120.392 184.635 120.392C184.112 120.653 183.59 120.653 182.807 120.914C182.284 121.175 181.501 121.175 180.978 121.437C180.717 121.437 180.195 121.698 179.934 121.698C177.845 122.22 175.494 122.742 172.883 123.265C172.36 123.526 171.577 123.526 171.055 123.787C167.137 124.832 163.22 125.354 159.303 125.876C158.258 125.876 157.475 126.137 156.43 126.137C156.169 126.137 155.908 126.137 155.647 126.137C154.863 126.137 154.08 126.399 153.296 126.399C152.513 125.876 151.468 125.615 150.685 125.093C148.857 124.048 147.028 122.742 145.2 121.175C143.895 120.131 142.85 118.825 141.805 117.519C138.149 112.819 136.06 107.073 135.538 101.589C135.015 96.8882 135.799 92.1874 137.627 87.7478C138.933 84.3528 140.761 81.4802 143.111 78.6075C144.417 77.3017 145.723 75.9959 147.29 74.6902C148.334 73.9067 149.379 73.1232 150.685 72.3398C159.042 67.3779 169.227 66.8556 177.845 70.5117C182.545 72.3398 186.985 75.7348 190.38 79.9132C194.82 86.4421 196.909 93.7544 196.648 100.806Z" fill="url(#paint9_linear)"/>
<path d="M143.633 89.5763C153.585 89.5763 161.653 81.5086 161.653 71.5567C161.653 61.6048 153.585 53.5371 143.633 53.5371C133.681 53.5371 125.614 61.6048 125.614 71.5567C125.614 81.5086 133.681 89.5763 143.633 89.5763Z" fill="url(#paint10_linear)"/>
<path d="M200.565 111.251C199.52 112.818 197.692 114.385 195.342 115.952C193.775 116.997 191.685 118.041 189.596 118.825C192.991 114.646 195.342 109.946 196.386 104.723C198.214 106.29 199.781 108.64 200.565 111.251Z" fill="url(#paint11_linear)"/>
<path d="M196.125 104.722C195.08 109.684 192.991 114.646 189.335 118.824C188.29 119.347 186.985 119.869 185.679 120.13C185.418 120.13 185.157 120.391 184.634 120.391C184.373 120.391 184.112 120.652 184.112 120.652C183.067 120.914 181.762 121.436 180.456 121.697C178.889 119.869 177.844 117.519 177.583 114.907C177.061 108.639 181.762 103.155 188.29 102.633C188.813 102.633 189.335 102.633 189.596 102.633C192.208 102.633 194.297 103.416 196.125 104.722Z" fill="url(#paint12_linear)"/>
<path d="M92.1869 120.393C90.62 122.482 88.792 124.049 86.9639 125.616C86.1804 126.138 85.6581 126.66 84.8746 127.183C81.4797 126.921 78.3458 126.399 75.212 126.138C74.1674 125.877 73.1227 125.877 72.0781 125.616C71.2947 125.355 70.5112 125.355 69.7278 125.355C67.1162 124.832 64.7658 124.571 62.4155 124.049C61.3708 123.788 60.3262 123.526 59.5428 123.526C57.9758 123.265 56.4089 122.743 54.842 122.482C49.8801 121.176 45.4405 119.609 42.0455 118.042C39.9563 114.908 38.6505 111.252 37.867 107.596C37.3447 105.507 37.3447 103.156 37.3447 100.806C37.6059 94.5384 39.6951 88.2707 43.8736 83.0477C48.052 77.8246 53.2751 74.4296 59.2816 72.6015C65.027 70.7735 71.2947 70.7735 77.04 72.6015C80.435 73.6461 83.83 75.4742 86.9639 77.8246C89.0531 79.6527 91.1423 81.4807 92.7093 83.57C93.7539 85.1369 94.7985 86.4427 95.5819 88.0096C100.544 98.1946 99.4992 110.73 92.1869 120.393Z" fill="url(#paint13_linear)"/>
<path d="M77.3008 91.6651C87.2528 91.6651 95.3204 83.5975 95.3204 73.6456C95.3204 63.6936 87.2528 55.626 77.3008 55.626C67.3489 55.626 59.2812 63.6936 59.2812 73.6456C59.2812 83.5975 67.3489 91.6651 77.3008 91.6651Z" fill="url(#paint14_linear)"/>
<path d="M56.1478 117.52C56.1478 119.087 55.6254 120.915 54.842 122.221C49.8801 120.915 45.4405 119.348 42.0455 117.781C38.3893 116.214 35.7778 114.386 33.9497 112.558C34.7332 110.469 36.0389 108.641 37.867 107.335C39.9562 105.768 42.5678 104.985 45.4405 105.246C51.9693 105.507 56.6701 111.252 56.1478 117.52Z" fill="white"/>
<path opacity="0.47" d="M196.649 100.804C196.649 102.11 196.388 103.155 196.127 104.461C195.082 109.423 192.993 114.384 189.337 118.563C188.292 119.085 186.986 119.608 185.68 119.869C187.508 116.996 188.553 113.601 189.075 110.467C189.337 109.161 189.337 108.117 189.598 106.811C189.598 105.505 189.598 103.938 189.598 102.371C189.075 96.626 186.986 90.8806 183.33 85.9187C179.935 81.4791 175.757 78.3453 170.795 76.5172C167.661 75.2114 164.527 74.428 161.393 74.1668C159.304 73.9057 156.953 74.1668 154.603 74.428C154.342 73.1222 154.081 71.8164 153.558 70.7718C151.208 64.7653 145.985 60.3257 139.717 59.5422C138.412 59.2811 136.845 59.2811 135.539 59.2811C134.494 59.2811 133.189 59.5422 132.144 59.8034C131.883 59.2811 131.883 58.4976 131.622 57.9753C127.965 47.7903 117.78 41.0003 106.29 41.7838C102.372 42.0449 98.7163 43.3507 95.3213 45.1788C99.4997 39.9557 105.767 36.5607 112.819 35.7773C124.832 34.9938 135.539 42.5672 138.673 53.7968C139.717 53.5357 140.762 53.2745 142.068 53.2745C151.469 52.4911 159.826 59.2811 161.132 68.4214C166.616 67.638 172.1 68.4214 177.323 70.5107C182.024 72.5999 186.464 75.7337 189.859 79.9122C194.821 86.441 196.91 93.7533 196.649 100.804Z" fill="url(#paint15_linear)"/>
<defs>
<linearGradient id="paint0_linear" x1="119.996" y1="-5.4602" x2="119.996" y2="175.128" gradientUnits="userSpaceOnUse">
<stop stop-color="#DC383D"/>
<stop offset="1" stop-color="#A11E21"/>
</linearGradient>
<linearGradient id="paint1_linear" x1="116.995" y1="125.643" x2="116.995" y2="272.848" gradientUnits="userSpaceOnUse">
<stop stop-color="#FFDA64"/>
<stop offset="1" stop-color="#FEC30E"/>
</linearGradient>
<linearGradient id="paint2_linear" x1="84.0293" y1="196.369" x2="84.0293" y2="318.36" gradientUnits="userSpaceOnUse">
<stop stop-color="#DC383D"/>
<stop offset="1" stop-color="#A11E21"/>
</linearGradient>
<linearGradient id="paint3_linear" x1="149.79" y1="196.37" x2="149.79" y2="318.36" gradientUnits="userSpaceOnUse">
<stop stop-color="#DC383D"/>
<stop offset="1" stop-color="#A11E21"/>
</linearGradient>
<linearGradient id="paint4_linear" x1="132.061" y1="253.694" x2="147.587" y2="93.2639" gradientUnits="userSpaceOnUse">
<stop stop-color="#0B0B0B"/>
<stop offset="1" stop-color="#0B0B0B" stop-opacity="0"/>
</linearGradient>
<linearGradient id="paint5_linear" x1="31.8617" y1="107.956" x2="201.527" y2="107.956" gradientUnits="userSpaceOnUse">
<stop stop-color="#DC383D"/>
<stop offset="1" stop-color="#A11E21"/>
</linearGradient>
<linearGradient id="paint6_linear" x1="115.633" y1="76.6397" x2="108.445" y2="139.316" gradientUnits="userSpaceOnUse">
<stop stop-color="#F2F3F3"/>
<stop offset="1" stop-color="white"/>
</linearGradient>
<linearGradient id="paint7_linear" x1="113.295" y1="76.3716" x2="106.108" y2="139.048" gradientUnits="userSpaceOnUse">
<stop stop-color="#F2F3F3"/>
<stop offset="1" stop-color="white"/>
</linearGradient>
<linearGradient id="paint8_linear" x1="142.817" y1="72.2292" x2="150.005" y2="169.119" gradientUnits="userSpaceOnUse">
<stop stop-color="#F2F3F3"/>
<stop offset="1" stop-color="white"/>
</linearGradient>
<linearGradient id="paint9_linear" x1="163.913" y1="70.6655" x2="171.101" y2="167.556" gradientUnits="userSpaceOnUse">
<stop stop-color="#F2F3F3"/>
<stop offset="1" stop-color="white"/>
</linearGradient>
<linearGradient id="paint10_linear" x1="142.796" y1="79.7553" x2="135.608" y2="142.432" gradientUnits="userSpaceOnUse">
<stop stop-color="#F2F3F3"/>
<stop offset="1" stop-color="white"/>
</linearGradient>
<linearGradient id="paint11_linear" x1="194.19" y1="104.746" x2="195.189" y2="118.202" gradientUnits="userSpaceOnUse">
<stop stop-color="#F2F3F3"/>
<stop offset="1" stop-color="white"/>
</linearGradient>
<linearGradient id="paint12_linear" x1="183.946" y1="69.1394" x2="191.14" y2="166.121" gradientUnits="userSpaceOnUse">
<stop stop-color="#F2F3F3"/>
<stop offset="1" stop-color="white"/>
</linearGradient>
<linearGradient id="paint13_linear" x1="84.4249" y1="71.5499" x2="41.8736" y2="149.465" gradientUnits="userSpaceOnUse">
<stop stop-color="#F2F3F3"/>
<stop offset="1" stop-color="white"/>
</linearGradient>
<linearGradient id="paint14_linear" x1="79.7027" y1="68.9707" x2="37.1514" y2="146.885" gradientUnits="userSpaceOnUse">
<stop stop-color="#F2F3F3"/>
<stop offset="1" stop-color="white"/>
</linearGradient>
<linearGradient id="paint15_linear" x1="147.245" y1="108.098" x2="144.083" y2="6.60799" gradientUnits="userSpaceOnUse">
<stop stop-color="#CDCECE"/>
<stop offset="1" stop-color="white"/>
</linearGradient>
</defs>
</svg>
