<svg width="48" height="48" viewBox="0 0 48 48" fill="none" xmlns="http://www.w3.org/2000/svg">
<g clip-path="url(#clip0)">
<path d="M14.084 33.7923H8.828V26.2843H5.416V33.7923H0.02L0 14.4403H5.416V21.6403H8.828V14.4403H14.084V33.7923ZM38.17 33.8843C43.59 33.8803 48 29.3783 48 23.9563C48.008 22.6628 47.7592 21.3804 47.2681 20.1837C46.7771 18.9869 46.0535 17.8994 45.1392 16.9842C44.2249 16.069 43.1382 15.3443 41.9419 14.852C40.7457 14.3598 39.4636 14.1097 38.17 14.1163C32.756 14.1123 29.99 18.0983 29.306 19.7063C29.312 17.2923 26.932 14.4423 24.146 14.4383H15.18V33.7863L23.542 33.7883C26.914 33.7883 29.314 30.8683 29.318 28.3623C30.088 29.9383 32.758 33.8863 38.172 33.8823L38.17 33.8843ZM22.84 26.0123C23.614 26.0123 24.224 26.7763 24.224 27.6463C24.224 28.5163 23.614 29.2803 22.84 29.2803H20.18V26.0123H22.84ZM22.85 18.7463C23.624 18.7463 24.234 19.5103 24.234 20.3803C24.234 21.2523 23.624 22.0163 22.85 22.0163H20.19V18.7463H22.85ZM26.39 23.9603C27 23.8823 28.016 23.1863 28.374 22.7403C28.248 23.2923 28.238 24.8883 28.386 25.4403C27.978 24.8123 27.01 24.0383 26.39 23.9603ZM33.25 23.9603C33.25 23.3137 33.3774 22.6734 33.6248 22.076C33.8723 21.4786 34.235 20.9358 34.6922 20.4785C35.1494 20.0213 35.6923 19.6586 36.2897 19.4112C36.8871 19.1637 37.5274 19.0363 38.174 19.0363C38.8206 19.0363 39.4609 19.1637 40.0583 19.4112C40.6557 19.6586 41.1986 20.0213 41.6558 20.4785C42.113 20.9358 42.4757 21.4786 42.7232 22.076C42.9706 22.6734 43.098 23.3137 43.098 23.9603C43.098 25.2665 42.5791 26.5192 41.6555 27.4428C40.7319 28.3665 39.4792 28.8853 38.173 28.8853C36.8668 28.8853 35.6141 28.3665 34.6905 27.4428C33.7669 26.5192 33.248 25.2665 33.248 23.9603H33.25ZM38.174 27.8323C39.2009 27.8323 40.1858 27.4244 40.9119 26.6983C41.6381 25.9721 42.046 24.9873 42.046 23.9603C42.046 22.9334 41.6381 21.9486 40.9119 21.2224C40.1858 20.4963 39.2009 20.0883 38.174 20.0883C37.1471 20.0883 36.1622 20.4963 35.4361 21.2224C34.7099 21.9486 34.302 22.9334 34.302 23.9603C34.302 24.9873 34.7099 25.9721 35.4361 26.6983C36.1622 27.4244 37.1471 27.8323 38.174 27.8323Z" fill="white"/>
</g>
<defs>
<clipPath id="clip0">
<rect width="48" height="48" fill="white"/>
</clipPath>
</defs>
</svg>
