<svg width="24" height="24" viewBox="0 0 24 24" fill="none" xmlns="http://www.w3.org/2000/svg">
<path fill-rule="evenodd" clip-rule="evenodd" d="M12 23C18.0751 23 23 18.0751 23 12C23 5.92487 18.0751 1 12 1C5.92487 1 1 5.92487 1 12C1 18.0751 5.92487 23 12 23ZM8.29291 15.7071C7.90238 15.3166 7.90238 14.6834 8.29291 14.2929L10.5858 12L8.29291 9.70712C7.90238 9.3166 7.90238 8.68343 8.29291 8.29291C8.68343 7.90238 9.3166 7.90238 9.70712 8.29291L12 10.5858L14.2929 8.29291C14.6834 7.90238 15.3166 7.90238 15.7071 8.29291C16.0976 8.68343 16.0976 9.3166 15.7071 9.70712L13.4142 12L15.7071 14.2929C16.0976 14.6834 16.0976 15.3166 15.7071 15.7071C15.3166 16.0976 14.6834 16.0976 14.2929 15.7071L12 13.4142L9.70712 15.7071C9.3166 16.0976 8.68343 16.0976 8.29291 15.7071Z" fill="#BDBDBD"/>
</svg>
