<svg width="23" height="28" viewBox="0 0 23 28" fill="none" xmlns="http://www.w3.org/2000/svg">
<path d="M22.5639 9.61044L22.5291 9.92383V9.99347L22.4594 10.3765L20.0916 24.8618C19.3256 25.3493 18.4899 25.7671 17.6194 26.0805C17.3756 26.185 17.1319 26.2546 16.8881 26.3591C15.5998 26.7769 14.2766 27.0555 12.8838 27.16C12.8141 27.16 12.7445 27.16 12.7097 27.16C12.3963 27.1948 12.0829 27.1948 11.7695 27.1948C11.1776 27.1948 10.5856 27.1599 9.99369 27.0903C9.92404 27.0903 9.8544 27.0903 9.81958 27.0555C8.39194 26.8814 7.03395 26.5332 5.78041 26.0109C5.53667 25.9064 5.29292 25.802 5.084 25.6975C4.17867 25.2796 3.34298 24.7922 2.54211 24.235L0.278778 10.272L0.243957 10.1327L0.174316 9.74972C0.209137 9.47116 0.383239 9.22742 0.626982 8.98367H22.146L22.5639 9.61044Z" fill="url(#paint0_linear)"/>
<path d="M9.99382 27.0903C9.92418 27.0903 9.85454 27.0903 9.81972 27.0555C8.39208 26.8814 7.03408 26.5332 5.78054 26.0109L4.28326 12.0479L4.24844 11.7345L4.21362 11.3515L4.1788 11.1077L3.93506 8.94885H9.50633L9.54115 10.3417V10.5158L9.57597 12.3264V12.7443L9.99382 27.0903Z" fill="url(#paint1_linear)"/>
<path d="M18.7686 8.94885L18.5596 11.0729L18.5248 11.3166L18.49 11.7345L18.4552 12.0479L16.9231 26.3243C15.6347 26.7421 14.3116 27.0207 12.9187 27.1251C12.8491 27.1251 12.7794 27.1251 12.7446 27.1251L13.1277 12.6746V12.2568L13.1625 10.9684V10.7247L13.1973 8.87921H18.7686V8.94885Z" fill="url(#paint2_linear)"/>
<path opacity="0.15" d="M22.5637 9.61044L22.5289 9.92383V9.99347L22.4593 10.3765L20.0915 24.8618C19.3254 25.3493 18.4897 25.7671 17.6192 26.0805C17.3755 26.185 17.1317 26.2546 16.888 26.3591C15.5996 26.7769 14.2765 27.0555 12.8836 27.16C12.814 27.16 12.7792 27.16 12.7095 27.16C12.3962 27.1948 12.0828 27.1948 11.7694 27.1948C11.1774 27.1948 10.5855 27.16 9.99355 27.0903C9.92391 27.0903 9.88909 27.0903 9.81945 27.0903C8.60073 26.951 7.45166 26.6725 6.3374 26.2546C14.4854 26.1153 21.0316 19.4646 21.0316 11.3166C21.0316 10.5158 20.962 9.74972 20.8575 8.98367H22.1807L22.5637 9.61044Z" fill="url(#paint3_linear)"/>
<path d="M22.6333 9.57563V9.61045C22.6333 9.64527 22.6333 9.64527 22.6333 9.68009C22.6333 9.78455 22.5985 9.8542 22.5288 9.95866V9.99348C22.3896 10.2024 22.1458 10.4113 21.8324 10.5854C21.6235 10.7247 21.3449 10.8292 21.0664 10.9685C20.8923 11.0381 20.6833 11.1077 20.4744 11.1774C20.4396 11.1774 20.4048 11.2122 20.4048 11.2122C20.3351 11.247 20.2655 11.247 20.161 11.2818C20.0914 11.3167 19.9869 11.3167 19.9173 11.3515C19.8825 11.3515 19.8128 11.3863 19.778 11.3863C19.4995 11.4559 19.1861 11.5256 18.8379 11.5952C18.7682 11.63 18.6638 11.63 18.5941 11.6649C18.037 11.839 17.5147 11.9086 16.9924 11.9782C16.8531 11.9782 16.7486 12.0131 16.6094 12.0131C16.5745 12.0131 16.5397 12.0131 16.5049 12.0131C16.4004 12.0131 16.296 12.0479 16.1915 12.0479C16.1567 12.0479 16.087 12.0479 16.0522 12.0479C15.8781 12.0827 15.704 12.0827 15.5299 12.1175C15.1469 12.1523 14.7291 12.1872 14.3112 12.222C14.2416 12.222 14.1719 12.222 14.1023 12.222C13.963 12.222 13.8237 12.222 13.6844 12.2568C13.58 12.2568 13.4755 12.2568 13.3711 12.2568C13.3014 12.2568 13.197 12.2568 13.1273 12.2568C13.0925 12.2568 13.0577 12.2568 13.0228 12.2568C12.6398 12.2568 12.2916 12.2916 11.9086 12.2916C11.7345 12.2916 11.5604 12.2916 11.3515 12.2916C10.7247 12.2916 10.1328 12.2916 9.5408 12.2568C9.1926 12.2568 8.84439 12.222 8.53101 12.1872C8.42655 12.1872 8.35691 12.1872 8.25245 12.1872C8.14799 12.1872 8.04352 12.1872 7.93906 12.1523C7.86942 12.1523 7.76496 12.1523 7.69532 12.1175C7.62568 12.1175 7.55604 12.1175 7.4864 12.1175C7.41676 12.1175 7.34711 12.1175 7.27747 12.1175C7.20783 12.1175 7.13819 12.1175 7.06855 12.0827C6.89445 12.0827 6.68553 12.0479 6.51143 12.0131C6.4766 12.0131 6.44178 12.0131 6.40696 12.0131C6.19804 11.9782 5.98912 11.9782 5.78019 11.9434C5.64091 11.9086 5.50163 11.9086 5.36235 11.8738C5.25789 11.9086 5.15343 11.9086 5.04897 11.9086C4.70076 11.839 4.38738 11.8041 4.07399 11.7345C3.93471 11.6997 3.79543 11.6649 3.69097 11.6649C3.48204 11.63 3.27312 11.5604 3.0642 11.5256C2.40261 11.3515 1.81066 11.1426 1.358 10.9336C0.870512 10.7247 0.522307 10.481 0.278564 10.2372C0.174102 10.1328 0.104461 10.0283 0.0696408 9.92384C0.0348204 9.81937 0 9.71491 0 9.61045C0 9.54081 1.32311e-07 9.50599 0.0348206 9.43635C0.069641 9.22743 0.243743 9.0185 0.487487 8.8444C0.522307 8.80958 0.522307 8.80958 0.557127 8.77476C0.626768 8.73994 0.696409 8.6703 0.76605 8.63548C1.11425 8.39173 1.60174 8.18281 2.19369 7.97389C2.85528 7.76497 3.62133 7.55604 4.49184 7.38194C4.70076 7.34712 4.9445 7.3123 5.18825 7.27748C5.22307 7.27748 5.22307 7.27748 5.25789 7.27748H5.29271C5.32753 7.27748 5.36235 7.27748 5.39717 7.27748C5.91948 7.20784 6.4766 7.1382 7.03373 7.06856C7.13819 7.06856 7.27747 7.03374 7.38194 7.03374C7.73014 6.99892 8.07835 6.9641 8.42655 6.9641C8.70511 6.9641 8.98368 6.92928 9.26224 6.92928C9.40152 6.92928 9.5408 6.92928 9.64527 6.92928C9.81937 6.92928 9.95865 6.92928 10.1328 6.92928C10.272 6.92928 10.4113 6.92928 10.5506 6.92928C10.7595 6.92928 10.9336 6.92928 11.1425 6.92928H11.247C11.3515 6.92928 11.4559 6.92928 11.5256 6.92928C11.9086 6.92928 12.3264 6.92927 12.7095 6.9641C12.7791 6.9641 12.8487 6.9641 12.9184 6.9641C12.9532 6.9641 12.9532 6.9641 12.988 6.9641C13.0228 6.9641 13.0577 6.9641 13.1273 6.9641C13.3014 6.9641 13.4407 6.9641 13.6148 6.99892C13.7193 6.99892 13.8237 6.99892 13.9282 7.03374C13.963 7.03374 13.9978 7.03374 14.0326 7.03374C14.4505 7.06856 14.8335 7.10338 15.2514 7.1382C15.5996 7.17302 15.9478 7.20784 16.2612 7.24266C16.3308 7.24266 16.4004 7.24266 16.4701 7.27748C16.6094 7.27748 16.7835 7.3123 16.9227 7.34712C17.062 7.38194 17.2013 7.38194 17.3406 7.41676H17.3754C17.5147 7.45158 17.6888 7.45158 17.8281 7.4864C18.5593 7.62568 19.2209 7.76497 19.8128 7.93907C19.8477 7.93907 19.8825 7.97389 19.9173 7.97389C20.0218 8.00871 20.161 8.04353 20.2655 8.07835C20.37 8.11317 20.4744 8.14799 20.5441 8.18281C20.9967 8.35691 21.3798 8.53102 21.6931 8.70512C21.7628 8.73994 21.8324 8.77476 21.8672 8.80958C21.9021 8.8444 21.9369 8.87922 22.0065 8.91404C22.2503 9.08815 22.4244 9.29707 22.494 9.47117C22.494 9.50599 22.494 9.50599 22.5288 9.54081C22.5985 9.47117 22.6333 9.50599 22.6333 9.57563Z" fill="url(#paint4_linear)"/>
<path d="M8.35706 12.0131C8.32224 12.0827 8.2526 12.1872 8.21778 12.2568C8.11332 12.2568 8.00886 12.2568 7.9044 12.222C7.69547 12.222 7.48655 12.1872 7.24281 12.1523C6.7205 12.1175 6.23301 12.0479 5.74553 11.9782C5.60625 11.9434 5.46696 11.9434 5.32768 11.9086C5.29286 11.8738 5.29286 11.8041 5.25804 11.7693C5.25804 11.7345 5.22322 11.6997 5.22322 11.6649C5.15358 11.3863 5.15358 11.1077 5.1884 10.864C5.25804 10.4461 5.5366 10.0631 5.88481 9.78455C5.98927 9.71491 6.12855 9.64527 6.23301 9.61044C6.26783 9.61044 6.30265 9.57562 6.33747 9.57562C6.99906 9.40152 7.69547 9.61044 8.11332 10.1328C8.14814 10.1676 8.18296 10.2372 8.21778 10.272C8.28742 10.3765 8.35706 10.5158 8.39188 10.6202C8.39188 10.6202 8.39188 10.6202 8.39188 10.6551C8.63563 11.1077 8.60081 11.63 8.35706 12.0131Z" fill="white"/>
<path d="M7.31253 11.0033C7.87022 11.0033 8.32232 10.5512 8.32232 9.99347C8.32232 9.43577 7.87022 8.98367 7.31253 8.98367C6.75483 8.98367 6.30273 9.43577 6.30273 9.99347C6.30273 10.5512 6.75483 11.0033 7.31253 11.0033Z" fill="#E5CACB"/>
<path d="M8.49621 12.2568C8.39175 12.2568 8.32211 12.2568 8.21765 12.2568C8.11319 12.2568 8.00873 12.2568 7.90426 12.222C7.69534 12.222 7.48642 12.1872 7.24268 12.1523C7.34714 11.9086 7.55606 11.7345 7.7998 11.7345C7.86944 11.7345 7.93908 11.7345 7.9739 11.7345C8.11319 11.7693 8.25247 11.8738 8.35693 11.9782C8.42657 12.0827 8.46139 12.1872 8.49621 12.2568Z" fill="white"/>
<path d="M19.9519 10.481C19.9519 10.6551 19.9171 10.8292 19.8823 11.0033C19.8475 11.1077 19.8126 11.2122 19.7778 11.3167C19.743 11.3515 19.743 11.4211 19.7082 11.4559C19.4296 11.5256 19.1162 11.5952 18.768 11.6649C18.6984 11.6997 18.5939 11.6997 18.5243 11.7345C18.0368 11.839 17.5145 11.9086 16.9922 11.9782C16.8529 11.9782 16.7484 12.0131 16.6092 12.0131C16.5743 12.0131 16.5395 12.0131 16.5047 12.0131C16.4002 12.0131 16.2958 12.0479 16.1913 12.0479C16.1565 12.0479 16.0869 12.0479 16.052 12.0479C15.9824 11.9782 15.9127 11.9086 15.8779 11.8738C15.8431 11.8041 15.7735 11.7693 15.7386 11.6997C15.5994 11.4908 15.4949 11.247 15.4253 11.0381C15.3904 10.9336 15.3904 10.864 15.3556 10.7595C15.3208 10.6202 15.3208 10.5158 15.3208 10.3765C15.3208 10.0979 15.3556 9.81937 15.4601 9.57563C15.4949 9.50599 15.5297 9.40153 15.5645 9.33189C15.6342 9.1926 15.7038 9.05332 15.8083 8.94886C15.8431 8.87922 15.9127 8.80958 15.9824 8.73994C16.0172 8.70512 16.052 8.6703 16.1217 8.63548C16.1913 8.56584 16.261 8.53102 16.3306 8.46138C16.4002 8.42655 16.4699 8.35691 16.5395 8.32209L16.5743 8.28727C16.6788 8.21763 16.7833 8.18281 16.8877 8.14799C16.9574 8.11317 17.027 8.11317 17.0966 8.07835C17.6886 7.93907 18.3154 8.00871 18.8377 8.32209C18.9769 8.39174 19.0814 8.46138 19.1859 8.56584C19.2207 8.60066 19.2555 8.63548 19.2903 8.6703C19.36 8.73994 19.4296 8.80958 19.4993 8.87922C19.5689 8.94886 19.6037 9.0185 19.6734 9.12296C19.7082 9.15778 19.7082 9.19261 19.743 9.26225C19.7778 9.33189 19.8126 9.40153 19.8475 9.47117C19.8823 9.78455 19.9519 10.1328 19.9519 10.481Z" fill="#E5CACB"/>
<path d="M17.4099 10.0283C18.1791 10.0283 18.8027 9.40471 18.8027 8.63548C18.8027 7.86625 18.1791 7.24266 17.4099 7.24266C16.6407 7.24266 16.0171 7.86625 16.0171 8.63548C16.0171 9.40471 16.6407 10.0283 17.4099 10.0283Z" fill="#E5CACB"/>
<path d="M20.4048 11.247C20.37 11.247 20.3351 11.2818 20.3351 11.2818C20.1262 11.3515 19.9173 11.4211 19.7084 11.4559C19.4298 11.5256 19.1164 11.5952 18.7682 11.6649C18.7334 11.5952 18.6986 11.5256 18.6986 11.4559C18.5941 10.9684 18.8727 10.5158 19.3602 10.4113H19.395C19.6039 10.3765 19.778 10.4113 19.9521 10.481C20.161 10.5854 20.3351 10.7943 20.4048 11.0729C20.4048 11.1077 20.4048 11.1774 20.4048 11.247Z" fill="#E5CACB"/>
<path d="M16.4351 8.63547C16.2609 9.64527 15.8083 10.5854 15.0771 11.3515C14.8681 11.5952 14.6244 11.839 14.3458 12.0479C14.2762 12.0827 14.2065 12.1523 14.1369 12.1872C14.1021 12.222 14.0673 12.222 14.0324 12.2568C13.8932 12.2568 13.7539 12.2568 13.6146 12.2916C13.5101 12.2916 13.4057 12.2916 13.3012 12.2916C13.2316 12.2916 13.1271 12.2916 13.0575 12.2916C13.0226 12.2916 12.9878 12.2916 12.953 12.2916C12.57 12.2916 12.2218 12.3264 11.8387 12.3264C11.6646 12.3264 11.4905 12.3264 11.2816 12.3264C10.6549 12.3264 10.0629 12.3264 9.47096 12.2916C9.12275 12.2916 8.77455 12.2568 8.46117 12.222C8.3567 12.222 8.28706 12.222 8.1826 12.222C8.07814 12.222 7.97368 12.222 7.86922 12.1872C7.79958 12.1872 7.69512 12.1872 7.62547 12.1523C7.52101 12.0827 7.41655 11.9782 7.27727 11.9086C6.96389 11.6649 6.68532 11.3515 6.40676 11.0033C5.53625 9.88901 5.15322 8.53101 5.22286 7.24266V7.20784C5.25768 6.37214 5.50143 5.53645 5.91927 4.80522C6.26748 4.17846 6.75496 3.58651 7.38173 3.13384C7.41655 3.13384 7.41655 3.09902 7.45137 3.09902C7.52101 3.02938 7.62548 2.95974 7.72994 2.92492C9.78434 1.56692 12.4655 1.7062 14.3458 3.20348C14.5199 3.34277 14.694 3.48205 14.8681 3.65615C15.0422 3.83025 15.1815 3.96953 15.3208 4.14364C15.4949 4.38738 15.669 4.5963 15.7735 4.84005C16.1565 5.53645 16.4002 6.3025 16.4699 7.10337C16.5743 7.62568 16.5395 8.14799 16.4351 8.63547Z" fill="url(#paint5_linear)"/>
<path d="M11.1077 6.61589C12.9347 6.61589 14.4157 5.13487 14.4157 3.30794C14.4157 1.48102 12.9347 0 11.1077 0C9.28082 0 7.7998 1.48102 7.7998 3.30794C7.7998 5.13487 9.28082 6.61589 11.1077 6.61589Z" fill="url(#paint6_linear)"/>
<path d="M16.4699 12.0479C16.3654 12.0479 16.2609 12.0827 16.1565 12.0827C16.1217 12.0827 16.052 12.0827 16.0172 12.0827C15.8431 12.1175 15.669 12.1175 15.4949 12.1523C15.1119 12.1872 14.694 12.222 14.2762 12.2568C14.2414 12.2568 14.2065 12.222 14.1717 12.1872C13.5798 11.839 13.1619 11.247 13.0923 10.481C13.0575 9.78455 13.336 9.15778 13.8235 8.70512C14.1717 8.42655 14.5896 8.21763 15.0422 8.18281C15.3904 8.14799 15.7386 8.21763 16.052 8.35691C16.1217 8.39173 16.1913 8.42655 16.2261 8.46137C16.2958 8.49619 16.3654 8.53101 16.435 8.60065C16.8529 8.91404 17.1663 9.40153 17.2707 9.95865C17.2707 10.0283 17.3056 10.0979 17.3056 10.1676C17.3752 10.9336 17.027 11.63 16.4699 12.0479Z" fill="url(#paint7_linear)"/>
<path d="M21.9714 8.63548C21.9714 8.80958 21.9366 8.94886 21.9018 9.12297C21.7625 9.78455 21.4839 10.4461 21.0313 11.0033C20.8572 11.0729 20.6482 11.1426 20.4393 11.2122C20.4045 11.2122 20.3697 11.247 20.3697 11.247C20.3 11.2818 20.2304 11.2818 20.1259 11.3167C20.0563 11.3515 19.9518 11.3515 19.8822 11.3863C19.8474 11.3863 19.7777 11.4211 19.7429 11.4211C19.4643 11.4908 19.151 11.5604 18.8027 11.63C18.7331 11.6649 18.6286 11.6649 18.559 11.6997C18.0367 11.839 17.5144 11.9086 16.9921 11.9782C16.8528 11.9782 16.7483 12.0131 16.6091 12.0131C16.5742 12.0131 16.5394 12.0131 16.5046 12.0131C16.4001 12.0131 16.2957 12.0479 16.1912 12.0479C16.0868 11.9782 15.9475 11.9434 15.843 11.8738C15.5993 11.7345 15.3555 11.5604 15.1118 11.3515C14.9377 11.2122 14.7984 11.0381 14.6591 10.864C14.1716 10.2372 13.8931 9.47117 13.8234 8.73994C13.7538 8.11317 13.8582 7.4864 14.102 6.89446C14.2761 6.44179 14.5198 6.05877 14.8332 5.67574C15.0073 5.50164 15.1814 5.32754 15.3903 5.15343C15.5296 5.04897 15.6689 4.94451 15.843 4.84005C16.9573 4.17846 18.3153 4.10882 19.4643 4.59631C20.0911 4.84005 20.6831 5.29272 21.1357 5.84984C21.7277 6.72035 22.0062 7.69533 21.9714 8.63548Z" fill="url(#paint8_linear)"/>
<path d="M14.9031 7.13819C16.23 7.13819 17.3057 6.0625 17.3057 4.73557C17.3057 3.40865 16.23 2.33296 14.9031 2.33296C13.5762 2.33296 12.5005 3.40865 12.5005 4.73557C12.5005 6.0625 13.5762 7.13819 14.9031 7.13819Z" fill="url(#paint9_linear)"/>
<path d="M22.4942 10.0283C22.3549 10.2372 22.1112 10.4461 21.7978 10.655C21.5889 10.7943 21.3103 10.9336 21.0317 11.0381C21.4844 10.4809 21.7978 9.85417 21.9371 9.15776C22.1808 9.36668 22.3897 9.68007 22.4942 10.0283Z" fill="url(#paint10_linear)"/>
<path d="M21.9018 9.15777C21.7626 9.81936 21.484 10.481 20.9965 11.0381C20.8572 11.1077 20.6831 11.1774 20.509 11.2122C20.4742 11.2122 20.4394 11.247 20.3697 11.247C20.3349 11.247 20.3001 11.2818 20.3001 11.2818C20.1608 11.3166 19.9867 11.3863 19.8126 11.4211C19.6037 11.1774 19.4644 10.864 19.4296 10.5158C19.36 9.68008 19.9867 8.94885 20.8572 8.87921C20.9269 8.87921 20.9965 8.87921 21.0313 8.87921C21.3795 8.87921 21.6581 8.98367 21.9018 9.15777Z" fill="url(#paint11_linear)"/>
<path d="M8.04374 11.247C7.83482 11.5256 7.59107 11.7345 7.34733 11.9434C7.24287 12.0131 7.17323 12.0827 7.06877 12.1523C6.6161 12.1175 6.19826 12.0479 5.78041 12.0131C5.64113 11.9782 5.50185 11.9782 5.36257 11.9434C5.2581 11.9086 5.15364 11.9086 5.04918 11.9086C4.70098 11.839 4.38759 11.8041 4.07421 11.7345C3.93493 11.6997 3.79564 11.6649 3.69118 11.6649C3.48226 11.63 3.27334 11.5604 3.06442 11.5256C2.40283 11.3515 1.81088 11.1426 1.35821 10.9336C1.07965 10.5158 0.905548 10.0283 0.801086 9.54081C0.731445 9.26225 0.731445 8.94886 0.731445 8.63548C0.766266 7.79979 1.04483 6.9641 1.60196 6.26769C2.15908 5.57128 2.85549 5.11861 3.65636 4.87487C4.42241 4.63113 5.2581 4.63113 6.02415 4.87487C6.47682 5.01415 6.92949 5.25789 7.34733 5.57128C7.6259 5.81502 7.90446 6.05877 8.11338 6.33733C8.25266 6.54625 8.39195 6.72035 8.49641 6.92928C9.158 8.28727 9.01871 9.95866 8.04374 11.247Z" fill="url(#paint12_linear)"/>
<path d="M6.05886 7.41676C7.38579 7.41676 8.46147 6.34108 8.46147 5.01415C8.46147 3.68723 7.38579 2.61154 6.05886 2.61154C4.73194 2.61154 3.65625 3.68723 3.65625 5.01415C3.65625 6.34108 4.73194 7.41676 6.05886 7.41676Z" fill="url(#paint13_linear)"/>
<path d="M3.23855 10.864C3.23855 11.0729 3.16891 11.3167 3.06445 11.4908C2.40286 11.3167 1.81091 11.1077 1.35824 10.8988C0.870757 10.6899 0.522552 10.4461 0.278809 10.2024C0.38327 9.92383 0.557372 9.68009 0.801116 9.50599C1.07968 9.29706 1.42788 9.1926 1.81091 9.22742C2.68142 9.26224 3.30819 10.0283 3.23855 10.864Z" fill="white"/>
<defs>
<linearGradient id="paint0_linear" x1="11.3514" y1="11.9472" x2="11.3514" y2="31.5746" gradientUnits="userSpaceOnUse">
<stop stop-color="#FFDA64"/>
<stop offset="1" stop-color="#FEC30E"/>
</linearGradient>
<linearGradient id="paint1_linear" x1="6.95608" y1="21.3775" x2="6.95608" y2="37.6429" gradientUnits="userSpaceOnUse">
<stop stop-color="#DC383D"/>
<stop offset="1" stop-color="#A11E21"/>
</linearGradient>
<linearGradient id="paint2_linear" x1="15.7241" y1="21.3775" x2="15.7241" y2="37.6429" gradientUnits="userSpaceOnUse">
<stop stop-color="#DC383D"/>
<stop offset="1" stop-color="#A11E21"/>
</linearGradient>
<linearGradient id="paint3_linear" x1="13.3601" y1="29.0207" x2="15.4301" y2="7.63006" gradientUnits="userSpaceOnUse">
<stop stop-color="#0B0B0B"/>
<stop offset="1" stop-color="#0B0B0B" stop-opacity="0"/>
</linearGradient>
<linearGradient id="paint4_linear" x1="0.000174102" y1="9.58907" x2="22.6222" y2="9.58907" gradientUnits="userSpaceOnUse">
<stop stop-color="#DC383D"/>
<stop offset="1" stop-color="#A11E21"/>
</linearGradient>
<linearGradient id="paint5_linear" x1="11.1694" y1="5.4134" x2="10.2111" y2="13.7703" gradientUnits="userSpaceOnUse">
<stop stop-color="#F2F3F3"/>
<stop offset="1" stop-color="white"/>
</linearGradient>
<linearGradient id="paint6_linear" x1="10.858" y1="5.37767" x2="9.89965" y2="13.7346" gradientUnits="userSpaceOnUse">
<stop stop-color="#F2F3F3"/>
<stop offset="1" stop-color="white"/>
</linearGradient>
<linearGradient id="paint7_linear" x1="14.7941" y1="4.82545" x2="15.7524" y2="17.7442" gradientUnits="userSpaceOnUse">
<stop stop-color="#F2F3F3"/>
<stop offset="1" stop-color="white"/>
</linearGradient>
<linearGradient id="paint8_linear" x1="17.6068" y1="4.61682" x2="18.5651" y2="17.5355" gradientUnits="userSpaceOnUse">
<stop stop-color="#F2F3F3"/>
<stop offset="1" stop-color="white"/>
</linearGradient>
<linearGradient id="paint9_linear" x1="14.7914" y1="5.82873" x2="13.8331" y2="14.1856" gradientUnits="userSpaceOnUse">
<stop stop-color="#F2F3F3"/>
<stop offset="1" stop-color="white"/>
</linearGradient>
<linearGradient id="paint10_linear" x1="21.6443" y1="9.16093" x2="21.7774" y2="10.9551" gradientUnits="userSpaceOnUse">
<stop stop-color="#F2F3F3"/>
<stop offset="1" stop-color="white"/>
</linearGradient>
<linearGradient id="paint11_linear" x1="20.278" y1="4.41342" x2="21.2372" y2="17.3443" gradientUnits="userSpaceOnUse">
<stop stop-color="#F2F3F3"/>
<stop offset="1" stop-color="white"/>
</linearGradient>
<linearGradient id="paint12_linear" x1="7.00881" y1="4.73465" x2="1.3353" y2="15.1233" gradientUnits="userSpaceOnUse">
<stop stop-color="#F2F3F3"/>
<stop offset="1" stop-color="white"/>
</linearGradient>
<linearGradient id="paint13_linear" x1="6.3791" y1="4.39083" x2="0.705602" y2="14.7795" gradientUnits="userSpaceOnUse">
<stop stop-color="#F2F3F3"/>
<stop offset="1" stop-color="white"/>
</linearGradient>
</defs>
</svg>
