<svg width="817" height="433" viewBox="0 0 817 433" fill="none" xmlns="http://www.w3.org/2000/svg">
<path d="M815.259 12.8551H2.95068V423.298H815.259V12.8551Z" fill="#470A07"/>
<path opacity="0.3" d="M0 292.903H815.307V292.03H0V292.903ZM0 274.906V275.779H815.307V274.906H0Z" fill="#F8553E"/>
<path opacity="0.3" d="M0 257.345V258.219H815.307V257.345H0ZM0 265.932V266.805H815.307V265.932H0Z" fill="#F8553E"/>
<g opacity="0.8">
<path opacity="0.8" d="M393.627 193.506H223.562V274.663H393.627V193.506Z" fill="#C92926"/>
<path opacity="0.8" d="M258.774 203.014H232.074V231.101H258.774V203.014Z" fill="#F8553E"/>
<path opacity="0.8" d="M301.387 209.757H263.176V214.172H301.387V209.757Z" fill="#F8553E"/>
<path opacity="0.8" d="M301.387 218.877H263.176V223.291H301.387V218.877Z" fill="#F8553E"/>
<path opacity="0.8" d="M382.26 209.757H344.048V214.172H382.26V209.757Z" fill="#F8553E"/>
<path opacity="0.8" d="M382.26 218.877H344.048V223.291H382.26V218.877Z" fill="#F8553E"/>
<path opacity="0.8" d="M301.387 242.598H263.176V247.013H301.387V242.598Z" fill="#F8553E"/>
<path opacity="0.8" d="M301.387 251.718H263.176V256.133H301.387V251.718Z" fill="#F8553E"/>
<path opacity="0.8" d="M382.26 242.598H344.048V247.013H382.26V242.598Z" fill="#F8553E"/>
<path opacity="0.8" d="M382.26 251.718H344.048V256.133H382.26V251.718Z" fill="#F8553E"/>
<path opacity="0.8" d="M258.774 236.389H232.074V264.476H258.774V236.389Z" fill="#F8553E"/>
<path opacity="0.8" d="M338.97 203.014H312.27V231.101H338.97V203.014Z" fill="#F8553E"/>
<path opacity="0.8" d="M338.97 236.389H312.27V264.476H338.97V236.389Z" fill="#F8553E"/>
</g>
<path d="M783.771 193.506H687.033V372.605H783.771V193.506Z" fill="#C92926"/>
<path d="M780.868 193.506H684.13V372.605H780.868V193.506Z" fill="#F8553E"/>
<path opacity="0.28" d="M684.13 372.605H780.868V193.506L684.13 372.605Z" fill="url(#paint0_linear)"/>
<path d="M777.241 372.169H688.436V198.163L777.241 198.406V372.169ZM689.306 372.023H776.419V199.57L689.306 199.327V372.023Z" fill="#7D3122"/>
<path d="M695.4 306.146C694.191 306.146 693.224 305.467 693.224 304.691V284.559C693.224 283.735 694.191 283.104 695.4 283.104C696.609 283.104 697.577 283.783 697.577 284.559V304.643C697.577 305.467 696.609 306.146 695.4 306.146Z" fill="#C92926"/>
<path d="M778.402 159.889H759.296V183.659H778.402V159.889Z" fill="#7D3122"/>
<path d="M776.854 159.889H687.323V183.659H776.854V159.889Z" fill="#C92926"/>
<path opacity="0.67" d="M766.261 167C766.358 167 766.455 167.048 766.551 167.097C766.648 167.194 766.648 167.242 766.648 167.388V168.407C766.648 168.504 766.6 168.601 766.551 168.698C766.503 168.795 766.406 168.892 766.358 168.94L764.23 171.172C764.665 171.22 765.052 171.317 765.39 171.511C765.729 171.657 766.068 171.851 766.309 172.093C766.551 172.336 766.745 172.627 766.89 172.967C767.035 173.306 767.083 173.694 767.083 174.082C767.083 174.567 766.987 175.053 766.793 175.441C766.6 175.829 766.309 176.168 765.971 176.459C765.632 176.75 765.197 176.944 764.713 177.09C764.23 177.236 763.698 177.284 763.166 177.284C762.488 177.284 761.908 177.187 761.424 177.041C760.941 176.896 760.505 176.653 760.167 176.411C759.828 176.168 759.586 175.877 759.393 175.538C759.199 175.198 759.103 174.907 759.103 174.616C759.103 174.519 759.151 174.422 759.199 174.325C759.296 174.276 759.393 174.228 759.489 174.228H760.65C760.747 174.228 760.844 174.276 760.892 174.325C760.941 174.373 761.037 174.47 761.086 174.616C761.134 174.713 761.231 174.859 761.327 174.956C761.424 175.053 761.569 175.15 761.714 175.247C761.86 175.344 762.053 175.392 762.295 175.441C762.537 175.489 762.827 175.489 763.166 175.489C763.746 175.489 764.23 175.392 764.568 175.15C764.907 174.907 765.1 174.567 765.1 174.131C765.1 173.694 764.907 173.403 764.568 173.209C764.23 173.015 763.746 172.918 763.166 172.918H761.956C761.86 172.918 761.763 172.87 761.666 172.821C761.569 172.724 761.569 172.676 761.569 172.53V171.511C761.569 171.414 761.618 171.317 761.666 171.22C761.714 171.123 761.811 171.026 761.86 170.978L763.891 168.843H759.876C759.78 168.843 759.683 168.795 759.586 168.746C759.489 168.649 759.489 168.601 759.489 168.455V167.437C759.489 167.339 759.538 167.242 759.586 167.145C759.683 167.048 759.731 167.048 759.876 167.048H766.261V167Z" fill="white"/>
<g opacity="0.67">
<path d="M698.615 178C701.502 178 703.231 176.585 703.231 174.359V174.351C703.231 172.526 702.152 171.538 699.757 171.056L698.544 170.806C697.228 170.541 696.641 170.115 696.641 169.384V169.376C696.641 168.548 697.378 167.977 698.607 167.969C699.789 167.969 700.614 168.524 700.733 169.432L700.74 169.528H703.001L702.993 169.376C702.882 167.342 701.256 166 698.607 166C696.07 166 694.246 167.398 694.246 169.52V169.528C694.246 171.273 695.388 172.366 697.648 172.824L698.853 173.065C700.273 173.362 700.836 173.756 700.836 174.544V174.552C700.836 175.436 700.003 176.023 698.679 176.023C697.37 176.023 696.427 175.46 696.276 174.56L696.26 174.472H694L694.008 174.6C694.143 176.738 695.895 178 698.615 178Z" fill="white"/>
<path d="M707.116 177.799H709.511V168.202H712.826V166.201H703.809V168.202H707.116V177.799Z" fill="white"/>
<path d="M718.948 178C721.898 178 723.737 176.272 723.737 173.7V166.201H721.343V173.483C721.343 174.986 720.486 175.942 718.948 175.942C717.409 175.942 716.545 174.986 716.545 173.483V166.201H714.15V173.7C714.15 176.28 716.014 178 718.948 178Z" fill="white"/>
<path d="M725.649 177.799H730.018C733.452 177.799 735.474 175.637 735.474 171.956V171.94C735.474 168.267 733.444 166.201 730.018 166.201H725.649V177.799ZM728.043 175.79V168.202H729.733C731.834 168.202 733.031 169.528 733.031 171.948V171.964C733.031 174.472 731.874 175.79 729.733 175.79H728.043Z" fill="white"/>
<path d="M737.02 177.799H739.415V166.201H737.02V177.799Z" fill="white"/>
<path d="M746.481 178C749.883 178 752 175.693 752 172.004V171.988C752 168.307 749.875 166 746.481 166C743.095 166 740.961 168.299 740.961 171.988V172.004C740.961 175.693 743.079 178 746.481 178ZM746.481 175.942C744.601 175.942 743.404 174.431 743.404 172.004V171.988C743.404 169.561 744.609 168.058 746.481 168.058C748.36 168.058 749.558 169.569 749.558 171.988V172.004C749.558 174.407 748.384 175.942 746.481 175.942Z" fill="white"/>
</g>
<path d="M96.5926 124.622L29.6016 340.685H198.506L107.717 124.622H96.5926Z" fill="url(#paint1_linear)"/>
<path d="M465.019 129.085L397.496 345.148H566.981L476.192 129.085H465.019Z" fill="url(#paint2_linear)"/>
<path d="M472.661 48.4129H468.646V125.398H472.661V48.4129Z" fill="#F8553E"/>
<path d="M470.678 118.801C453.314 118.801 439.238 126.611 439.238 136.264H502.118C502.07 126.66 487.994 118.801 470.678 118.801Z" fill="#F8553E"/>
<path opacity="0.3" d="M470.678 118.801C467.825 118.801 465.019 118.995 462.407 119.432C475.757 121.469 485.576 128.212 485.576 136.313H502.166C502.07 126.66 487.994 118.801 470.678 118.801Z" fill="#84666E"/>
<path d="M104.477 48.4129H100.462V125.398H104.477V48.4129Z" fill="#F8553E"/>
<path d="M102.494 118.801C85.1296 118.801 71.0542 126.611 71.0542 136.264H133.934C133.934 126.66 119.858 118.801 102.494 118.801Z" fill="#F8553E"/>
<path opacity="0.3" d="M102.494 118.801C99.6405 118.801 96.8351 118.995 94.2231 119.432C107.573 121.469 117.392 128.212 117.392 136.313H133.982C133.934 126.66 119.859 118.801 102.494 118.801Z" fill="#84666E"/>
<path d="M452.105 236.341C452.685 235.855 453.459 235.661 454.185 235.613C454.862 235.516 455.587 235.467 456.313 235.467C456.7 235.467 457.087 235.467 457.474 235.613C458.344 235.904 458.876 236.729 459.167 237.602C459.408 238.281 459.457 239.106 459.118 239.736C458.828 240.27 458.344 240.658 457.861 240.998C457.667 241.143 457.474 241.289 457.28 241.337C456.458 241.677 455.587 241.143 454.813 240.658C454.185 240.318 453.556 239.979 452.927 239.688C452.492 239.494 451.96 239.397 451.621 239.057C450.847 238.426 451.476 236.923 452.105 236.341Z" fill="#0D0D0D"/>
<path d="M442.915 242.21C443.205 241.143 443.64 240.076 444.414 239.3C445.188 238.524 446.3 237.99 447.364 238.135C448.622 238.281 449.686 239.203 450.799 239.882C452.105 240.658 453.604 240.998 455.055 241.58C456.458 242.162 457.861 242.986 458.538 244.393C458.925 245.169 459.021 246.091 459.07 246.964C459.166 249.341 458.828 251.767 458.054 254.047C457.957 254.338 457.861 254.677 457.619 254.92C457.425 255.211 457.135 255.405 456.796 255.551C455.684 256.23 454.426 256.666 453.169 256.618C451.863 256.569 450.557 255.987 449.928 254.871C449.493 254.192 449.348 253.368 449.009 252.64C448.187 251.039 446.542 250.797 445.043 250.166C443.543 249.487 442.963 247.498 442.721 245.994C442.528 244.684 442.576 243.423 442.915 242.21Z" fill="#0D0D0D"/>
<path d="M437.304 280.436C438.223 278.787 437.787 278.35 438.464 273.742C439.238 268.6 440.786 263.749 441.753 262.342C441.995 262.002 442.286 261.663 442.721 261.42C442.721 261.42 443.882 260.741 444.656 260.935C447.074 261.469 447.122 273.305 444.849 277.089C444.752 277.234 444.365 277.574 444.172 278.253C443.591 280.291 442.963 282.474 441.512 284.705C440.834 285.772 439.674 286.742 438.658 286.839C437.062 286.985 435.369 285.53 435.175 284.123C435.127 282.813 436.288 282.279 437.304 280.436Z" fill="#FEDA4A"/>
<path d="M465.019 303.575C465.019 303.575 458.683 286.742 462.504 277.768C462.794 277.04 463.52 273.742 463.52 273.645C463.616 272.092 461.391 273.499 460.617 272.286C458.973 269.861 459.408 266.999 459.747 264.476C460.085 262.245 460.714 261.517 461.198 261.226C461.682 260.887 463.084 261.178 463.036 261.032C462.988 260.887 459.989 260.159 458.731 259.625C458.489 259.528 458.296 259.771 457.909 259.965C456.941 260.547 448.09 259.722 448.09 259.722C448.09 259.722 447.703 259.819 447.316 260.013C447.171 260.11 446.881 260.207 446.252 260.353C444.801 260.79 444.366 260.79 443.64 261.081C443.156 261.275 443.011 261.663 442.721 262.342C441.705 264.767 441.463 267.193 441.367 268.212C441.173 270.249 441.076 271.268 441.173 272.044C441.415 275.197 442.624 277.428 442.963 277.768C443.011 277.817 443.108 277.914 443.205 278.156C443.35 278.447 443.301 278.738 443.301 278.835C443.205 279.66 443.301 280.485 443.108 281.309C442.914 282.085 441.173 302.363 441.173 302.363C441.173 302.363 465.213 304.691 465.019 303.575Z" fill="#FEDA4A"/>
<path d="M462.746 260.887C463.906 261.323 464.438 262.439 464.729 263.021C467.195 268.066 467.534 269.133 467.534 269.133C469.614 275.294 469.034 274.712 470.243 277.768C470.485 278.447 470.823 279.708 471.5 282.183C471.694 282.813 471.887 283.589 471.742 284.608C471.645 285.336 471.549 286.306 470.775 286.936C469.856 287.713 468.453 287.713 467.486 287.179C466.809 286.839 466.325 286.209 465.648 284.511C464.293 281.115 465.067 280.727 460.327 273.111C459.408 271.656 459.215 269.133 459.118 267.387C459.118 266.999 459.069 264.864 459.795 262.487C459.988 261.857 460.279 261.178 460.859 260.887C461.681 260.498 462.552 260.79 462.746 260.887Z" fill="#FEDA4A"/>
<path d="M461.439 288.44C459.166 289.604 457.425 287.082 456.844 286.112C456.071 284.802 455.877 283.589 455.78 282.862C454.91 276.264 455.055 270.055 455.055 270.055L442.576 270.249C442.576 270.249 442.14 272.772 441.995 273.79C441.898 274.421 441.85 274.906 441.802 275.44C441.802 277.283 443.204 279.611 443.156 279.708C443.059 280.533 441.076 302.411 441.076 302.411C441.076 302.411 465.164 304.74 464.97 303.624C465.019 303.575 462.31 293.534 461.439 288.44Z" fill="#0D0D0D"/>
<path d="M455.442 262.924C454.523 267.096 454.088 269.182 453.072 271.316C452.782 271.947 452.395 272.626 452.54 272.723C452.733 272.869 454.088 271.898 454.765 270.637C455.394 269.57 456.022 266.126 456.941 262.245C457.087 261.517 457.377 260.304 457.619 259.189C457.28 258.946 456.893 258.607 456.651 258.316C456.506 258.704 455.732 261.663 455.442 262.924Z" fill="#0D0D0D"/>
<path d="M442.431 273.111L443.93 273.063C443.882 270.977 444.075 267.726 445.43 264.137C446.058 262.487 446.735 260.984 447.461 259.868C446.929 260.013 446.349 260.207 446.058 260.353C445.381 261.42 444.704 262.73 444.124 264.234C442.721 267.824 442.382 271.025 442.431 273.111Z" fill="#0D0D0D"/>
<path d="M438.416 284.802C438.126 281.697 438.271 279.417 436.82 279.32C433.966 279.175 428.694 276.022 426.566 273.645C426.566 273.645 425.55 272.772 425.598 270.298C425.598 270.249 425.598 270.249 425.598 270.201C425.26 270.152 424.921 270.007 424.631 269.861C424.486 269.812 424.341 269.715 424.196 269.618C423.18 269.715 419.987 266.999 419.214 266.32C418.923 266.077 418.198 265.447 417.859 265.641C417.714 265.738 417.666 265.98 417.666 266.126C417.666 266.417 417.859 266.611 418.053 266.853C418.778 267.63 419.117 267.872 419.068 268.018C418.778 268.697 417.908 267.435 417.666 268.988C417.472 270.104 417.859 271.51 418.681 272.286C420.52 274.033 420.568 274.372 421.487 275.052C422.503 275.828 422.648 275.537 423.954 276.458C424.873 277.089 427.775 279.66 431.596 283.153C431.596 283.153 433.821 285.19 436.626 286.451C436.82 286.548 437.013 286.597 437.304 286.597C437.594 286.597 437.884 286.451 438.077 286.257C438.464 285.869 438.416 285.19 438.416 284.802Z" fill="#FFBEA7"/>
<path d="M434.256 278.447C434.111 278.399 434.014 278.496 434.014 278.641C434.208 279.611 434.208 282.085 432.128 283.638C431.596 284.026 437.981 288.828 440.447 285.772C440.931 285.142 439.287 278.69 437.594 278.738C437.255 278.738 436.771 278.738 436.336 278.738C435.272 278.738 434.643 278.544 434.256 278.447Z" fill="#FEDA4A"/>
<path d="M445.236 265.786C444.801 267.29 444.511 268.842 444.366 270.443C444.366 270.54 444.269 270.637 444.124 270.637C444.027 270.637 443.93 270.54 443.93 270.395C444.075 268.794 444.365 267.193 444.801 265.689C445.381 263.749 446.155 261.857 447.219 260.11C447.268 260.013 447.413 259.965 447.51 260.013C447.606 260.062 447.655 260.207 447.606 260.304" fill="#0D0D0D"/>
<path d="M456.554 265.155C456.022 267.144 455.539 269.036 455.442 270.152C455.394 270.443 455.394 270.734 455.394 271.025C455.297 273.693 455.49 275.488 455.684 278.059C455.781 279.126 455.877 280.388 455.974 281.843C456.022 282.279 456.071 283.104 456.361 284.123C456.603 284.996 456.99 285.821 457.522 286.548C457.86 287.033 458.247 287.616 458.973 288.052C459.215 288.198 459.602 288.44 460.134 288.489C460.521 288.489 460.859 288.44 461.101 288.295C461.198 288.246 461.343 288.295 461.391 288.392C461.44 288.489 461.391 288.634 461.295 288.683C460.956 288.828 460.617 288.877 460.279 288.877C460.231 288.877 460.182 288.877 460.134 288.877C459.505 288.828 459.07 288.586 458.779 288.392C458.006 287.907 457.57 287.276 457.232 286.791C456.7 286.015 456.313 285.19 456.022 284.268C455.684 283.201 455.635 282.376 455.635 281.891C455.539 280.436 455.442 279.223 455.345 278.108C455.152 275.537 454.958 273.693 455.055 271.025C455.055 270.686 455.055 270.443 455.103 270.103C455.2 268.988 455.684 267.047 456.216 265.058C456.748 263.021 457.28 260.887 457.473 259.383C457.473 259.286 457.57 259.189 457.715 259.189C457.812 259.189 457.909 259.286 457.909 259.431" fill="#0D0D0D"/>
<path d="M454.184 275.44C455.055 276.216 455.49 276.022 457.57 276.895C458.634 277.332 458.392 277.332 460.182 278.205C460.907 278.544 461.73 278.932 462.89 279.369C464.148 279.854 465.696 280.727 466.18 280.873C467.776 281.358 467.195 287.761 464.051 285.918C461.052 284.123 458.731 282.959 457.667 282.037C457.667 282.037 456.796 281.261 454.764 280.145C454.668 280.097 454.426 279.951 454.087 279.903C453.459 279.757 452.926 279.951 452.588 280.048C451.959 280.194 451.379 280.194 450.218 280.194C448.235 280.145 445.865 277.186 445.284 275.44C446.058 274.955 447.316 274.809 448.235 274.518C449.347 274.178 450.121 274.178 450.121 274.033C450.121 273.936 449.734 273.936 449.396 273.645C448.863 273.16 448.815 272.189 449.057 272.092C449.154 272.044 449.299 272.189 449.686 272.383C450.266 272.772 450.266 272.626 451.427 273.257C452.201 273.645 452.588 273.887 452.975 274.178C453.604 274.712 453.7 275.003 454.184 275.44Z" fill="#FFBEA7"/>
<path d="M465.164 282.182C465.164 281.309 464.971 280.582 464.729 280.048C465.116 280.194 465.406 280.291 465.648 280.339C467.244 280.824 467.292 280.727 468.211 281.067C469.566 281.6 470.194 282.134 470.581 282.522C470.872 282.813 471.162 283.056 471.355 283.444C471.791 284.22 472.081 285.53 471.549 286.5C470.775 287.761 468.937 287.761 468.308 287.761C467.437 287.761 466.47 287.567 463.52 285.821C464.148 285.19 465.116 283.929 465.164 282.182Z" fill="#FEDA4A"/>
<path d="M451.814 250.409C451.814 250.36 451.814 250.36 451.863 250.311C451.863 250.36 451.814 250.409 451.814 250.409C451.814 250.458 451.814 250.409 451.814 250.409Z" fill="#C36252"/>
<path d="M449.492 255.356L449.202 261.469C449.202 261.469 449.492 263.215 451.475 263.167C453.459 263.118 455.297 261.226 455.297 261.226L455.006 251.767L449.492 255.356Z" fill="#FFBEA7"/>
<path d="M449.347 258.849C451.717 258.655 453.991 255.89 455.151 254.241L455.055 251.767L449.492 255.356L449.347 258.849Z" fill="#FFBEA7"/>
<path d="M444.897 245.121C444.897 245.121 443.156 252.349 447.122 256.278C447.606 256.763 448.331 256.909 448.96 256.715C451.088 256.133 455.635 254.144 455.635 248.468C455.635 241.095 451.379 240.221 451.379 240.221C451.379 240.221 447.219 239.882 444.897 245.121Z" fill="#FFBEA7"/>
<path d="M454.426 251.961L454.813 249.196C454.813 249.196 456.361 247.449 456.99 248.371C457.57 249.341 456.313 252.446 454.426 251.961Z" fill="#FFBEA7"/>
<path d="M450.073 248.274C450.073 248.662 449.928 249.002 449.734 249.002C449.541 249.002 449.396 248.662 449.396 248.274C449.396 247.886 449.541 247.546 449.734 247.546C449.928 247.546 450.073 247.837 450.073 248.274Z" fill="#451109"/>
<path d="M446.832 248.468C446.832 248.856 446.687 249.196 446.493 249.196C446.3 249.196 446.155 248.856 446.155 248.468C446.155 248.08 446.3 247.74 446.493 247.74C446.687 247.692 446.832 248.031 446.832 248.468Z" fill="#451109"/>
<path d="M447.654 249.196C447.654 249.196 447.606 250.797 447.074 250.991C446.542 251.185 447.606 251.767 448.38 251.476" stroke="#451109" stroke-width="0.6142" stroke-miterlimit="10"/>
<path d="M451.814 242.744C452.83 243.957 454.523 244.587 456.071 244.345C456.651 243.569 456.119 242.453 455.539 241.677C454.087 239.785 451.863 238.232 449.492 238.523C447.751 238.718 446.252 239.882 445.236 241.289C444.462 242.356 443.833 243.617 443.446 244.83C442.963 246.334 444.172 246.334 445.333 246.14C446.59 245.945 447.8 245.557 448.912 244.927C449.202 244.83 452.008 242.986 451.814 242.744Z" fill="#0D0D0D"/>
<path d="M449.154 242.695C449.879 243.957 450.702 245.218 451.766 246.188C452.83 247.158 454.184 247.886 455.635 248.031C455.877 248.031 456.167 248.031 456.312 247.837C456.409 247.692 456.458 247.546 456.458 247.352C456.554 246.382 456.506 245.412 456.312 244.442C456.216 243.957 456.071 243.52 455.829 243.083C455.539 242.647 455.103 242.307 454.668 241.968C453.846 241.434 452.975 240.949 452.008 240.803C451.04 240.658 449.976 240.9 449.299 241.628" fill="#0D0D0D"/>
<path d="M453.12 240.076C453.023 239.93 450.798 238.863 450.798 238.863C450.798 238.863 451.282 238.475 451.476 238.475C451.669 238.523 457.763 240.852 457.715 241.289C457.667 241.725 456.409 242.113 456.409 242.113L453.12 240.076Z" fill="#FEDA4A"/>
<path d="M447.654 253.707L449.541 252.543C449.541 252.543 449.492 255.211 447.654 253.707Z" fill="white"/>
<path d="M469.372 281.649L464.681 279.854C464.681 279.854 466.18 282.668 463.81 285.433" stroke="white" stroke-width="0.5948" stroke-miterlimit="10"/>
<path d="M437.643 278.593C437.643 278.593 439.674 279.66 440.013 282.474" stroke="white" stroke-width="0.5948" stroke-miterlimit="10"/>
<path d="M457.28 262.099C457.28 262.099 455.152 269.085 455.345 272.723" stroke="white" stroke-width="0.5948" stroke-miterlimit="10"/>
<path d="M418.343 270.589C418.343 270.54 418.392 270.492 418.392 270.443C418.44 270.395 418.537 270.395 418.585 270.395C418.779 270.395 418.924 270.443 419.117 270.492C419.166 270.492 419.214 270.54 419.262 270.492C419.262 270.492 419.311 270.443 419.311 270.395C419.359 270.104 419.311 269.764 419.214 269.521C419.117 269.327 418.972 269.133 418.972 268.891C418.972 268.745 418.972 268.6 419.02 268.454C419.311 267.193 419.649 265.883 419.939 264.622C421.439 265.398 422.938 266.126 424.535 266.708C424.535 267.144 424.341 267.533 424.148 267.969C423.712 268.939 423.277 269.909 422.793 270.831C422.745 270.928 422.697 271.025 422.6 271.074C422.455 271.171 422.31 271.122 422.164 271.074C421.874 271.025 421.536 270.928 421.245 270.88C421.584 271.171 421.971 271.365 422.358 271.462C421.971 272.869 421.536 274.275 421.149 275.682C421.149 275.731 421.149 275.731 421.1 275.779C421.052 275.779 421.004 275.779 421.004 275.779C420.665 275.634 420.375 275.44 420.036 275.246C419.214 274.809 418.247 274.518 417.328 274.469C417.134 274.469 417.763 272.966 417.763 272.82C418.005 272.044 418.15 271.316 418.343 270.589Z" fill="#C19DAA"/>
<path d="M418.972 270.006C418.972 269.958 419.02 269.909 419.069 269.861C419.117 269.812 419.214 269.812 419.262 269.861C419.456 269.909 419.601 269.958 419.746 270.055C419.794 270.103 419.843 270.103 419.891 270.103L419.939 270.055C420.036 269.764 420.084 269.473 420.036 269.182C419.988 268.988 419.891 268.745 419.939 268.551C419.939 268.406 420.036 268.26 420.084 268.115C420.665 266.902 421.197 265.738 421.777 264.525C423.083 265.592 424.438 266.611 425.84 267.484C425.744 267.921 425.502 268.26 425.212 268.648C424.583 269.521 423.954 270.346 423.325 271.171C423.277 271.268 423.18 271.316 423.083 271.365C422.938 271.413 422.793 271.365 422.648 271.268C422.358 271.122 422.068 271.025 421.777 270.88C422.019 271.219 422.358 271.51 422.745 271.704C422.068 273.014 421.39 274.275 420.713 275.585C420.713 275.634 420.665 275.634 420.665 275.634C420.616 275.634 420.616 275.634 420.568 275.585C420.278 275.391 420.036 275.1 419.746 274.857C419.02 274.227 418.15 273.79 417.231 273.548C417.086 273.499 417.956 272.141 418.005 272.044C418.343 271.365 418.682 270.686 418.972 270.006Z" fill="white"/>
<path d="M424.051 270.298C423.47 269.521 422.89 268.745 422.648 267.872C422.551 267.581 422.503 267.29 422.6 267.047C422.6 266.999 422.648 266.95 422.696 266.902C422.745 266.853 422.793 266.902 422.841 266.902C423.035 266.95 423.228 267.047 423.422 267.096C424.583 267.678 425.453 268.891 425.599 270.201C425.599 270.346 425.599 270.443 425.599 270.589C425.55 270.88 425.26 271.122 424.97 271.122" fill="#FFBEA7"/>
<path d="M569.303 373.381H435.369L560.645 301.247L576.8 313.132L569.303 373.381Z" fill="#AF2222"/>
<path opacity="0.33" d="M569.303 373.381H435.369L560.645 301.247L576.8 313.132L569.303 373.381Z" fill="#2B2B2B"/>
<path d="M570.125 298.87L580.137 307.844L581.782 315.121L576.413 316.431L576.8 313.132L565.433 304.788L570.125 298.87Z" fill="#7D3122"/>
<path d="M556.243 373.381H396.239L393.288 305.128H566.594L556.243 373.381Z" fill="#C92926"/>
<path opacity="0.33" d="M556.243 373.381H556.05C553.438 339.376 528.383 312.453 494.428 310.076L424.147 305.128H566.546L556.243 373.381Z" fill="#2B2B2B"/>
<path d="M498.829 299.792H528.915C530.124 299.792 531.139 298.773 531.139 297.56V284.074C531.139 282.862 530.124 281.843 528.915 281.843H507.874C507.148 281.843 506.423 282.231 506.036 282.813L496.991 296.299C496.024 297.803 497.039 299.792 498.829 299.792Z" fill="#C19DAA"/>
<path d="M519.329 281.825L521.699 281.825L521.699 276.877L519.329 276.877L519.329 281.825Z" fill="#8E767D"/>
<path d="M515.565 279.466H525.142C525.916 279.466 526.593 278.835 526.593 278.011V274.857C526.593 274.081 525.964 273.402 525.142 273.402H515.565C514.791 273.402 514.114 274.033 514.114 274.857V278.011C514.162 278.835 514.791 279.466 515.565 279.466Z" fill="#C19DAA"/>
<path d="M496.991 296.347L506.036 282.862C506.471 282.231 507.148 281.891 507.874 281.891C508.696 281.891 509.373 282.571 509.373 283.395V298.336C509.373 299.161 508.696 299.84 507.874 299.84H498.829C497.039 299.792 496.024 297.803 496.991 296.347Z" fill="#8E767D"/>
<path d="M515.565 273.451C516.29 273.451 516.919 274.081 516.919 274.809V278.108C516.919 278.835 516.29 279.466 515.565 279.466C514.791 279.466 514.114 278.835 514.114 278.011V274.858C514.162 274.13 514.791 273.451 515.565 273.451Z" fill="#8E767D"/>
<path d="M572.592 306.292H388.548L389.999 300.228L570.125 298.87L572.592 306.292Z" fill="#7D3122"/>
<path d="M397.013 366.59C397.013 366.59 396.142 372.751 397.061 374.351C397.98 375.952 410.749 374.74 410.749 374.06C410.701 373.333 406.154 371.101 404.51 367.075L397.013 366.59Z" fill="white"/>
<path d="M404.171 375.031C407.509 374.837 410.701 374.351 410.701 374.012C410.701 373.527 408.718 372.411 406.88 370.568C405.768 371.441 404.413 372.945 404.171 375.031Z" fill="#0D0D0D"/>
<path d="M410.701 374.012C410.701 373.866 410.459 373.624 410.072 373.284C405.139 373.915 399.431 373.236 396.674 372.799C396.723 373.43 396.868 373.963 397.061 374.303C397.932 375.904 410.75 374.74 410.701 374.012Z" fill="white"/>
<path d="M384.243 366.59C384.243 366.59 383.372 372.751 384.291 374.351C385.21 375.952 397.98 374.74 397.98 374.06C397.931 373.333 393.385 371.101 391.74 367.075L384.243 366.59Z" fill="white"/>
<path d="M391.402 375.031C394.739 374.837 397.932 374.351 397.932 374.012C397.932 373.527 395.949 372.411 394.111 370.568C392.998 371.441 391.644 372.945 391.402 375.031Z" fill="#0D0D0D"/>
<path d="M397.931 374.012C397.931 373.866 397.689 373.624 397.302 373.284C392.369 373.915 386.661 373.236 383.904 372.799C383.953 373.43 384.098 373.963 384.291 374.303C385.21 375.904 397.98 374.74 397.931 374.012Z" fill="white"/>
<path d="M397.013 334.67L396.626 367.269H405.09L407.46 330.789C408.186 327.442 408.379 323.998 407.992 320.602C407.992 320.602 402.962 291.69 402.962 291.593L389.806 291.205L396.045 323.659C397.061 327.2 397.4 330.984 397.013 334.67Z" fill="#0D0D0D"/>
<path d="M383.518 367.269H393.385C395.416 342.189 395.803 306.195 396.626 291.254L382.55 291.108C377.23 306.632 383.614 345.003 383.518 367.269Z" fill="#0D0D0D"/>
<path d="M399.141 261.711C399.141 261.711 403.301 261.711 404.026 265.495C404.752 269.279 408.138 280.97 409.54 285.142C410.266 287.179 408.186 289.944 405.719 290.138C401.463 290.429 398.561 271.85 398.561 271.85L399.141 261.711Z" fill="#FEDA4A"/>
<path d="M378.874 265.98C378.874 265.98 379.6 262.924 381.583 262.148C383.566 261.323 396.529 261.76 399.141 261.711C401.753 261.663 401.559 266.902 401.511 270.928C401.462 274.955 403.445 291.108 403.445 291.108L406.493 303.721C397.738 302.751 378.874 303.721 378.874 303.721C378.874 303.721 379.938 279.126 378.874 265.98Z" fill="#FEDA4A"/>
<path d="M401.511 270.928C401.462 274.955 403.445 291.108 403.445 291.108" stroke="#451109" stroke-width="0.5943" stroke-miterlimit="10"/>
<path d="M381.583 262.099C381.583 262.099 377.036 261.663 375.247 269.958C373.457 278.253 368.427 295.28 371.909 296.105C375.392 296.978 379.164 292.564 381.486 279.078C383.808 265.641 381.583 262.099 381.583 262.099Z" fill="#FEDA4A"/>
<path d="M371.909 296.105C375.392 296.978 379.165 292.564 381.486 279.078C382.357 274.13 382.599 270.54 382.55 267.921" stroke="#451109" stroke-width="0.5943" stroke-miterlimit="10"/>
<path d="M397.109 239.154C396.964 239.203 395.319 236.001 392.562 237.99C392.562 237.99 388.354 234.449 386.323 239.3C386.323 239.3 383.421 238.96 384.001 241.628C384.001 241.628 381.534 242.065 382.985 244.927C382.985 244.927 381.147 246.722 383.421 248.565C383.421 248.565 381.97 250.214 384.582 251.961C384.582 251.961 384.291 253.95 386.371 254.241C386.371 254.241 386.468 257.685 389.515 256.036L396.916 253.368C396.916 253.368 400.882 254.435 400.108 251.767C400.108 251.767 402.139 251.815 401.511 249.438C401.511 249.438 402.913 247.498 401.317 246.091C401.317 246.091 403.059 243.569 400.301 242.598C400.301 242.55 402.236 238.184 397.109 239.154Z" fill="#0D0D0D"/>
<path d="M394.304 257.782L394.207 263.555C394.207 263.555 394.255 264.961 391.837 265.01C389.467 265.058 387.726 262.196 387.726 262.196L388.016 254.289L394.304 257.782Z" fill="#FFBEA7"/>
<path d="M387.919 257.2L388.016 254.289L394.304 257.782L394.256 262.099C392.273 261.275 389.516 258.752 387.919 257.2Z" fill="#FFBEA7"/>
<path d="M398.174 246.867C398.222 247.061 400.06 255.89 395.949 259.286C395.949 259.286 388.258 259.043 387.146 251.476C386.033 243.86 389.564 242.889 389.564 242.889C389.564 242.889 396.142 240.561 398.174 246.867Z" fill="#FFBEA7"/>
<path d="M391.595 244.733C391.644 244.539 393.53 246.334 395.03 244.781C395.03 244.781 395.513 245.897 397.303 245.557C397.303 245.557 397.061 247.352 398.416 247.449C399.77 247.546 398.706 244.684 398.706 244.684C398.706 244.684 400.35 242.065 397.303 241.531C397.303 241.531 395.804 238.718 392.466 240.512C392.466 240.512 387.774 240.415 387.387 242.889C387.387 242.889 383.47 244.442 386.081 248.177C386.081 248.177 385.259 251.33 387.291 252.106C387.291 252.106 388.355 250.796 387.871 249.147C387.871 249.147 389.177 248.905 388.5 246.382C388.5 246.431 391.209 247.013 391.595 244.733Z" fill="#0D0D0D"/>
<path d="M387.774 251.767C387.774 251.767 386.807 249.875 385.501 250.748C384.147 251.573 385.791 254.241 388.403 254.483L387.774 251.767Z" fill="#FFBEA7"/>
<path d="M391.402 249.05C391.402 249.487 391.547 249.826 391.74 249.875C391.934 249.875 392.079 249.535 392.079 249.099C392.079 248.662 391.934 248.323 391.74 248.274C391.595 248.225 391.402 248.614 391.402 249.05Z" fill="#451109"/>
<path d="M395.997 249.341C395.997 249.778 396.142 250.117 396.336 250.166C396.529 250.166 396.674 249.826 396.674 249.39C396.674 248.953 396.529 248.614 396.336 248.565C396.191 248.565 395.997 248.905 395.997 249.341Z" fill="#451109"/>
<path d="M395.174 250.214C395.174 250.311 395.416 251.815 396.142 251.961C396.867 252.106 395.319 252.834 395.319 252.834" stroke="#451109" stroke-width="0.5943" stroke-miterlimit="10"/>
<path d="M392.466 247.013C392.466 247.013 391.353 246.334 390.773 247.11" stroke="#451109" stroke-width="0.5943" stroke-miterlimit="10"/>
<path d="M395.707 247.013C395.707 247.013 396.48 246.576 397.303 247.449" stroke="#451109" stroke-width="0.5943" stroke-miterlimit="10"/>
<path d="M384.098 274.227V275.973L390.435 275.682L390.096 274.13L384.098 274.227Z" fill="white"/>
<path d="M404.413 281.018C404.365 281.067 404.365 281.115 404.316 281.164C403.881 281.746 402.865 282.037 402.285 282.328C401.366 282.765 400.447 283.153 399.479 283.541C398.851 283.783 398.27 284.026 397.593 284.026C397.496 284.026 397.448 284.026 397.351 284.026L392.805 285.821L391.305 282.716C391.305 282.716 393.965 281.067 395.755 279.854C396.142 278.932 396.771 278.108 397.448 277.429C397.883 276.992 398.174 276.507 398.56 276.022C398.754 275.779 398.996 275.585 399.286 275.634C399.528 275.682 399.673 275.973 399.673 276.216C399.673 276.458 399.625 276.701 399.625 276.943C399.625 277.332 399.721 277.817 399.963 278.059C400.64 278.738 402.527 277.137 403.059 276.749C403.155 276.701 403.252 276.652 403.349 276.652C403.736 276.701 403.881 277.817 403.978 278.059C404.171 278.738 404.365 279.417 404.413 280.097C404.51 280.436 404.51 280.727 404.413 281.018Z" fill="#FFBEA7"/>
<path d="M394.836 279.612C394.836 279.612 397.206 282.086 396.626 285.578C396.626 285.578 385.21 296.735 372.731 296.299C372.731 296.299 369.491 296.881 371.28 290.672C373.021 284.462 380.519 285.578 394.836 279.612Z" fill="#FEDA4A"/>
<path d="M372.973 287.761C376.214 284.657 383.324 284.414 394.788 279.612C394.788 279.612 397.158 282.086 396.577 285.578C396.577 285.578 391.547 290.526 384.485 293.728" stroke="#451109" stroke-width="0.5943" stroke-miterlimit="10"/>
<path d="M394.933 254.968C394.933 254.968 392.95 255.551 392.127 253.901" stroke="#451109" stroke-width="0.9309" stroke-miterlimit="10"/>
<path d="M405.622 281.164L417.811 271.51L422.068 275.537C422.068 275.537 408.138 291.302 405.38 290.138C402.623 288.925 405.622 281.164 405.622 281.164Z" fill="#FEDA4A"/>
<path d="M395.562 321.621L396.335 309.009" stroke="white" stroke-width="0.7189" stroke-miterlimit="10"/>
<path d="M0 157.221H815.307V0H0V157.221Z" fill="url(#paint3_linear)"/>
<g opacity="0.8">
<path opacity="0.8" d="M77.2935 193.943H9.91553V292.661H77.2935V193.943Z" fill="#7D3122"/>
<g opacity="0.8">
<path opacity="0.8" d="M77.2935 193.943H9.91553V292.661H77.2935V193.943Z" fill="#7D3122"/>
<path opacity="0.8" d="M74.8267 196.708H12.334V289.41H74.8267V196.708Z" fill="#C92926"/>
<path opacity="0.8" d="M48.3203 258.849H17.5576V262.584H48.3203V258.849Z" fill="#F8553E"/>
<path opacity="0.8" d="M48.3203 277.865H17.5576V281.6H48.3203V277.865Z" fill="#F8553E"/>
<path opacity="0.8" d="M67.1358 266.32H17.5576V271.51H67.1358V266.32Z" fill="#F8553E"/>
<path opacity="0.8" d="M67.1358 205.003H17.5576V252.882H67.1358V205.003Z" fill="#F8553E"/>
</g>
</g>
<g opacity="0.8">
<path opacity="0.8" d="M661.3 193.943H593.922V292.661H661.3V193.943Z" fill="#F8553E"/>
<g opacity="0.8">
<path opacity="0.8" d="M661.3 193.943H593.922V292.661H661.3V193.943Z" fill="#7D3122"/>
<path opacity="0.8" d="M658.833 196.708H596.341V289.41H658.833V196.708Z" fill="#C92926"/>
<path opacity="0.8" d="M632.375 258.849H601.613V262.584H632.375V258.849Z" fill="#F8553E"/>
<path opacity="0.8" d="M632.375 277.865H601.613V281.6H632.375V277.865Z" fill="#F8553E"/>
<path opacity="0.8" d="M651.191 266.32H601.613V271.51H651.191V266.32Z" fill="#F8553E"/>
<path opacity="0.8" d="M651.191 205.003H601.613V252.882H651.191V205.003Z" fill="#F8553E"/>
</g>
</g>
<path d="M136.207 433V0H0V433H136.207Z" fill="url(#paint4_linear)"/>
<path d="M672 0V433H817V0H672Z" fill="url(#paint5_linear)"/>
<path d="M269.899 275.1C270.286 272.092 269.56 266.659 269.56 266.659C269.56 266.659 272.22 266.514 273.671 270.006C276.719 277.234 275.413 292.903 275.219 295.135C275.219 295.135 276.283 299.598 274.687 307.262C274.929 307.796 275.219 308.523 275.413 308.814C275.461 308.863 275.461 308.863 275.509 308.912C275.703 309.203 275.703 309.591 275.509 309.882L274.494 311.483C274.397 311.628 274.252 311.725 274.107 311.822C274.058 311.822 274.01 311.871 273.962 311.871L272.704 312.162L272.559 307.893C272.172 303.721 269.56 277.865 269.899 275.1Z" fill="#FFBEA7"/>
<path d="M250.357 244.975C251.421 243.326 252.872 243.278 254.323 241.871C255.678 240.561 258.145 239.688 260.128 239.688C266.512 239.688 271.978 243.617 270.721 250.214C270.334 252.3 270.672 253.998 268.979 256.424C266.851 259.48 264.287 261.954 260.128 261.954C257.951 261.954 256.016 261.469 254.323 259.819C253.404 258.946 252.05 258.849 251.276 257.879C249.632 255.939 249.777 253.416 249.148 250.797C248.567 248.468 249.245 246.722 250.357 244.975Z" fill="#0D0D0D"/>
<path d="M265.981 266.417L264.239 267.29L258.048 270.492L256.984 265.253C256.984 265.253 257.709 263.264 258 260.11C258.145 258.752 258.193 257.151 258.048 255.405L264.529 258.704C264.529 258.704 263.127 264.137 265.981 266.417Z" fill="#FFBEA7"/>
<path d="M265.98 266.417L264.239 267.29C263.61 266.756 262.981 266.223 262.401 265.689C261.772 265.156 261.143 264.622 260.611 263.991C259.983 263.264 259.499 262.439 259.015 261.663C258.677 261.129 258.386 260.596 258.048 260.062C258.193 258.704 258.241 257.103 258.096 255.357L264.578 258.655C264.529 258.704 263.127 264.137 265.98 266.417Z" fill="#FFBEA7"/>
<path d="M264.771 261.42C264.771 261.42 256.645 262.39 256.5 256.666C256.307 250.942 259.692 247.207 261.966 247.255C266.464 247.352 267.19 249.147 267.722 251.088C268.205 252.98 268.496 261.032 264.771 261.42Z" fill="#FFBEA7"/>
<path d="M272.511 304.788L256.452 306.098C256.452 306.098 262.208 349.175 265.207 374.691C265.207 374.691 266.513 375.176 269.995 375.176C272.414 375.176 272.559 374.934 272.559 374.934L272.511 304.788Z" fill="#0D0D0D"/>
<path d="M248.132 304.788C248.132 304.788 246.536 339.861 249.342 374.934C249.342 374.934 250.793 375.613 253.066 375.564C255.484 375.516 255.92 375.031 255.92 375.031L260.902 316.382C261.047 315.024 262.595 306.68 262.595 306.68L248.132 304.788Z" fill="#0D0D0D"/>
<path d="M247.262 277.865L246.198 269.23C246.343 268.988 246.488 268.794 246.633 268.648C248.471 266.368 255.581 265.398 256.984 265.253C257.032 265.301 260.321 268.018 262.692 267.727C264.675 267.484 265.062 266.417 264.965 265.253C269.173 265.932 271.543 267.29 271.543 267.29C275.8 268.891 276.67 283.153 276.67 283.153C276.09 283.007 273.284 283.492 271.93 283.735L272.462 304.837C262.256 309.3 247.552 306.438 247.552 306.438L247.6 306.292L248.568 289.411L247.649 281.697L247.262 277.865Z" fill="#FEDA4A"/>
<path d="M241.216 278.738C241.216 278.738 245.376 280.436 247.117 281.891C247.455 282.183 249.148 283.347 249.342 283.492L254.614 269.91L255.775 267.581L256.839 265.398L256.936 265.204C256.936 265.204 256.839 265.204 256.694 265.253C256.113 265.301 254.614 265.495 252.873 265.883C251.809 266.126 250.599 266.417 249.584 266.853C248.326 267.338 247.214 267.921 246.633 268.648C246.488 268.842 246.343 269.036 246.198 269.23C244.118 272.238 241.216 278.738 241.216 278.738Z" fill="#FEDA4A"/>
<path d="M263.949 247.352C263.949 247.352 257.032 247.352 258.629 252.106C259.644 255.114 256.307 255.599 256.307 255.599C256.307 255.599 254.856 252.058 254.711 250.797C254.566 249.826 254.953 247.595 255.726 247.061C257.323 245.8 263.949 247.352 263.949 247.352Z" fill="#0D0D0D"/>
<path d="M243.247 291.836C243.634 291.108 244.069 290.381 244.553 289.702C245.085 286.985 247.165 285.239 248.906 283.056C248.955 283.007 248.955 282.91 249.003 282.862C248.036 281.891 243.537 279.466 241.409 278.835C239.765 283.007 239.233 287.179 240.152 291.157C240.248 291.593 240.635 291.885 241.071 291.885C241.506 291.885 242.28 291.885 243.247 291.836Z" fill="#FFBEA7"/>
<path d="M261.627 252.252C261.627 252.688 261.773 253.077 262.014 253.077C262.208 253.077 262.401 252.737 262.401 252.252C262.401 251.815 262.256 251.427 262.014 251.427C261.821 251.427 261.676 251.815 261.627 252.252Z" fill="#451109"/>
<path d="M265.207 252.543C265.207 252.98 265.352 253.368 265.593 253.368C265.787 253.368 265.98 253.028 265.98 252.543C265.98 252.106 265.835 251.718 265.593 251.718C265.4 251.718 265.207 252.106 265.207 252.543Z" fill="#451109"/>
<path d="M264.868 257.2C264.868 257.2 263.611 257.782 262.015 256.715" stroke="#451109" stroke-width="0.6705" stroke-miterlimit="10"/>
<path d="M264.288 253.319C264.288 253.319 264.288 255.065 264.917 255.308C265.546 255.551 264.288 256.133 263.466 255.793" stroke="#451109" stroke-width="0.6705" stroke-miterlimit="10"/>
<path d="M249.245 369.695C249.245 369.695 248.374 375.855 249.293 377.456C250.212 379.057 262.982 377.844 262.982 377.165C262.933 376.437 258.387 374.206 256.742 370.18L249.245 369.695Z" fill="white"/>
<path d="M256.404 378.135C259.741 377.941 262.934 377.456 262.934 377.117C262.934 376.631 260.95 375.516 259.112 373.672C258 374.594 256.646 376.049 256.404 378.135Z" fill="#0D0D0D"/>
<path d="M262.933 377.117C262.933 376.971 262.691 376.728 262.304 376.389C257.371 377.02 251.663 376.34 248.906 375.904C248.955 376.534 249.1 377.068 249.293 377.408C250.212 379.008 262.982 377.844 262.933 377.117Z" fill="white"/>
<path d="M265.158 369.112C265.158 369.112 264.288 375.273 265.207 376.874C266.126 378.475 278.895 377.262 278.895 376.583C278.847 375.855 274.3 373.624 272.655 369.597L265.158 369.112Z" fill="white"/>
<path d="M272.317 377.553C275.654 377.359 278.847 376.874 278.847 376.534C278.847 376.049 276.864 374.934 275.026 373.09C273.865 374.012 272.559 375.467 272.317 377.553Z" fill="#0D0D0D"/>
<path d="M278.846 376.534C278.846 376.389 278.605 376.146 278.218 375.807C273.284 376.437 267.576 375.758 264.819 375.322C264.868 375.952 265.013 376.486 265.206 376.825C266.077 378.426 278.895 377.262 278.846 376.534Z" fill="white"/>
<path d="M263.949 315.315L259.983 328.073" stroke="white" stroke-width="0.7189" stroke-miterlimit="10"/>
<path d="M244.843 287.373L248.616 306.874C248.616 306.874 252.776 307.699 252.776 308.184C252.776 308.669 251.615 309.251 250.406 309.057C249.245 308.814 252.534 311.386 252.196 311.677C251.905 311.968 251.663 314.539 248.906 313.665C246.149 312.792 246.101 310.755 245.714 309.445C245.376 308.281 239.862 292.079 238.797 289.022C238.701 288.683 238.652 288.343 238.749 288.004L240.248 282.134" fill="#FFBEA7"/>
<path d="M249.874 281.746L253.985 275.828" stroke="white" stroke-width="0.5948" stroke-miterlimit="10"/>
<path d="M323.927 330.207C304.531 330.207 292.729 321.184 292.197 320.796L296.211 317.934L294.228 319.39L296.211 317.934C296.26 317.934 299.21 320.214 304.386 322.3C311.303 325.114 318.655 326.327 326.345 325.987C344.919 325.162 353.19 317.789 353.287 317.74L357.592 320.36C357.205 320.699 347.628 329.189 326.684 330.11C325.765 330.207 324.846 330.207 323.927 330.207Z" fill="#F8553E"/>
<path d="M359.285 379.348V310.221C359.285 309.591 358.511 309.057 357.592 309.057H354.496H354.448C353.529 309.057 352.803 309.591 352.803 310.221V379.348H359.285Z" fill="#7D3122"/>
<path opacity="0.1" d="M356.044 379.348V310.221C356.044 309.591 355.318 309.057 354.399 309.057C353.48 309.057 352.755 309.591 352.755 310.221V379.348H356.044Z" fill="white"/>
<path d="M261.095 330.207C241.699 330.207 229.897 321.184 229.365 320.796L233.38 317.934L231.397 319.39L233.38 317.934C233.428 317.934 236.379 320.214 241.554 322.3C248.471 325.114 255.823 326.327 263.514 325.987C282.087 325.162 290.358 317.789 290.455 317.74L294.76 320.36C294.373 320.699 284.796 329.189 263.852 330.11C262.933 330.207 262.014 330.207 261.095 330.207Z" fill="#F8553E"/>
<path d="M296.453 379.348V310.221C296.453 309.591 295.679 309.057 294.76 309.057H291.665H291.616C290.697 309.057 289.972 309.591 289.972 310.221V379.348H296.453Z" fill="#7D3122"/>
<path opacity="0.1" d="M293.212 379.348V310.221C293.212 309.591 292.487 309.057 291.568 309.057C290.649 309.057 289.923 309.591 289.923 310.221V379.348H293.212Z" fill="white"/>
<path d="M234.638 379.348V310.221C234.638 309.591 233.864 309.057 232.945 309.057H229.849H229.801C228.882 309.057 228.156 309.591 228.156 310.221V379.348H234.638Z" fill="#7D3122"/>
<path opacity="0.1" d="M231.397 379.348V310.221C231.397 309.591 230.671 309.057 229.752 309.057C228.833 309.057 228.108 309.591 228.108 310.221V379.348H231.397Z" fill="white"/>
<path d="M815.307 322.446H0V433H815.307V322.446Z" fill="url(#paint6_linear)"/>
<defs>
<linearGradient id="paint0_linear" x1="775.911" y1="305.891" x2="731.228" y2="282.501" gradientUnits="userSpaceOnUse">
<stop stop-color="#0D0D0D"/>
<stop offset="0.996" stop-color="#0D0D0D" stop-opacity="0"/>
</linearGradient>
<linearGradient id="paint1_linear" x1="114.054" y1="103.045" x2="114.054" y2="292.497" gradientUnits="userSpaceOnUse">
<stop stop-color="#F8553E" stop-opacity="0.32"/>
<stop offset="1" stop-color="#F83E3E" stop-opacity="0"/>
</linearGradient>
<linearGradient id="paint2_linear" x1="482.239" y1="107.508" x2="482.239" y2="296.961" gradientUnits="userSpaceOnUse">
<stop stop-color="#F8553E" stop-opacity="0.32"/>
<stop offset="1" stop-color="#F83E3E" stop-opacity="0"/>
</linearGradient>
<linearGradient id="paint3_linear" x1="407.642" y1="25.9756" x2="407.642" y2="175.03" gradientUnits="userSpaceOnUse">
<stop stop-color="#0D0D0D"/>
<stop offset="0.996" stop-color="#0D0D0D" stop-opacity="0"/>
</linearGradient>
<linearGradient id="paint4_linear" x1="22.5034" y1="216.511" x2="151.634" y2="216.511" gradientUnits="userSpaceOnUse">
<stop stop-color="#0D0D0D"/>
<stop offset="0.0319907" stop-color="#0D0D0D" stop-opacity="0.9679"/>
<stop offset="0.996" stop-color="#0D0D0D" stop-opacity="0"/>
</linearGradient>
<linearGradient id="paint5_linear" x1="793.029" y1="216.511" x2="655.563" y2="216.511" gradientUnits="userSpaceOnUse">
<stop stop-color="#0D0D0D"/>
<stop offset="0.0319907" stop-color="#0D0D0D" stop-opacity="0.9679"/>
<stop offset="0.996" stop-color="#0D0D0D" stop-opacity="0"/>
</linearGradient>
<linearGradient id="paint6_linear" x1="407.643" y1="414.752" x2="407.643" y2="309.911" gradientUnits="userSpaceOnUse">
<stop stop-color="#0D0D0D"/>
<stop offset="0.996" stop-color="#0D0D0D" stop-opacity="0"/>
</linearGradient>
</defs>
</svg>
