<svg width="140" height="32" viewBox="0 0 140 32" fill="none" xmlns="http://www.w3.org/2000/svg">
<g clip-path="url(#clip0)">
<path d="M41.7498 7.86942H49.3058C51.2209 7.86942 52.753 8.46136 53.9717 9.61044C55.1556 10.7943 55.7476 12.3264 55.7476 14.2067C55.7476 16.087 55.1208 17.6191 53.9021 18.803C52.6834 19.9869 51.0816 20.5441 49.1317 20.5441H45.6497V26.3939H41.7498V7.86942ZM45.6497 10.9336V17.5495H48.2612C49.3754 17.5495 50.246 17.2709 50.8727 16.679C51.4995 16.087 51.8129 15.2862 51.8129 14.2416C51.8129 13.1969 51.4995 12.3613 50.9075 11.8041C50.2808 11.247 49.4451 10.9336 48.3308 10.9336H45.6497Z" fill="white"/>
<path d="M80.4005 12.4309C82.1415 12.4309 83.5343 13.0577 84.5441 14.3112C85.5539 15.5647 86.0414 17.3058 86.0414 19.5343C86.0414 21.7628 85.5539 23.469 84.5441 24.7573C83.5343 26.0109 82.1763 26.6377 80.4701 26.6377C79.4951 26.6377 78.6246 26.4287 77.8586 25.9761C77.0925 25.5234 76.5354 24.8966 76.1872 24.1306H76.1175V30.9554H72.3569V12.6398H76.0479V15.0424H76.1175C76.5006 14.2068 77.0577 13.58 77.7889 13.1273C78.555 12.6398 79.4255 12.4309 80.4005 12.4309ZM79.1469 23.6431C80.0871 23.6431 80.8183 23.2601 81.3754 22.5288C81.9326 21.7976 82.2111 20.7878 82.2111 19.5343C82.2111 18.2807 81.9326 17.271 81.3754 16.5397C80.8183 15.8085 80.0871 15.4255 79.1469 15.4255C78.2416 15.4255 77.4755 15.8085 76.9184 16.5397C76.3613 17.3058 76.0827 18.2807 76.0827 19.5343C76.0827 20.7878 76.3613 21.7628 76.9184 22.5288C77.4755 23.2601 78.2068 23.6431 79.1469 23.6431Z" fill="white"/>
<path d="M100.492 17.7584H97.0098C96.9053 17.0272 96.5919 16.4004 96.1393 15.9478C95.6518 15.4951 95.0598 15.2514 94.2938 15.2514C93.3536 15.2514 92.6224 15.6344 92.1001 16.3656C91.5778 17.1317 91.2992 18.1415 91.2992 19.4646C91.2992 20.8226 91.5778 21.8673 92.1001 22.5985C92.6224 23.3297 93.3884 23.7127 94.3286 23.7127C95.0598 23.7127 95.6866 23.5038 96.1393 23.086C96.6267 22.6681 96.9053 22.0762 97.0098 21.3101H100.492C100.387 22.9467 99.7954 24.235 98.6463 25.21C97.4972 26.185 96.0348 26.6725 94.2241 26.6725C92.1349 26.6725 90.4635 26.0457 89.2448 24.7573C88.0261 23.469 87.4341 21.728 87.4341 19.4646C87.4341 17.271 88.0609 15.5299 89.2796 14.2068C90.4983 12.9184 92.1349 12.2568 94.2241 12.2568C96.0696 12.2568 97.5321 12.7791 98.6811 13.7889C99.7954 14.8683 100.422 16.1915 100.492 17.7584Z" fill="white"/>
<path d="M113.654 24.827C112.435 26.1153 110.764 26.7421 108.675 26.7421C106.585 26.7421 104.914 26.1153 103.695 24.827C102.477 23.5386 101.85 21.7976 101.85 19.5343C101.85 17.3058 102.477 15.5647 103.695 14.2764C104.949 12.988 106.585 12.3613 108.675 12.3613C110.764 12.3613 112.435 12.988 113.654 14.2764C114.873 15.5647 115.499 17.3058 115.499 19.5343C115.499 21.7628 114.873 23.5386 113.654 24.827ZM108.675 23.852C109.615 23.852 110.346 23.469 110.868 22.7029C111.425 21.9369 111.669 20.8923 111.669 19.4995C111.669 18.1415 111.391 17.0968 110.868 16.3308C110.311 15.5647 109.58 15.1817 108.675 15.1817C107.769 15.1817 107.003 15.5647 106.481 16.3308C105.924 17.0968 105.68 18.1415 105.68 19.4995C105.68 20.8575 105.959 21.9369 106.481 22.7029C107.003 23.469 107.735 23.852 108.675 23.852Z" fill="white"/>
<path d="M69.049 24.827C67.8302 26.1153 66.1589 26.7421 64.0696 26.7421C61.9804 26.7421 60.309 26.1153 59.0903 24.827C57.8716 23.5386 57.2448 21.7976 57.2448 19.5343C57.2448 17.3058 57.8716 15.5647 59.0903 14.2764C60.3438 12.988 61.9804 12.3613 64.0696 12.3613C66.1589 12.3613 67.8302 12.988 69.049 14.2764C70.2677 15.5647 70.8944 17.3058 70.8944 19.5343C70.8596 21.7628 70.2677 23.5386 69.049 24.827ZM64.0348 23.852C64.975 23.852 65.7062 23.469 66.2285 22.7029C66.7856 21.9369 67.0294 20.8923 67.0294 19.4995C67.0294 18.1415 66.7508 17.0968 66.2285 16.3308C65.6714 15.5647 64.9401 15.1817 64.0348 15.1817C63.1295 15.1817 62.3634 15.5647 61.8411 16.3308C61.284 17.0968 61.0402 18.1415 61.0402 19.4995C61.0402 20.8575 61.3188 21.9369 61.8411 22.7029C62.3634 23.469 63.0947 23.852 64.0348 23.852Z" fill="white"/>
<path d="M117.415 26.4287V12.6398H121.036V15.1121H121.106C121.349 14.2416 121.732 13.58 122.324 13.0925C122.881 12.6398 123.578 12.3961 124.379 12.3961C124.762 12.3961 125.145 12.4309 125.458 12.5354V15.8433C125.11 15.704 124.657 15.6344 124.1 15.6344C123.16 15.6344 122.464 15.913 121.941 16.4353C121.419 16.9924 121.175 17.7236 121.175 18.6986V26.3939H117.415V26.4287Z" fill="white"/>
<path d="M126.99 26.4287V12.6398H130.612V15.1121H130.681C131.064 14.2416 131.621 13.58 132.318 13.0925C133.049 12.6398 133.919 12.3961 134.964 12.3961C136.496 12.3961 137.68 12.8488 138.516 13.7541C139.351 14.6594 139.769 15.913 139.769 17.5495V26.4287H136.009V18.3156C136.009 17.4102 135.8 16.7138 135.382 16.2263C134.964 15.7389 134.337 15.4951 133.502 15.4951C132.666 15.4951 132.004 15.7737 131.517 16.3308C131.029 16.8879 130.751 17.6192 130.751 18.5245V26.4287H126.99Z" fill="white"/>
<path d="M32 15.9826C32 21.3101 29.3885 26.0457 25.3841 28.9358C25.0359 29.1795 24.6877 29.4233 24.3395 29.6322C23.5734 30.1197 22.7378 30.5375 21.8672 30.8509C21.6235 30.9554 21.3798 31.025 21.136 31.1295C19.8477 31.5473 18.5245 31.8259 17.1317 31.9304C17.062 31.9304 16.9924 31.9304 16.9576 31.9304C16.6442 31.9652 16.3308 31.9652 16.0174 31.9652C15.4255 31.9652 14.8335 31.9304 14.2416 31.8607C14.1719 31.8607 14.1023 31.8607 14.0675 31.8259C12.6398 31.6518 11.2818 31.3036 10.0283 30.7813C9.78455 30.6768 9.5408 30.5724 9.33188 30.4679C8.42655 30.0501 7.59086 29.5626 6.78999 29.0054C6.44178 28.7617 6.09358 28.4831 5.7802 28.2394C2.22851 25.3493 0 20.9271 0 15.9826C0 7.17301 7.17301 0 15.9826 0C24.7922 0 32 7.17301 32 15.9826Z" fill="url(#paint0_linear)"/>
<path d="M26.8117 14.4157L26.7769 14.7291V14.7987L26.7073 15.1817L24.3395 29.667C23.5734 30.1545 22.7377 30.5724 21.8672 30.8858C21.6235 30.9902 21.3797 31.0599 21.136 31.1643C19.8476 31.5822 18.5245 31.8607 17.1316 31.9652C17.062 31.9652 16.9924 31.9652 16.9575 31.9652C16.6442 32 16.3308 32 16.0174 32C15.4254 32 14.8335 31.9652 14.2415 31.8955C14.1719 31.8955 14.1023 31.8955 14.0674 31.8607C12.6398 31.6866 11.2818 31.3384 10.0283 30.8161C9.78453 30.7117 9.54079 30.6072 9.33186 30.5027C8.42653 30.0849 7.59084 29.5974 6.78997 29.0403L4.52664 15.0773L4.49182 14.938L4.42218 14.555C4.457 14.2764 4.6311 14.0327 4.87485 13.7889H26.3939L26.8117 14.4157Z" fill="url(#paint1_linear)"/>
<path d="M14.2416 31.8955C14.1719 31.8955 14.1023 31.8955 14.0675 31.8607C12.6398 31.6866 11.2818 31.3384 10.0283 30.8161L8.531 16.8531L8.49618 16.5397L8.46136 16.1567L8.42654 15.913L8.1828 13.7541H13.7541L13.7889 15.1469V15.321L13.8237 17.1317V17.5495L14.2416 31.8955Z" fill="url(#paint2_linear)"/>
<path d="M23.0163 13.7541L22.8074 15.8781L22.7726 16.1219L22.7377 16.5397L22.7029 16.8531L21.1708 31.1295C19.8825 31.5473 18.5593 31.8259 17.1665 31.9304C17.0968 31.9304 17.0272 31.9304 16.9924 31.9304L17.3754 17.4799V17.062L17.4102 15.7737V15.5299L17.445 13.6844H23.0163V13.7541Z" fill="url(#paint3_linear)"/>
<path opacity="0.15" d="M26.8118 14.4157L26.777 14.7291V14.7987L26.7073 15.1817L24.3395 29.667C23.5735 30.1545 22.7378 30.5724 21.8673 30.8858C21.6235 30.9902 21.3798 31.0599 21.136 31.1643C19.8477 31.5822 18.5245 31.8607 17.1317 31.9652C17.0621 31.9652 17.0272 31.9652 16.9576 31.9652C16.6442 32 16.3308 32 16.0174 32C15.4255 32 14.8335 31.9652 14.2416 31.8955C14.172 31.8955 14.1371 31.8955 14.0675 31.8955C12.8488 31.7563 11.6997 31.4777 10.5854 31.0599C18.7334 30.9206 25.2797 24.2699 25.2797 16.1219C25.2797 15.321 25.21 14.555 25.1056 13.7889H26.4288L26.8118 14.4157Z" fill="url(#paint4_linear)"/>
<path d="M26.8814 14.3809V14.4157C26.8814 14.4505 26.8814 14.4505 26.8814 14.4853C26.8814 14.5898 26.8466 14.6594 26.7769 14.7639V14.7987C26.6377 15.0076 26.3939 15.2165 26.0805 15.3906C25.8716 15.5299 25.593 15.6344 25.3145 15.7737C25.1404 15.8433 24.9315 15.913 24.7225 15.9826C24.6877 15.9826 24.6529 16.0174 24.6529 16.0174C24.5833 16.0522 24.5136 16.0522 24.4091 16.0871C24.3395 16.1219 24.235 16.1219 24.1654 16.1567C24.1306 16.1567 24.0609 16.1915 24.0261 16.1915C23.7476 16.2612 23.4342 16.3308 23.086 16.4004C23.0163 16.4353 22.9119 16.4353 22.8422 16.4701C22.2851 16.6442 21.7628 16.7138 21.2405 16.7835C21.1012 16.7835 20.9967 16.8183 20.8575 16.8183C20.8226 16.8183 20.7878 16.8183 20.753 16.8183C20.6485 16.8183 20.5441 16.8531 20.4396 16.8531C20.4048 16.8531 20.3352 16.8531 20.3003 16.8531C20.1262 16.8879 19.9521 16.8879 19.778 16.9227C19.395 16.9576 18.9772 16.9924 18.5593 17.0272C18.4897 17.0272 18.42 17.0272 18.3504 17.0272C18.2111 17.0272 18.0718 17.0272 17.9325 17.062C17.8281 17.062 17.7236 17.062 17.6192 17.062C17.5495 17.062 17.4451 17.062 17.3754 17.062C17.3406 17.062 17.3058 17.062 17.271 17.062C16.8879 17.062 16.5397 17.0968 16.1567 17.0968C15.9826 17.0968 15.8085 17.0968 15.5996 17.0968C14.9728 17.0968 14.3809 17.0968 13.7889 17.062C13.4407 17.062 13.0925 17.0272 12.7791 16.9924C12.6747 16.9924 12.605 16.9924 12.5006 16.9924C12.3961 16.9924 12.2916 16.9924 12.1872 16.9576C12.1175 16.9576 12.0131 16.9576 11.9434 16.9227C11.8738 16.9227 11.8041 16.9227 11.7345 16.9227C11.6649 16.9227 11.5952 16.9227 11.5256 16.9227C11.4559 16.9227 11.3863 16.9227 11.3167 16.8879C11.1426 16.8879 10.9336 16.8531 10.7595 16.8183C10.7247 16.8183 10.6899 16.8183 10.6551 16.8183C10.4461 16.7835 10.2372 16.7835 10.0283 16.7486C9.88902 16.7138 9.74974 16.7138 9.61046 16.679C9.506 16.7138 9.40154 16.7138 9.29707 16.7138C8.94887 16.6442 8.63548 16.6094 8.3221 16.5397C8.18282 16.5049 8.04354 16.4701 7.93908 16.4701C7.73015 16.4353 7.52123 16.3656 7.31231 16.3308C6.65072 16.1567 6.05877 15.9478 5.60611 15.7389C5.11862 15.5299 4.77041 15.2862 4.52667 15.0424C4.42221 14.938 4.35257 14.8335 4.31775 14.7291C4.28293 14.6246 4.24811 14.5201 4.24811 14.4157C4.24811 14.346 4.24811 14.3112 4.28293 14.2416C4.31775 14.0326 4.49185 13.8237 4.73559 13.6496C4.77041 13.6148 4.77041 13.6148 4.80524 13.58C4.87488 13.5452 4.94452 13.4755 5.01416 13.4407C5.36236 13.197 5.84985 12.988 6.4418 12.7791C7.10338 12.5702 7.86944 12.3613 8.73995 12.1872C8.94887 12.1523 9.19261 12.1175 9.43636 12.0827C9.47118 12.0827 9.47118 12.0827 9.506 12.0827H9.54082C9.57564 12.0827 9.61046 12.0827 9.64528 12.0827C10.1676 12.0131 10.7247 11.9434 11.2818 11.8738C11.3863 11.8738 11.5256 11.839 11.63 11.839C11.9782 11.8041 12.3265 11.7693 12.6747 11.7693C12.9532 11.7693 13.2318 11.7345 13.5103 11.7345C13.6496 11.7345 13.7889 11.7345 13.8934 11.7345C14.0675 11.7345 14.2068 11.7345 14.3809 11.7345C14.5201 11.7345 14.6594 11.7345 14.7987 11.7345C15.0076 11.7345 15.1817 11.7345 15.3907 11.7345H15.4951C15.5996 11.7345 15.704 11.7345 15.7737 11.7345C16.1567 11.7345 16.5745 11.7345 16.9576 11.7693C17.0272 11.7693 17.0969 11.7693 17.1665 11.7693C17.2013 11.7693 17.2013 11.7693 17.2361 11.7693C17.271 11.7693 17.3058 11.7693 17.3754 11.7693C17.5495 11.7693 17.6888 11.7693 17.8629 11.8041C17.9674 11.8041 18.0718 11.8041 18.1763 11.839C18.2111 11.839 18.2459 11.839 18.2808 11.839C18.6986 11.8738 19.0816 11.9086 19.4995 11.9434C19.8477 11.9782 20.1959 12.0131 20.5093 12.0479C20.5789 12.0479 20.6485 12.0479 20.7182 12.0827C20.8575 12.0827 21.0316 12.1175 21.1708 12.1523C21.3101 12.1872 21.4494 12.1872 21.5887 12.222H21.6235C21.7628 12.2568 21.9369 12.2568 22.0762 12.2916C22.8074 12.4309 23.469 12.5702 24.0609 12.7443C24.0958 12.7443 24.1306 12.7791 24.1654 12.7791C24.2699 12.8139 24.4091 12.8488 24.5136 12.8836C24.6181 12.9184 24.7225 12.9532 24.7922 12.988C25.2448 13.1621 25.6279 13.3362 25.9412 13.5103C26.0109 13.5452 26.0805 13.58 26.1154 13.6148C26.1502 13.6496 26.185 13.6844 26.2546 13.7193C26.4984 13.8934 26.6725 14.1023 26.7421 14.2764C26.7421 14.3112 26.7421 14.3112 26.7769 14.346C26.8466 14.2764 26.8814 14.3112 26.8814 14.3809Z" fill="url(#paint5_linear)"/>
<path d="M12.605 16.8183C12.5702 16.8879 12.5005 16.9924 12.4657 17.062C12.3612 17.062 12.2568 17.062 12.1523 17.0272C11.9434 17.0272 11.7345 16.9924 11.4907 16.9576C10.9684 16.9227 10.4809 16.8531 9.99345 16.7835C9.85417 16.7486 9.71489 16.7486 9.57561 16.7138C9.54079 16.679 9.54079 16.6094 9.50596 16.5745C9.50596 16.5397 9.47114 16.5049 9.47114 16.4701C9.4015 16.1915 9.4015 15.9129 9.43632 15.6692C9.50597 15.2514 9.78453 14.8683 10.1327 14.5898C10.2372 14.5201 10.3765 14.4505 10.4809 14.4157C10.5158 14.4157 10.5506 14.3808 10.5854 14.3808C11.247 14.2067 11.9434 14.4157 12.3612 14.938C12.3961 14.9728 12.4309 15.0424 12.4657 15.0773C12.5353 15.1817 12.605 15.321 12.6398 15.4255C12.6398 15.4255 12.6398 15.4255 12.6398 15.4603C12.8836 15.9129 12.8487 16.4353 12.605 16.8183Z" fill="white"/>
<path d="M11.5604 15.8085C12.1181 15.8085 12.5702 15.3564 12.5702 14.7987C12.5702 14.241 12.1181 13.7889 11.5604 13.7889C11.0027 13.7889 10.5506 14.241 10.5506 14.7987C10.5506 15.3564 11.0027 15.8085 11.5604 15.8085Z" fill="#E5CACB"/>
<path d="M12.7443 17.062C12.6398 17.062 12.5702 17.062 12.4657 17.062C12.3612 17.062 12.2568 17.062 12.1523 17.0272C11.9434 17.0272 11.7345 16.9924 11.4907 16.9576C11.5952 16.7138 11.8041 16.5397 12.0478 16.5397C12.1175 16.5397 12.1871 16.5397 12.222 16.5397C12.3612 16.5746 12.5005 16.679 12.605 16.7835C12.6746 16.8879 12.7094 16.9924 12.7443 17.062Z" fill="white"/>
<path d="M24.2002 15.2862C24.2002 15.4603 24.1654 15.6344 24.1306 15.8085C24.0958 15.913 24.0609 16.0174 24.0261 16.1219C23.9913 16.1567 23.9913 16.2264 23.9565 16.2612C23.6779 16.3308 23.3645 16.4005 23.0163 16.4701C22.9467 16.5049 22.8422 16.5049 22.7726 16.5397C22.2851 16.6442 21.7628 16.7138 21.2405 16.7835C21.1012 16.7835 20.9967 16.8183 20.8574 16.8183C20.8226 16.8183 20.7878 16.8183 20.753 16.8183C20.6485 16.8183 20.5441 16.8531 20.4396 16.8531C20.4048 16.8531 20.3351 16.8531 20.3003 16.8531C20.2307 16.7835 20.161 16.7138 20.1262 16.679C20.0914 16.6094 20.0218 16.5746 19.9869 16.5049C19.8477 16.296 19.7432 16.0522 19.6736 15.8433C19.6387 15.7389 19.6387 15.6692 19.6039 15.5648C19.5691 15.4255 19.5691 15.321 19.5691 15.1817C19.5691 14.9032 19.6039 14.6246 19.7084 14.3809C19.7432 14.3112 19.778 14.2068 19.8128 14.1371C19.8825 13.9978 19.9521 13.8586 20.0566 13.7541C20.0914 13.6845 20.161 13.6148 20.2307 13.5452C20.2655 13.5104 20.3003 13.4755 20.37 13.4407C20.4396 13.3711 20.5092 13.3363 20.5789 13.2666C20.6485 13.2318 20.7182 13.1622 20.7878 13.1273L20.8226 13.0925C20.9271 13.0229 21.0316 12.988 21.136 12.9532C21.2057 12.9184 21.2753 12.9184 21.3449 12.8836C21.9369 12.7443 22.5637 12.8139 23.086 13.1273C23.2252 13.197 23.3297 13.2666 23.4342 13.3711C23.469 13.4059 23.5038 13.4407 23.5386 13.4755C23.6083 13.5452 23.6779 13.6148 23.7475 13.6845C23.8172 13.7541 23.852 13.8237 23.9216 13.9282C23.9565 13.963 23.9565 13.9978 23.9913 14.0675C24.0261 14.1371 24.0609 14.2068 24.0957 14.2764C24.1306 14.5898 24.2002 14.938 24.2002 15.2862Z" fill="#E5CACB"/>
<path d="M21.6583 14.8335C22.4276 14.8335 23.0511 14.2099 23.0511 13.4407C23.0511 12.6715 22.4276 12.0479 21.6583 12.0479C20.8891 12.0479 20.2655 12.6715 20.2655 13.4407C20.2655 14.2099 20.8891 14.8335 21.6583 14.8335Z" fill="#E5CACB"/>
<path d="M24.6529 16.0522C24.6181 16.0522 24.5833 16.0871 24.5833 16.0871C24.3743 16.1567 24.1654 16.2263 23.9565 16.2612C23.6779 16.3308 23.3645 16.4004 23.0163 16.4701C22.9815 16.4004 22.9467 16.3308 22.9467 16.2612C22.8422 15.7737 23.1208 15.321 23.6083 15.2165H23.6431C23.852 15.1817 24.0261 15.2165 24.2002 15.2862C24.4092 15.3906 24.5833 15.5996 24.6529 15.8781C24.6529 15.913 24.6529 15.9826 24.6529 16.0522Z" fill="#E5CACB"/>
<path d="M20.6833 13.4407C20.5092 14.4505 20.0566 15.3906 19.3253 16.1567C19.1164 16.4004 18.8727 16.6442 18.5941 16.8531C18.5245 16.8879 18.4548 16.9576 18.3852 16.9924C18.3504 17.0272 18.3155 17.0272 18.2807 17.062C18.1414 17.062 18.0022 17.062 17.8629 17.0968C17.7584 17.0968 17.654 17.0968 17.5495 17.0968C17.4799 17.0968 17.3754 17.0968 17.3058 17.0968C17.2709 17.0968 17.2361 17.0968 17.2013 17.0968C16.8183 17.0968 16.4701 17.1317 16.087 17.1317C15.9129 17.1317 15.7388 17.1317 15.5299 17.1317C14.9031 17.1317 14.3112 17.1317 13.7193 17.0968C13.371 17.0968 13.0228 17.062 12.7095 17.0272C12.605 17.0272 12.5354 17.0272 12.4309 17.0272C12.3264 17.0272 12.222 17.0272 12.1175 16.9924C12.0479 16.9924 11.9434 16.9924 11.8738 16.9576C11.7693 16.8879 11.6648 16.7835 11.5256 16.7138C11.2122 16.4701 10.9336 16.1567 10.655 15.8085C9.78454 14.6942 9.40151 13.3362 9.47115 12.0479V12.0131C9.50597 11.1774 9.74972 10.3417 10.1676 9.61045C10.5158 8.98368 11.0033 8.39173 11.63 7.93906C11.6648 7.93906 11.6648 7.90424 11.6997 7.90424C11.7693 7.8346 11.8738 7.76496 11.9782 7.73014C14.0326 6.37214 16.7138 6.51143 18.5941 8.00871C18.7682 8.14799 18.9423 8.28727 19.1164 8.46137C19.2905 8.63547 19.4298 8.77476 19.5691 8.94886C19.7432 9.1926 19.9173 9.40152 20.0218 9.64527C20.4048 10.3417 20.6485 11.1077 20.7182 11.9086C20.8226 12.4309 20.7878 12.9532 20.6833 13.4407Z" fill="url(#paint6_linear)"/>
<path d="M15.3558 11.4211C17.1827 11.4211 18.6637 9.94011 18.6637 8.11318C18.6637 6.28625 17.1827 4.80524 15.3558 4.80524C13.5289 4.80524 12.0479 6.28625 12.0479 8.11318C12.0479 9.94011 13.5289 11.4211 15.3558 11.4211Z" fill="url(#paint7_linear)"/>
<path d="M20.7182 16.8531C20.6137 16.8531 20.5092 16.888 20.4048 16.888C20.3699 16.888 20.3003 16.888 20.2655 16.888C20.0914 16.9228 19.9173 16.9228 19.7432 16.9576C19.3602 16.9924 18.9423 17.0272 18.5245 17.0621C18.4896 17.0621 18.4548 17.0272 18.42 16.9924C17.8281 16.6442 17.4102 16.0523 17.3406 15.2862C17.3057 14.5898 17.5843 13.963 18.0718 13.5104C18.42 13.2318 18.8378 13.0229 19.2905 12.9881C19.6387 12.9532 19.9869 13.0229 20.3003 13.1622C20.3699 13.197 20.4396 13.2318 20.4744 13.2666C20.5441 13.3014 20.6137 13.3363 20.6833 13.4059C21.1012 13.7193 21.4146 14.2068 21.519 14.7639C21.519 14.8335 21.5538 14.9032 21.5538 14.9728C21.6235 15.7389 21.2753 16.4353 20.7182 16.8531Z" fill="url(#paint8_linear)"/>
<path d="M26.2198 13.4407C26.2198 13.6148 26.185 13.7541 26.1502 13.9282C26.0109 14.5898 25.7323 15.2514 25.2797 15.8085C25.1056 15.8782 24.8966 15.9478 24.6877 16.0174C24.6529 16.0174 24.6181 16.0523 24.6181 16.0523C24.5484 16.0871 24.4788 16.0871 24.3743 16.1219C24.3047 16.1567 24.2002 16.1567 24.1306 16.1915C24.0958 16.1915 24.0261 16.2264 23.9913 16.2264C23.7128 16.296 23.3994 16.3657 23.0512 16.4353C22.9815 16.4701 22.8771 16.4701 22.8074 16.5049C22.2851 16.6442 21.7628 16.7139 21.2405 16.7835C21.1012 16.7835 20.9968 16.8183 20.8575 16.8183C20.8227 16.8183 20.7878 16.8183 20.753 16.8183C20.6486 16.8183 20.5441 16.8531 20.4396 16.8531C20.3352 16.7835 20.1959 16.7487 20.0914 16.679C19.8477 16.5398 19.6039 16.3657 19.3602 16.1567C19.1861 16.0174 19.0468 15.8433 18.9075 15.6692C18.42 15.0425 18.1415 14.2764 18.0718 13.5452C18.0022 12.9184 18.1067 12.2917 18.3504 11.6997C18.5245 11.247 18.7682 10.864 19.0816 10.481C19.2557 10.3069 19.4298 10.1328 19.6388 9.95869C19.778 9.85422 19.9173 9.74976 20.0914 9.6453C21.2057 8.98371 22.5637 8.91407 23.7127 9.40156C24.3395 9.6453 24.9315 10.098 25.3841 10.6551C25.9761 11.5256 26.2546 12.5006 26.2198 13.4407Z" fill="url(#paint9_linear)"/>
<path d="M19.1513 11.9434C20.4782 11.9434 21.5539 10.8678 21.5539 9.54083C21.5539 8.2139 20.4782 7.13821 19.1513 7.13821C17.8243 7.13821 16.7487 8.2139 16.7487 9.54083C16.7487 10.8678 17.8243 11.9434 19.1513 11.9434Z" fill="url(#paint10_linear)"/>
<path d="M26.7421 14.8335C26.6028 15.0424 26.3591 15.2514 26.0457 15.4603C25.8368 15.5996 25.5582 15.7389 25.2797 15.8433C25.7323 15.2862 26.0457 14.6594 26.185 13.963C26.4287 14.1719 26.6377 14.4853 26.7421 14.8335Z" fill="url(#paint11_linear)"/>
<path d="M26.1502 13.963C26.0109 14.6246 25.7324 15.2862 25.2449 15.8433C25.1056 15.913 24.9315 15.9826 24.7574 16.0174C24.7226 16.0174 24.6877 16.0523 24.6181 16.0523C24.5833 16.0523 24.5485 16.0871 24.5485 16.0871C24.4092 16.1219 24.2351 16.1916 24.061 16.2264C23.8521 15.9826 23.7128 15.6692 23.6779 15.321C23.6083 14.4853 24.2351 13.7541 25.1056 13.6845C25.1752 13.6845 25.2449 13.6845 25.2797 13.6845C25.6279 13.6845 25.9065 13.7889 26.1502 13.963Z" fill="url(#paint12_linear)"/>
<path d="M12.2917 16.0522C12.0827 16.3308 11.839 16.5397 11.5953 16.7486C11.4908 16.8183 11.4212 16.8879 11.3167 16.9576C10.864 16.9227 10.4462 16.8531 10.0283 16.8183C9.88905 16.7835 9.74977 16.7835 9.61049 16.7486C9.50603 16.7138 9.40157 16.7138 9.29711 16.7138C8.9489 16.6442 8.63552 16.6094 8.32213 16.5397C8.18285 16.5049 8.04357 16.4701 7.93911 16.4701C7.73019 16.4353 7.52126 16.3656 7.31234 16.3308C6.65075 16.1567 6.0588 15.9478 5.60614 15.7389C5.32757 15.321 5.15347 14.8335 5.04901 14.346C4.97937 14.0675 4.97937 13.7541 4.97937 13.4407C5.01419 12.605 5.29275 11.7693 5.84988 11.0729C6.40701 10.3765 7.10342 9.92383 7.90429 9.68009C8.67034 9.43635 9.50603 9.43635 10.2721 9.68009C10.7247 9.81937 11.1774 10.0631 11.5953 10.3765C11.8738 10.6202 12.1524 10.864 12.3613 11.1426C12.5006 11.3515 12.6399 11.5256 12.7443 11.7345C13.4059 13.0925 13.2666 14.7639 12.2917 16.0522Z" fill="url(#paint13_linear)"/>
<path d="M10.3068 12.222C11.6338 12.222 12.7095 11.1463 12.7095 9.81939C12.7095 8.49246 11.6338 7.41678 10.3068 7.41678C8.97992 7.41678 7.90424 8.49246 7.90424 9.81939C7.90424 11.1463 8.97992 12.222 10.3068 12.222Z" fill="url(#paint14_linear)"/>
<path d="M7.48641 15.6692C7.48641 15.8781 7.41677 16.1219 7.31231 16.296C6.65072 16.1219 6.05877 15.913 5.60611 15.704C5.11862 15.4951 4.77042 15.2514 4.52667 15.0076C4.63113 14.7291 4.80524 14.4853 5.04898 14.3112C5.32754 14.1023 5.67575 13.9978 6.05877 14.0327C6.92928 14.0675 7.55605 14.8335 7.48641 15.6692Z" fill="white"/>
<path opacity="0.47" d="M26.2198 13.4407C26.2198 13.6148 26.185 13.7541 26.1502 13.9282C26.0109 14.5898 25.7323 15.2514 25.2448 15.8085C25.1056 15.8781 24.9315 15.9478 24.7573 15.9826C25.0011 15.5996 25.1404 15.1469 25.21 14.7291C25.2448 14.555 25.2448 14.4157 25.2797 14.2416C25.2797 14.0675 25.2797 13.8586 25.2797 13.6496C25.21 12.8836 24.9315 12.1175 24.444 11.4559C23.9913 10.864 23.4342 10.4461 22.7726 10.2024C22.3547 10.0283 21.9369 9.92384 21.519 9.88902C21.2405 9.8542 20.9271 9.88902 20.6137 9.92384C20.5789 9.74974 20.5441 9.57563 20.4744 9.43635C20.161 8.63548 19.4646 8.04353 18.629 7.93907C18.4548 7.90425 18.2459 7.90425 18.0718 7.90425C17.9325 7.90425 17.7584 7.93907 17.6192 7.97389C17.5843 7.90425 17.5843 7.79979 17.5495 7.73015C17.062 6.37215 15.704 5.46682 14.1719 5.57128C13.6496 5.6061 13.1621 5.7802 12.7095 6.02395C13.2666 5.32754 14.1023 4.87487 15.0424 4.77041C16.6442 4.66595 18.0718 5.67574 18.4897 7.17302C18.6289 7.1382 18.7682 7.10338 18.9423 7.10338C20.1959 6.99892 21.3101 7.90425 21.4842 9.12297C22.2155 9.01851 22.9467 9.12297 23.6431 9.40153C24.2699 9.6801 24.8618 10.0979 25.3145 10.6551C25.9761 11.5256 26.2546 12.5006 26.2198 13.4407Z" fill="url(#paint15_linear)"/>
</g>
<defs>
<linearGradient id="paint0_linear" x1="15.9995" y1="-0.728026" x2="15.9995" y2="23.3504" gradientUnits="userSpaceOnUse">
<stop stop-color="#DC383D"/>
<stop offset="1" stop-color="#A11E21"/>
</linearGradient>
<linearGradient id="paint1_linear" x1="15.5993" y1="16.7525" x2="15.5993" y2="36.3799" gradientUnits="userSpaceOnUse">
<stop stop-color="#FFDA64"/>
<stop offset="1" stop-color="#FEC30E"/>
</linearGradient>
<linearGradient id="paint2_linear" x1="11.2038" y1="26.1828" x2="11.2038" y2="42.4481" gradientUnits="userSpaceOnUse">
<stop stop-color="#DC383D"/>
<stop offset="1" stop-color="#A11E21"/>
</linearGradient>
<linearGradient id="paint3_linear" x1="19.9719" y1="26.1828" x2="19.9719" y2="42.4481" gradientUnits="userSpaceOnUse">
<stop stop-color="#DC383D"/>
<stop offset="1" stop-color="#A11E21"/>
</linearGradient>
<linearGradient id="paint4_linear" x1="17.6081" y1="33.8259" x2="19.6782" y2="12.4353" gradientUnits="userSpaceOnUse">
<stop stop-color="#0B0B0B"/>
<stop offset="1" stop-color="#0B0B0B" stop-opacity="0"/>
</linearGradient>
<linearGradient id="paint5_linear" x1="4.24828" y1="14.3943" x2="26.8703" y2="14.3943" gradientUnits="userSpaceOnUse">
<stop stop-color="#DC383D"/>
<stop offset="1" stop-color="#A11E21"/>
</linearGradient>
<linearGradient id="paint6_linear" x1="15.4177" y1="10.2186" x2="14.4594" y2="18.5755" gradientUnits="userSpaceOnUse">
<stop stop-color="#F2F3F3"/>
<stop offset="1" stop-color="white"/>
</linearGradient>
<linearGradient id="paint7_linear" x1="15.1061" y1="10.1829" x2="14.1477" y2="18.5398" gradientUnits="userSpaceOnUse">
<stop stop-color="#F2F3F3"/>
<stop offset="1" stop-color="white"/>
</linearGradient>
<linearGradient id="paint8_linear" x1="19.0423" y1="9.63071" x2="20.0007" y2="22.5494" gradientUnits="userSpaceOnUse">
<stop stop-color="#F2F3F3"/>
<stop offset="1" stop-color="white"/>
</linearGradient>
<linearGradient id="paint9_linear" x1="21.8552" y1="9.42207" x2="22.8135" y2="22.3408" gradientUnits="userSpaceOnUse">
<stop stop-color="#F2F3F3"/>
<stop offset="1" stop-color="white"/>
</linearGradient>
<linearGradient id="paint10_linear" x1="19.0396" y1="10.634" x2="18.0812" y2="18.9909" gradientUnits="userSpaceOnUse">
<stop stop-color="#F2F3F3"/>
<stop offset="1" stop-color="white"/>
</linearGradient>
<linearGradient id="paint11_linear" x1="25.8922" y1="13.9662" x2="26.0253" y2="15.7603" gradientUnits="userSpaceOnUse">
<stop stop-color="#F2F3F3"/>
<stop offset="1" stop-color="white"/>
</linearGradient>
<linearGradient id="paint12_linear" x1="24.5263" y1="9.21869" x2="25.4856" y2="22.1496" gradientUnits="userSpaceOnUse">
<stop stop-color="#F2F3F3"/>
<stop offset="1" stop-color="white"/>
</linearGradient>
<linearGradient id="paint13_linear" x1="11.2567" y1="9.53987" x2="5.58323" y2="19.9285" gradientUnits="userSpaceOnUse">
<stop stop-color="#F2F3F3"/>
<stop offset="1" stop-color="white"/>
</linearGradient>
<linearGradient id="paint14_linear" x1="10.6271" y1="9.19607" x2="4.95359" y2="19.5847" gradientUnits="userSpaceOnUse">
<stop stop-color="#F2F3F3"/>
<stop offset="1" stop-color="white"/>
</linearGradient>
<linearGradient id="paint15_linear" x1="19.6327" y1="14.4132" x2="19.211" y2="0.881175" gradientUnits="userSpaceOnUse">
<stop stop-color="#CDCECE"/>
<stop offset="1" stop-color="white"/>
</linearGradient>
<clipPath id="clip0">
<rect width="139.804" height="32" fill="white"/>
</clipPath>
</defs>
</svg>
