<svg width="20" height="20" viewBox="0 0 20 20" fill="none" xmlns="http://www.w3.org/2000/svg">
<path fill-rule="evenodd" clip-rule="evenodd" d="M10.9202 3.48116L12.4431 6.52345C12.5923 6.82212 12.8804 7.02922 13.2145 7.07714L16.6211 7.5675C17.4628 7.68902 17.7977 8.70911 17.1886 9.29361L14.7252 11.6607C14.4831 11.8935 14.3729 12.2281 14.4301 12.5567L15.0115 15.8985C15.1547 16.7252 14.2748 17.3559 13.5225 16.9648L10.4777 15.3859C10.1792 15.231 9.82169 15.231 9.52232 15.3859L6.4775 16.9648C5.72519 17.3559 4.84533 16.7252 4.98937 15.8985L5.56987 12.5567C5.62714 12.2281 5.51694 11.8935 5.27485 11.6607L2.8114 9.29361C2.20226 8.70911 2.5372 7.68902 3.37889 7.5675L6.78554 7.07714C7.11961 7.02922 7.40856 6.82212 7.55781 6.52345L9.07979 3.48116C9.45638 2.72893 10.5436 2.72893 10.9202 3.48116Z" stroke="#FFD362" stroke-width="2" stroke-linecap="round" stroke-linejoin="round"/>
</svg>
